%
M48
METRIC,000.000
T01C0.40
T02C0.80
T03C0.90
T04C1.00
T05C1.02
T06C3.20
%
T01
X002029Y022800
X010287Y013741
X010922Y019330
X011557Y017044
X011811Y019330
X012446Y017044
X012700Y019330
X013335Y017044
X013335Y014631
X014224Y017044
X015113Y017044
X020193Y009551
X021209Y010439
X025908Y015774
X025908Y014758
X026162Y033935
X026924Y015774
X026924Y014758
X027178Y033805
X028194Y015139
X030090Y021864
X030607Y036348
X030607Y035332
X030861Y022505
X050030Y022800
X058287Y013741
X058922Y019330
X059557Y017044
X059811Y019330
X060446Y017044
X060700Y019330
X061335Y017044
X061335Y014631
X062224Y017044
X063113Y017044
X068193Y009551
X069209Y010439
X073908Y015774
X073908Y014758
X074162Y033935
X074924Y015774
X074924Y014758
X075178Y033805
X076194Y015139
X078090Y021864
X078607Y036348
X078607Y035332
X078861Y022505
X002029Y070800
X010287Y061742
X010922Y067330
X011557Y065044
X011811Y067330
X012446Y065044
X012700Y067330
X013335Y065044
X013335Y062631
X014224Y065044
X015113Y065044
X020193Y057551
X021209Y058440
X025908Y063774
X025908Y062757
X026162Y081935
X026924Y063774
X026924Y062757
X027178Y081805
X028194Y063138
X030090Y069864
X030607Y084348
X030607Y083332
X030861Y070505
X050030Y070800
X058287Y061742
X058922Y067330
X059557Y065044
X059811Y067330
X060446Y065044
X060700Y067330
X061335Y065044
X061335Y062631
X062224Y065044
X063113Y065044
X068193Y057551
X069209Y058440
X073908Y063774
X073908Y062757
X074162Y081935
X074924Y063774
X074924Y062757
X075178Y081805
X076194Y063138
X078090Y069864
X078607Y084348
X078607Y083332
X078861Y070505
T02
X002903Y014395
X004699Y012598
X006495Y010802
X039134Y042934
X040930Y041138
X042726Y039342
X002903Y039505
X004699Y041301
X006495Y043097
X039860Y010421
X041656Y012218
X043452Y014014
X050903Y014395
X052699Y012598
X054495Y010802
X087134Y042934
X088930Y041138
X090726Y039342
X050903Y039505
X052699Y041301
X054495Y043097
X087860Y010421
X089656Y012218
X091452Y014014
X002903Y062394
X004699Y060599
X006495Y058803
X039134Y090934
X040930Y089138
X042726Y087342
X002903Y087505
X004699Y089301
X006495Y091097
X039860Y058422
X041656Y060218
X043452Y062013
X050903Y062394
X052699Y060599
X054495Y058803
X087134Y090934
X088930Y089138
X090726Y087342
X050903Y087505
X052699Y089301
X054495Y091097
X087860Y058422
X089656Y060218
X091452Y062013
T03
X021590Y031649
X024130Y031649
X027305Y030039
X028575Y027839
X017145Y027839
X018415Y030039
X021590Y020219
X024130Y020219
X017145Y024029
X018415Y021829
X027305Y022759
X028575Y024959
X022860Y027204
X022860Y024664
X069590Y031649
X072130Y031649
X075305Y030039
X076575Y027839
X065144Y027839
X066414Y030039
X069590Y020219
X072130Y020219
X065144Y024029
X066414Y021829
X075305Y022759
X076575Y024959
X070860Y027204
X070860Y024664
X021590Y079649
X024130Y079649
X027305Y078039
X028575Y075839
X017145Y075839
X018415Y078039
X021590Y068219
X024130Y068219
X017145Y072029
X018415Y069829
X027305Y070759
X028575Y072959
X022860Y075204
X022860Y072664
X069590Y079649
X072130Y079649
X075305Y078039
X076575Y075839
X065144Y075839
X066414Y078039
X069590Y068219
X072130Y068219
X065144Y072029
X066414Y069829
X075305Y070759
X076575Y072959
X070860Y075204
X070860Y072664
T04
X010414Y040031
X012954Y040031
X015494Y040031
X018034Y040031
X020574Y040031
X023114Y040031
X006870Y006100
X006870Y003560
X009410Y006100
X009410Y003560
X011950Y006100
X011950Y003560
X014490Y006100
X014490Y003560
X017030Y006100
X017030Y003560
X019570Y006100
X019570Y003560
X022110Y006100
X022110Y003560
X024650Y006100
X024650Y003560
X027190Y006100
X027190Y003560
X029730Y006100
X029730Y003560
X032270Y006100
X032270Y003560
X034810Y006100
X034810Y003560
X037350Y006100
X037350Y003560
X039890Y006100
X039890Y003560
X058414Y040031
X060954Y040031
X063494Y040031
X066033Y040031
X068574Y040031
X071114Y040031
X054870Y006100
X054870Y003560
X057410Y006100
X057410Y003560
X059950Y006100
X059950Y003560
X062490Y006100
X062490Y003560
X065030Y006100
X065030Y003560
X067570Y006100
X067570Y003560
X070110Y006100
X070110Y003560
X072650Y006100
X072650Y003560
X075190Y006100
X075190Y003560
X077730Y006100
X077730Y003560
X080270Y006100
X080270Y003560
X082810Y006100
X082810Y003560
X085350Y006100
X085350Y003560
X087890Y006100
X087890Y003560
X010414Y088031
X012954Y088031
X015494Y088031
X018034Y088031
X020574Y088031
X023114Y088031
X006870Y054100
X006870Y051560
X009410Y054100
X009410Y051560
X011950Y054100
X011950Y051560
X014490Y054100
X014490Y051560
X017030Y054100
X017030Y051560
X019570Y054100
X019570Y051560
X022110Y054100
X022110Y051560
X024650Y054100
X024650Y051560
X027190Y054100
X027190Y051560
X029730Y054100
X029730Y051560
X032270Y054100
X032270Y051560
X034810Y054100
X034810Y051560
X037350Y054100
X037350Y051560
X039890Y054100
X039890Y051560
X058414Y088031
X060954Y088031
X063494Y088031
X066033Y088031
X068574Y088031
X071114Y088031
X054870Y054100
X054870Y051560
X057410Y054100
X057410Y051560
X059950Y054100
X059950Y051560
X062490Y054100
X062490Y051560
X065030Y054100
X065030Y051560
X067570Y054100
X067570Y051560
X070110Y054100
X070110Y051560
X072650Y054100
X072650Y051560
X075190Y054100
X075190Y051560
X077730Y054100
X077730Y051560
X080270Y054100
X080270Y051560
X082810Y054100
X082810Y051560
X085350Y054100
X085350Y051560
X087890Y054100
X087890Y051560
T05
X002794Y029744
X002794Y027204
X002794Y024664
X033274Y019076
X033274Y016536
X033274Y013996
X033274Y011456
X050794Y029744
X050794Y027204
X050794Y024664
X081274Y019076
X081274Y016536
X081274Y013996
X081274Y011456
X002794Y077744
X002794Y075204
X002794Y072664
X033274Y067076
X033274Y064536
X033274Y061996
X033274Y059456
X050794Y077744
X050794Y075204
X050794Y072664
X081274Y067076
X081274Y064536
X081274Y061996
X081274Y059456
T06
X044590Y001909
X001410Y001909
X023000Y045090
X092590Y001909
X049410Y001909
X071000Y045090
X044590Y049910
X001410Y049910
X023000Y093090
X092590Y049910
X049410Y049910
X071000Y093090
M30