%MOIN*%
%OFA0B0*%
%FSLAX46Y46*%
%IPPOS*%
%LPD*%
%ADD10C,0.005905511811023622*%
%ADD11C,0.0047244094488188976*%
%ADD22C,0.005905511811023622*%
%ADD23C,0.0047244094488188976*%
%ADD24C,0.005905511811023622*%
%ADD25C,0.0047244094488188976*%
%ADD26C,0.005905511811023622*%
%ADD27C,0.0047244094488188976*%
G01*
D10*
X0001527374Y0000463042D02*
X0001537980Y0000473649D01*
X0001492019Y0000498397D02*
X0001502625Y0000509004D01*
X0001632980Y0000568649D02*
X0001622374Y0000558042D01*
X0001597625Y0000604004D02*
X0001587019Y0000593397D01*
X0000177980Y0000408397D02*
X0000167374Y0000419004D01*
X0000142625Y0000373042D02*
X0000132019Y0000383649D01*
X0000197019Y0001538397D02*
X0000207625Y0001549004D01*
X0000232374Y0001503042D02*
X0000242980Y0001513649D01*
X0001472729Y0001562938D02*
X0001483336Y0001552331D01*
X0001508085Y0001598293D02*
X0001518691Y0001587687D01*
D11*
X0000496296Y0000564566D02*
X0000543703Y0000564566D01*
X0000496296Y0000457480D02*
X0000543703Y0000457480D01*
X0000543703Y0000884566D02*
X0000496296Y0000884566D01*
X0000543703Y0000777480D02*
X0000496296Y0000777480D01*
X0000553858Y0001055984D02*
X0000553858Y0000926062D01*
X0000553858Y0000926062D02*
X0000341259Y0000926062D01*
X0000553858Y0001055984D02*
X0000341259Y0001055984D01*
D10*
X0000426889Y0000876850D02*
X0000367834Y0000876850D01*
X0000426889Y0000593385D02*
X0000367834Y0000593385D01*
X0000163110Y0000593385D02*
X0000222165Y0000593385D01*
X0000163110Y0000876850D02*
X0000222165Y0000876850D01*
X0000426889Y0000593385D02*
X0000426889Y0000876850D01*
X0000163110Y0000593385D02*
X0000163110Y0000876850D01*
X0001137500Y0001436023D02*
X0001122500Y0001436023D01*
X0001137500Y0001386023D02*
X0001122500Y0001386023D01*
X0000675000Y0000768523D02*
X0000675000Y0000753523D01*
X0000625000Y0000768523D02*
X0000625000Y0000753523D01*
X0000625000Y0000628523D02*
X0000625000Y0000613523D01*
X0000675000Y0000628523D02*
X0000675000Y0000613523D01*
D11*
X0000563385Y0000706456D02*
X0000563385Y0000635590D01*
X0000436614Y0000635590D02*
X0000436614Y0000732047D01*
X0000896296Y0000477480D02*
X0000943703Y0000477480D01*
X0000896296Y0000584566D02*
X0000943703Y0000584566D01*
D10*
X0000975000Y0001013523D02*
X0000975000Y0001028523D01*
X0001025000Y0001013523D02*
X0001025000Y0001028523D01*
X0001082500Y0000696023D02*
X0001067500Y0000696023D01*
X0001082500Y0000646023D02*
X0001067500Y0000646023D01*
X0000892500Y0000736023D02*
X0000907500Y0000736023D01*
X0000892500Y0000686023D02*
X0000907500Y0000686023D01*
X0000892500Y0000606023D02*
X0000907500Y0000606023D01*
X0000892500Y0000656023D02*
X0000907500Y0000656023D01*
D11*
X0001012795Y0000800944D02*
X0001049409Y0000800944D01*
X0001137204Y0000800944D02*
X0001100590Y0000800944D01*
X0001137204Y0000800944D02*
X0001137204Y0000715905D01*
X0001012795Y0000800944D02*
X0001012795Y0000743464D01*
X0000239763Y0000083661D02*
X0000239763Y0000030118D01*
X0001599606Y0000288385D02*
X0001622047Y0000288385D01*
X0001499606Y0000288385D02*
X0001539763Y0000288385D01*
X0001399606Y0000288385D02*
X0001439763Y0000288385D01*
X0001299606Y0000288385D02*
X0001339763Y0000288385D01*
X0001199606Y0000288385D02*
X0001239763Y0000288385D01*
X0001099606Y0000288385D02*
X0001139763Y0000288385D01*
X0000999606Y0000288385D02*
X0001039763Y0000288385D01*
X0000899606Y0000288385D02*
X0000939763Y0000288385D01*
X0000799606Y0000288385D02*
X0000839763Y0000288385D01*
X0000699606Y0000288385D02*
X0000739763Y0000288385D01*
X0000599606Y0000288385D02*
X0000639763Y0000288385D01*
X0000499606Y0000288385D02*
X0000539763Y0000288385D01*
X0000399606Y0000288385D02*
X0000439763Y0000288385D01*
X0000299606Y0000288385D02*
X0000339763Y0000288385D01*
X0000217322Y0000288385D02*
X0000239763Y0000288385D01*
X0001622047Y0000288385D02*
X0001622047Y0000083661D01*
X0001599606Y0000083661D02*
X0001622047Y0000083661D01*
X0001499606Y0000083661D02*
X0001539763Y0000083661D01*
X0001399606Y0000083661D02*
X0001439763Y0000083661D01*
X0001299606Y0000083661D02*
X0001339763Y0000083661D01*
X0001199606Y0000083661D02*
X0001239763Y0000083661D01*
X0001099606Y0000083661D02*
X0001139763Y0000083661D01*
X0000999606Y0000083661D02*
X0001039763Y0000083661D01*
X0000899606Y0000083661D02*
X0000939763Y0000083661D01*
X0000799606Y0000083661D02*
X0000839763Y0000083661D01*
X0000699606Y0000083661D02*
X0000739763Y0000083661D01*
X0000599606Y0000083661D02*
X0000639763Y0000083661D01*
X0000499606Y0000083661D02*
X0000539763Y0000083661D01*
X0000399606Y0000083661D02*
X0000439763Y0000083661D01*
X0000299606Y0000083661D02*
X0000339763Y0000083661D01*
X0000217322Y0000083661D02*
X0000239763Y0000083661D01*
X0000217322Y0000288385D02*
X0000217322Y0000083661D01*
X0000218110Y0000140157D02*
X0000218110Y0000087795D01*
X0000218110Y0000087795D02*
X0000270472Y0000087795D01*
X0000218110Y0000190157D02*
X0000320472Y0000190157D01*
X0000320472Y0000190157D02*
X0000320472Y0000087795D01*
X0000320472Y0000087795D02*
X0001622834Y0000087795D01*
X0001622834Y0000292519D02*
X0001622834Y0000087795D01*
X0000218110Y0000292519D02*
X0001622834Y0000292519D01*
X0000218110Y0000292519D02*
X0000218110Y0000190157D01*
D10*
X0001487233Y0000523069D02*
X0001483256Y0000545605D01*
X0001503141Y0000538977D02*
X0001475302Y0000566816D01*
X0001464697Y0000556211D01*
X0001463371Y0000552234D01*
X0001463371Y0000549582D01*
X0001464697Y0000545605D01*
X0001468674Y0000541628D01*
X0001472651Y0000540303D01*
X0001475302Y0000540303D01*
X0001479279Y0000541628D01*
X0001489884Y0000552234D01*
X0001455417Y0000523069D02*
X0001456743Y0000527046D01*
X0001456743Y0000529697D01*
X0001455417Y0000533674D01*
X0001454092Y0000535000D01*
X0001450115Y0000536326D01*
X0001447463Y0000536326D01*
X0001443486Y0000535000D01*
X0001438184Y0000529697D01*
X0001436858Y0000525720D01*
X0001436858Y0000523069D01*
X0001438184Y0000519092D01*
X0001439509Y0000517767D01*
X0001443486Y0000516441D01*
X0001446138Y0000516441D01*
X0001450115Y0000517767D01*
X0001455417Y0000523069D01*
X0001459394Y0000524395D01*
X0001462046Y0000524395D01*
X0001466022Y0000523069D01*
X0001471325Y0000517767D01*
X0001472651Y0000513790D01*
X0001472651Y0000511138D01*
X0001471325Y0000507161D01*
X0001466022Y0000501859D01*
X0001462046Y0000500533D01*
X0001459394Y0000500533D01*
X0001455417Y0000501859D01*
X0001450115Y0000507161D01*
X0001448789Y0000511138D01*
X0001448789Y0000513790D01*
X0001450115Y0000517767D01*
X0001578648Y0000621655D02*
X0001581299Y0000621655D01*
X0001586602Y0000624306D01*
X0001589253Y0000626957D01*
X0001591904Y0000632260D01*
X0001591904Y0000637563D01*
X0001590579Y0000641540D01*
X0001586602Y0000648168D01*
X0001582625Y0000652145D01*
X0001575996Y0000656122D01*
X0001572019Y0000657447D01*
X0001566717Y0000657447D01*
X0001561414Y0000654796D01*
X0001558763Y0000652145D01*
X0001556111Y0000646842D01*
X0001556111Y0000644191D01*
X0001544180Y0000637563D02*
X0001525621Y0000619003D01*
X0001565391Y0000603095D01*
X0000104697Y0000336441D02*
X0000104697Y0000333790D01*
X0000107348Y0000328487D01*
X0000109999Y0000325836D01*
X0000115302Y0000323184D01*
X0000120605Y0000323184D01*
X0000124582Y0000324510D01*
X0000131210Y0000328487D01*
X0000135187Y0000332464D01*
X0000139164Y0000339092D01*
X0000140490Y0000343069D01*
X0000140490Y0000348372D01*
X0000137838Y0000353674D01*
X0000135187Y0000356326D01*
X0000129884Y0000358977D01*
X0000127233Y0000358977D01*
X0000102046Y0000365605D02*
X0000106022Y0000364280D01*
X0000108674Y0000364280D01*
X0000112651Y0000365605D01*
X0000113976Y0000366931D01*
X0000115302Y0000370908D01*
X0000115302Y0000373559D01*
X0000113976Y0000377536D01*
X0000108674Y0000382839D01*
X0000104697Y0000384165D01*
X0000102046Y0000384165D01*
X0000098069Y0000382839D01*
X0000096743Y0000381513D01*
X0000095417Y0000377536D01*
X0000095417Y0000374885D01*
X0000096743Y0000370908D01*
X0000102046Y0000365605D01*
X0000103371Y0000361628D01*
X0000103371Y0000358977D01*
X0000102046Y0000355000D01*
X0000096743Y0000349697D01*
X0000092766Y0000348372D01*
X0000090115Y0000348372D01*
X0000086138Y0000349697D01*
X0000080835Y0000355000D01*
X0000079509Y0000358977D01*
X0000079509Y0000361628D01*
X0000080835Y0000365605D01*
X0000086138Y0000370908D01*
X0000090115Y0000372234D01*
X0000092766Y0000372234D01*
X0000096743Y0000370908D01*
X0000280516Y0001474786D02*
X0000283167Y0001474786D01*
X0000288470Y0001477438D01*
X0000291121Y0001480089D01*
X0000293772Y0001485392D01*
X0000293772Y0001490694D01*
X0000292447Y0001494671D01*
X0000288470Y0001501300D01*
X0000284493Y0001505277D01*
X0000277865Y0001509254D01*
X0000273888Y0001510579D01*
X0000268585Y0001510579D01*
X0000263282Y0001507928D01*
X0000260631Y0001505277D01*
X0000257980Y0001499974D01*
X0000257980Y0001497323D01*
X0000269911Y0001458878D02*
X0000264608Y0001453576D01*
X0000260631Y0001452250D01*
X0000257980Y0001452250D01*
X0000251351Y0001453576D01*
X0000244723Y0001457553D01*
X0000234118Y0001468158D01*
X0000232792Y0001472135D01*
X0000232792Y0001474786D01*
X0000234118Y0001478763D01*
X0000239420Y0001484066D01*
X0000243397Y0001485392D01*
X0000246049Y0001485392D01*
X0000250026Y0001484066D01*
X0000256654Y0001477438D01*
X0000257980Y0001473461D01*
X0000257980Y0001470809D01*
X0000256654Y0001466832D01*
X0000251351Y0001461530D01*
X0000247374Y0001460204D01*
X0000244723Y0001460204D01*
X0000240746Y0001461530D01*
X0001444473Y0001514796D02*
X0001444473Y0001512145D01*
X0001447125Y0001506842D01*
X0001449776Y0001504191D01*
X0001455079Y0001501540D01*
X0001460381Y0001501540D01*
X0001464358Y0001502865D01*
X0001470987Y0001506842D01*
X0001474964Y0001510819D01*
X0001478941Y0001517447D01*
X0001480266Y0001521424D01*
X0001480266Y0001526727D01*
X0001477615Y0001532030D01*
X0001474964Y0001534681D01*
X0001469661Y0001537332D01*
X0001467010Y0001537332D01*
X0001445799Y0001563846D02*
X0001451102Y0001558543D01*
X0001452427Y0001554566D01*
X0001452427Y0001551915D01*
X0001451102Y0001545286D01*
X0001447125Y0001538658D01*
X0001436519Y0001528053D01*
X0001432542Y0001526727D01*
X0001429891Y0001526727D01*
X0001425914Y0001528053D01*
X0001420612Y0001533355D01*
X0001419286Y0001537332D01*
X0001419286Y0001539984D01*
X0001420612Y0001543961D01*
X0001427240Y0001550589D01*
X0001431217Y0001551915D01*
X0001433868Y0001551915D01*
X0001437845Y0001550589D01*
X0001443148Y0001545286D01*
X0001444473Y0001541309D01*
X0001444473Y0001538658D01*
X0001443148Y0001534681D01*
X0000651561Y0000496962D02*
X0000653436Y0000495088D01*
X0000659060Y0000493213D01*
X0000662810Y0000493213D01*
X0000668434Y0000495088D01*
X0000672184Y0000498837D01*
X0000674058Y0000502587D01*
X0000675933Y0000510086D01*
X0000675933Y0000515710D01*
X0000674058Y0000523209D01*
X0000672184Y0000526959D01*
X0000668434Y0000530708D01*
X0000662810Y0000532583D01*
X0000659060Y0000532583D01*
X0000653436Y0000530708D01*
X0000651561Y0000528833D01*
X0000636563Y0000528833D02*
X0000634688Y0000530708D01*
X0000630939Y0000532583D01*
X0000621565Y0000532583D01*
X0000617815Y0000530708D01*
X0000615941Y0000528833D01*
X0000614066Y0000525084D01*
X0000614066Y0000521334D01*
X0000615941Y0000515710D01*
X0000638438Y0000493213D01*
X0000614066Y0000493213D01*
X0000646561Y0000841962D02*
X0000648436Y0000840088D01*
X0000654060Y0000838213D01*
X0000657810Y0000838213D01*
X0000663434Y0000840088D01*
X0000667184Y0000843837D01*
X0000669058Y0000847587D01*
X0000670933Y0000855086D01*
X0000670933Y0000860710D01*
X0000669058Y0000868209D01*
X0000667184Y0000871959D01*
X0000663434Y0000875708D01*
X0000657810Y0000877583D01*
X0000654060Y0000877583D01*
X0000648436Y0000875708D01*
X0000646561Y0000873833D01*
X0000633438Y0000877583D02*
X0000609066Y0000877583D01*
X0000622189Y0000862585D01*
X0000616565Y0000862585D01*
X0000612815Y0000860710D01*
X0000610941Y0000858835D01*
X0000609066Y0000855086D01*
X0000609066Y0000845712D01*
X0000610941Y0000841962D01*
X0000612815Y0000840088D01*
X0000616565Y0000838213D01*
X0000627814Y0000838213D01*
X0000631563Y0000840088D01*
X0000633438Y0000841962D01*
X0000449058Y0001071638D02*
X0000449058Y0001111008D01*
X0000439685Y0001111008D01*
X0000434060Y0001109133D01*
X0000430311Y0001105384D01*
X0000428436Y0001101634D01*
X0000426561Y0001094135D01*
X0000426561Y0001088511D01*
X0000428436Y0001081012D01*
X0000430311Y0001077262D01*
X0000434060Y0001073513D01*
X0000439685Y0001071638D01*
X0000449058Y0001071638D01*
X0000404064Y0001094135D02*
X0000407814Y0001096010D01*
X0000409688Y0001097885D01*
X0000411563Y0001101634D01*
X0000411563Y0001103509D01*
X0000409688Y0001107259D01*
X0000407814Y0001109133D01*
X0000404064Y0001111008D01*
X0000396565Y0001111008D01*
X0000392815Y0001109133D01*
X0000390941Y0001107259D01*
X0000389066Y0001103509D01*
X0000389066Y0001101634D01*
X0000390941Y0001097885D01*
X0000392815Y0001096010D01*
X0000396565Y0001094135D01*
X0000404064Y0001094135D01*
X0000407814Y0001092260D01*
X0000409688Y0001090386D01*
X0000411563Y0001086636D01*
X0000411563Y0001079137D01*
X0000409688Y0001075388D01*
X0000407814Y0001073513D01*
X0000404064Y0001071638D01*
X0000396565Y0001071638D01*
X0000392815Y0001073513D01*
X0000390941Y0001075388D01*
X0000389066Y0001079137D01*
X0000389066Y0001086636D01*
X0000390941Y0001090386D01*
X0000392815Y0001092260D01*
X0000396565Y0001094135D01*
X0000147731Y0000741679D02*
X0000147731Y0000760427D01*
X0000108361Y0000760427D01*
X0000147731Y0000707934D02*
X0000147731Y0000730431D01*
X0000147731Y0000719182D02*
X0000108361Y0000719182D01*
X0000113985Y0000722932D01*
X0000117735Y0000726681D01*
X0000119610Y0000730431D01*
X0001136561Y0001458174D02*
X0001149685Y0001476921D01*
X0001159058Y0001458174D02*
X0001159058Y0001497544D01*
X0001144060Y0001497544D01*
X0001140311Y0001495669D01*
X0001138436Y0001493794D01*
X0001136561Y0001490045D01*
X0001136561Y0001484420D01*
X0001138436Y0001480671D01*
X0001140311Y0001478796D01*
X0001144060Y0001476921D01*
X0001159058Y0001476921D01*
X0001123438Y0001497544D02*
X0001097191Y0001497544D01*
X0001114064Y0001458174D01*
X0000727810Y0000762585D02*
X0000709062Y0000775708D01*
X0000727810Y0000785082D02*
X0000688440Y0000785082D01*
X0000688440Y0000770084D01*
X0000690314Y0000766334D01*
X0000692189Y0000764460D01*
X0000695939Y0000762585D01*
X0000701563Y0000762585D01*
X0000705313Y0000764460D01*
X0000707187Y0000766334D01*
X0000709062Y0000770084D01*
X0000709062Y0000785082D01*
X0000688440Y0000726964D02*
X0000688440Y0000745712D01*
X0000707187Y0000747587D01*
X0000705313Y0000745712D01*
X0000703438Y0000741962D01*
X0000703438Y0000732589D01*
X0000705313Y0000728839D01*
X0000707187Y0000726964D01*
X0000710937Y0000725090D01*
X0000720311Y0000725090D01*
X0000724060Y0000726964D01*
X0000725935Y0000728839D01*
X0000727810Y0000732589D01*
X0000727810Y0000741962D01*
X0000725935Y0000745712D01*
X0000724060Y0000747587D01*
X0000727810Y0000627585D02*
X0000709062Y0000640708D01*
X0000727810Y0000650082D02*
X0000688440Y0000650082D01*
X0000688440Y0000635084D01*
X0000690314Y0000631334D01*
X0000692189Y0000629460D01*
X0000695939Y0000627585D01*
X0000701563Y0000627585D01*
X0000705313Y0000629460D01*
X0000707187Y0000631334D01*
X0000709062Y0000635084D01*
X0000709062Y0000650082D01*
X0000688440Y0000593839D02*
X0000688440Y0000601338D01*
X0000690314Y0000605088D01*
X0000692189Y0000606962D01*
X0000697814Y0000610712D01*
X0000705313Y0000612587D01*
X0000720311Y0000612587D01*
X0000724060Y0000610712D01*
X0000725935Y0000608837D01*
X0000727810Y0000605088D01*
X0000727810Y0000597589D01*
X0000725935Y0000593839D01*
X0000724060Y0000591964D01*
X0000720311Y0000590089D01*
X0000710937Y0000590089D01*
X0000707187Y0000591964D01*
X0000705313Y0000593839D01*
X0000703438Y0000597589D01*
X0000703438Y0000605088D01*
X0000705313Y0000608837D01*
X0000707187Y0000610712D01*
X0000710937Y0000612587D01*
X0000614996Y0000772583D02*
X0000614996Y0000740712D01*
X0000613121Y0000736962D01*
X0000611246Y0000735088D01*
X0000607497Y0000733213D01*
X0000599998Y0000733213D01*
X0000596248Y0000735088D01*
X0000594373Y0000736962D01*
X0000592499Y0000740712D01*
X0000592499Y0000772583D01*
X0000553128Y0000733213D02*
X0000575626Y0000733213D01*
X0000564377Y0000733213D02*
X0000564377Y0000772583D01*
X0000568127Y0000766959D01*
X0000571876Y0000763209D01*
X0000575626Y0000761334D01*
X0000806561Y0000516962D02*
X0000808436Y0000515088D01*
X0000814060Y0000513213D01*
X0000817810Y0000513213D01*
X0000823434Y0000515088D01*
X0000827184Y0000518837D01*
X0000829058Y0000522587D01*
X0000830933Y0000530086D01*
X0000830933Y0000535710D01*
X0000829058Y0000543209D01*
X0000827184Y0000546959D01*
X0000823434Y0000550708D01*
X0000817810Y0000552583D01*
X0000814060Y0000552583D01*
X0000808436Y0000550708D01*
X0000806561Y0000548833D01*
X0000769066Y0000513213D02*
X0000791563Y0000513213D01*
X0000780314Y0000513213D02*
X0000780314Y0000552583D01*
X0000784064Y0000546959D01*
X0000787814Y0000543209D01*
X0000791563Y0000541334D01*
X0001082770Y0001027585D02*
X0001064023Y0001040708D01*
X0001082770Y0001050082D02*
X0001043400Y0001050082D01*
X0001043400Y0001035084D01*
X0001045275Y0001031334D01*
X0001047150Y0001029460D01*
X0001050899Y0001027585D01*
X0001056524Y0001027585D01*
X0001060273Y0001029460D01*
X0001062148Y0001031334D01*
X0001064023Y0001035084D01*
X0001064023Y0001050082D01*
X0001082770Y0000990090D02*
X0001082770Y0001012587D01*
X0001082770Y0001001338D02*
X0001043400Y0001001338D01*
X0001049025Y0001005088D01*
X0001052774Y0001008837D01*
X0001054649Y0001012587D01*
X0001181561Y0000653213D02*
X0001194685Y0000671961D01*
X0001204058Y0000653213D02*
X0001204058Y0000692583D01*
X0001189060Y0000692583D01*
X0001185311Y0000690708D01*
X0001183436Y0000688833D01*
X0001181561Y0000685084D01*
X0001181561Y0000679460D01*
X0001183436Y0000675710D01*
X0001185311Y0000673835D01*
X0001189060Y0000671961D01*
X0001204058Y0000671961D01*
X0001166563Y0000688833D02*
X0001164688Y0000690708D01*
X0001160939Y0000692583D01*
X0001151565Y0000692583D01*
X0001147815Y0000690708D01*
X0001145941Y0000688833D01*
X0001144066Y0000685084D01*
X0001144066Y0000681334D01*
X0001145941Y0000675710D01*
X0001168438Y0000653213D01*
X0001144066Y0000653213D01*
X0000806561Y0000693213D02*
X0000819685Y0000711961D01*
X0000829058Y0000693213D02*
X0000829058Y0000732583D01*
X0000814060Y0000732583D01*
X0000810311Y0000730708D01*
X0000808436Y0000728833D01*
X0000806561Y0000725084D01*
X0000806561Y0000719460D01*
X0000808436Y0000715710D01*
X0000810311Y0000713835D01*
X0000814060Y0000711961D01*
X0000829058Y0000711961D01*
X0000793438Y0000732583D02*
X0000769066Y0000732583D01*
X0000782189Y0000717585D01*
X0000776565Y0000717585D01*
X0000772815Y0000715710D01*
X0000770941Y0000713835D01*
X0000769066Y0000710086D01*
X0000769066Y0000700712D01*
X0000770941Y0000696962D01*
X0000772815Y0000695088D01*
X0000776565Y0000693213D01*
X0000787814Y0000693213D01*
X0000791563Y0000695088D01*
X0000793438Y0000696962D01*
X0000806561Y0000613213D02*
X0000819685Y0000631961D01*
X0000829058Y0000613213D02*
X0000829058Y0000652583D01*
X0000814060Y0000652583D01*
X0000810311Y0000650708D01*
X0000808436Y0000648833D01*
X0000806561Y0000645084D01*
X0000806561Y0000639460D01*
X0000808436Y0000635710D01*
X0000810311Y0000633835D01*
X0000814060Y0000631961D01*
X0000829058Y0000631961D01*
X0000772815Y0000639460D02*
X0000772815Y0000613213D01*
X0000782189Y0000654458D02*
X0000791563Y0000626336D01*
X0000767191Y0000626336D01*
X0001194985Y0000774773D02*
X0001193110Y0000778522D01*
X0001189360Y0000782272D01*
X0001183736Y0000787896D01*
X0001181861Y0000791646D01*
X0001181861Y0000795395D01*
X0001191235Y0000793520D02*
X0001189360Y0000797270D01*
X0001185611Y0000801019D01*
X0001178112Y0000802894D01*
X0001164988Y0000802894D01*
X0001157489Y0000801019D01*
X0001153740Y0000797270D01*
X0001151865Y0000793520D01*
X0001151865Y0000786021D01*
X0001153740Y0000782272D01*
X0001157489Y0000778522D01*
X0001164988Y0000776647D01*
X0001178112Y0000776647D01*
X0001185611Y0000778522D01*
X0001189360Y0000782272D01*
X0001191235Y0000786021D01*
X0001191235Y0000793520D01*
X0001191235Y0000739152D02*
X0001191235Y0000761649D01*
X0001191235Y0000750401D02*
X0001151865Y0000750401D01*
X0001157489Y0000754150D01*
X0001161239Y0000757900D01*
X0001163113Y0000761649D01*
X0000139857Y0000203280D02*
X0000167978Y0000203280D01*
X0000173603Y0000205155D01*
X0000177352Y0000208905D01*
X0000179227Y0000214529D01*
X0000179227Y0000218278D01*
X0000179227Y0000163910D02*
X0000179227Y0000186407D01*
X0000179227Y0000175159D02*
X0000139857Y0000175159D01*
X0000145481Y0000178908D01*
X0000149231Y0000182658D01*
X0000151106Y0000186407D01*
G04 next file*
G04 #@! TF.GenerationSoftware,KiCad,Pcbnew,(5.0.2)-1*
G04 #@! TF.CreationDate,2019-01-31T16:36:43+01:00*
G04 #@! TF.ProjectId,SHMod24_RF_IR_Bridge,53484d6f-6432-4345-9f52-465f49525f42,rev?*
G04 #@! TF.SameCoordinates,Original*
G04 #@! TF.FileFunction,Legend,Bot*
G04 #@! TF.FilePolarity,Positive*
G04 Gerber Fmt 4.6, Leading zero omitted, Abs format (unit mm)*
G04 Created by KiCad (PCBNEW (5.0.2)-1) date 31/01/2019 16:36:43*
G01*
G04 APERTURE LIST*
G04 APERTURE END LIST*
D22*
G04 #@! TO.C,R8*
X0003417138Y0000463042D02*
X0003427744Y0000473649D01*
X0003381782Y0000498397D02*
X0003392389Y0000509004D01*
G04 #@! TO.C,C7*
X0003522744Y0000568649D02*
X0003512138Y0000558042D01*
X0003487389Y0000604004D02*
X0003476782Y0000593397D01*
G04 #@! TO.C,C8*
X0002067744Y0000408397D02*
X0002057138Y0000419004D01*
X0002032389Y0000373042D02*
X0002021782Y0000383649D01*
G04 #@! TO.C,C9*
X0002086782Y0001538397D02*
X0002097389Y0001549004D01*
X0002122138Y0001503042D02*
X0002132744Y0001513649D01*
G04 #@! TO.C,C6*
X0003362493Y0001562938D02*
X0003373100Y0001552331D01*
X0003397848Y0001598293D02*
X0003408455Y0001587687D01*
D23*
G04 #@! TO.C,C2*
X0002386060Y0000564566D02*
X0002433467Y0000564566D01*
X0002386060Y0000457480D02*
X0002433467Y0000457480D01*
G04 #@! TO.C,C3*
X0002433467Y0000884566D02*
X0002386060Y0000884566D01*
X0002433467Y0000777480D02*
X0002386060Y0000777480D01*
G04 #@! TO.C,D8*
X0002443622Y0001055984D02*
X0002443622Y0000926062D01*
X0002443622Y0000926062D02*
X0002231023Y0000926062D01*
X0002443622Y0001055984D02*
X0002231023Y0001055984D01*
D22*
G04 #@! TO.C,L1*
X0002316653Y0000876850D02*
X0002257598Y0000876850D01*
X0002316653Y0000593385D02*
X0002257598Y0000593385D01*
X0002052874Y0000593385D02*
X0002111929Y0000593385D01*
X0002052874Y0000876850D02*
X0002111929Y0000876850D01*
X0002316653Y0000593385D02*
X0002316653Y0000876850D01*
X0002052874Y0000593385D02*
X0002052874Y0000876850D01*
G04 #@! TO.C,R7*
X0003027263Y0001436023D02*
X0003012263Y0001436023D01*
X0003027263Y0001386023D02*
X0003012263Y0001386023D01*
G04 #@! TO.C,R5*
X0002564763Y0000768523D02*
X0002564763Y0000753523D01*
X0002514763Y0000768523D02*
X0002514763Y0000753523D01*
G04 #@! TO.C,R6*
X0002514763Y0000628523D02*
X0002514763Y0000613523D01*
X0002564763Y0000628523D02*
X0002564763Y0000613523D01*
D23*
G04 #@! TO.C,U1*
X0002453149Y0000706456D02*
X0002453149Y0000635590D01*
X0002326377Y0000635590D02*
X0002326377Y0000732047D01*
G04 #@! TO.C,C1*
X0002786060Y0000477480D02*
X0002833467Y0000477480D01*
X0002786060Y0000584566D02*
X0002833467Y0000584566D01*
D22*
G04 #@! TO.C,R1*
X0002864763Y0001013523D02*
X0002864763Y0001028523D01*
X0002914763Y0001013523D02*
X0002914763Y0001028523D01*
G04 #@! TO.C,R2*
X0002972263Y0000696023D02*
X0002957263Y0000696023D01*
X0002972263Y0000646023D02*
X0002957263Y0000646023D01*
G04 #@! TO.C,R3*
X0002782263Y0000736023D02*
X0002797263Y0000736023D01*
X0002782263Y0000686023D02*
X0002797263Y0000686023D01*
G04 #@! TO.C,R4*
X0002782263Y0000606023D02*
X0002797263Y0000606023D01*
X0002782263Y0000656023D02*
X0002797263Y0000656023D01*
D23*
G04 #@! TO.C,Q1*
X0002902559Y0000800944D02*
X0002939173Y0000800944D01*
X0003026968Y0000800944D02*
X0002990354Y0000800944D01*
X0003026968Y0000800944D02*
X0003026968Y0000715905D01*
X0002902559Y0000800944D02*
X0002902559Y0000743464D01*
G04 #@! TO.C,J2*
X0002129527Y0000083661D02*
X0002129527Y0000030118D01*
X0003489370Y0000288385D02*
X0003511811Y0000288385D01*
X0003389370Y0000288385D02*
X0003429527Y0000288385D01*
X0003289370Y0000288385D02*
X0003329527Y0000288385D01*
X0003189370Y0000288385D02*
X0003229527Y0000288385D01*
X0003089370Y0000288385D02*
X0003129527Y0000288385D01*
X0002989370Y0000288385D02*
X0003029527Y0000288385D01*
X0002889370Y0000288385D02*
X0002929527Y0000288385D01*
X0002789370Y0000288385D02*
X0002829527Y0000288385D01*
X0002689370Y0000288385D02*
X0002729527Y0000288385D01*
X0002589370Y0000288385D02*
X0002629527Y0000288385D01*
X0002489370Y0000288385D02*
X0002529527Y0000288385D01*
X0002389370Y0000288385D02*
X0002429527Y0000288385D01*
X0002289370Y0000288385D02*
X0002329527Y0000288385D01*
X0002189370Y0000288385D02*
X0002229527Y0000288385D01*
X0002107086Y0000288385D02*
X0002129527Y0000288385D01*
X0003511811Y0000288385D02*
X0003511811Y0000083661D01*
X0003489370Y0000083661D02*
X0003511811Y0000083661D01*
X0003389370Y0000083661D02*
X0003429527Y0000083661D01*
X0003289370Y0000083661D02*
X0003329527Y0000083661D01*
X0003189370Y0000083661D02*
X0003229527Y0000083661D01*
X0003089370Y0000083661D02*
X0003129527Y0000083661D01*
X0002989370Y0000083661D02*
X0003029527Y0000083661D01*
X0002889370Y0000083661D02*
X0002929527Y0000083661D01*
X0002789370Y0000083661D02*
X0002829527Y0000083661D01*
X0002689370Y0000083661D02*
X0002729527Y0000083661D01*
X0002589370Y0000083661D02*
X0002629527Y0000083661D01*
X0002489370Y0000083661D02*
X0002529527Y0000083661D01*
X0002389370Y0000083661D02*
X0002429527Y0000083661D01*
X0002289370Y0000083661D02*
X0002329527Y0000083661D01*
X0002189370Y0000083661D02*
X0002229527Y0000083661D01*
X0002107086Y0000083661D02*
X0002129527Y0000083661D01*
X0002107086Y0000288385D02*
X0002107086Y0000083661D01*
G04 #@! TO.C,J1*
X0002107874Y0000140157D02*
X0002107874Y0000087795D01*
X0002107874Y0000087795D02*
X0002160236Y0000087795D01*
X0002107874Y0000190157D02*
X0002210236Y0000190157D01*
X0002210236Y0000190157D02*
X0002210236Y0000087795D01*
X0002210236Y0000087795D02*
X0003512598Y0000087795D01*
X0003512598Y0000292519D02*
X0003512598Y0000087795D01*
X0002107874Y0000292519D02*
X0003512598Y0000292519D01*
X0002107874Y0000292519D02*
X0002107874Y0000190157D01*
G04 #@! TO.C,R8*
D22*
X0003376997Y0000523069D02*
X0003373020Y0000545605D01*
X0003392905Y0000538977D02*
X0003365066Y0000566816D01*
X0003354461Y0000556211D01*
X0003353135Y0000552234D01*
X0003353135Y0000549582D01*
X0003354461Y0000545605D01*
X0003358438Y0000541628D01*
X0003362415Y0000540303D01*
X0003365066Y0000540303D01*
X0003369043Y0000541628D01*
X0003379648Y0000552234D01*
X0003345181Y0000523069D02*
X0003346507Y0000527046D01*
X0003346507Y0000529697D01*
X0003345181Y0000533674D01*
X0003343855Y0000535000D01*
X0003339878Y0000536326D01*
X0003337227Y0000536326D01*
X0003333250Y0000535000D01*
X0003327947Y0000529697D01*
X0003326622Y0000525720D01*
X0003326622Y0000523069D01*
X0003327947Y0000519092D01*
X0003329273Y0000517767D01*
X0003333250Y0000516441D01*
X0003335901Y0000516441D01*
X0003339878Y0000517767D01*
X0003345181Y0000523069D01*
X0003349158Y0000524395D01*
X0003351809Y0000524395D01*
X0003355786Y0000523069D01*
X0003361089Y0000517767D01*
X0003362415Y0000513790D01*
X0003362415Y0000511138D01*
X0003361089Y0000507161D01*
X0003355786Y0000501859D01*
X0003351809Y0000500533D01*
X0003349158Y0000500533D01*
X0003345181Y0000501859D01*
X0003339878Y0000507161D01*
X0003338553Y0000511138D01*
X0003338553Y0000513790D01*
X0003339878Y0000517767D01*
G04 #@! TO.C,C7*
X0003468411Y0000621655D02*
X0003471063Y0000621655D01*
X0003476365Y0000624306D01*
X0003479017Y0000626957D01*
X0003481668Y0000632260D01*
X0003481668Y0000637563D01*
X0003480342Y0000641540D01*
X0003476365Y0000648168D01*
X0003472388Y0000652145D01*
X0003465760Y0000656122D01*
X0003461783Y0000657447D01*
X0003456480Y0000657447D01*
X0003451178Y0000654796D01*
X0003448527Y0000652145D01*
X0003445875Y0000646842D01*
X0003445875Y0000644191D01*
X0003433944Y0000637563D02*
X0003415385Y0000619003D01*
X0003455155Y0000603095D01*
G04 #@! TO.C,C8*
X0001994461Y0000336441D02*
X0001994461Y0000333790D01*
X0001997112Y0000328487D01*
X0001999763Y0000325836D01*
X0002005066Y0000323184D01*
X0002010369Y0000323184D01*
X0002014346Y0000324510D01*
X0002020974Y0000328487D01*
X0002024951Y0000332464D01*
X0002028928Y0000339092D01*
X0002030253Y0000343069D01*
X0002030253Y0000348372D01*
X0002027602Y0000353674D01*
X0002024951Y0000356326D01*
X0002019648Y0000358977D01*
X0002016997Y0000358977D01*
X0001991809Y0000365605D02*
X0001995786Y0000364280D01*
X0001998438Y0000364280D01*
X0002002415Y0000365605D01*
X0002003740Y0000366931D01*
X0002005066Y0000370908D01*
X0002005066Y0000373559D01*
X0002003740Y0000377536D01*
X0001998438Y0000382839D01*
X0001994461Y0000384165D01*
X0001991809Y0000384165D01*
X0001987832Y0000382839D01*
X0001986507Y0000381513D01*
X0001985181Y0000377536D01*
X0001985181Y0000374885D01*
X0001986507Y0000370908D01*
X0001991809Y0000365605D01*
X0001993135Y0000361628D01*
X0001993135Y0000358977D01*
X0001991809Y0000355000D01*
X0001986507Y0000349697D01*
X0001982530Y0000348372D01*
X0001979878Y0000348372D01*
X0001975901Y0000349697D01*
X0001970599Y0000355000D01*
X0001969273Y0000358977D01*
X0001969273Y0000361628D01*
X0001970599Y0000365605D01*
X0001975901Y0000370908D01*
X0001979878Y0000372234D01*
X0001982530Y0000372234D01*
X0001986507Y0000370908D01*
G04 #@! TO.C,C9*
X0002170280Y0001474786D02*
X0002172931Y0001474786D01*
X0002178234Y0001477438D01*
X0002180885Y0001480089D01*
X0002183536Y0001485392D01*
X0002183536Y0001490694D01*
X0002182211Y0001494671D01*
X0002178234Y0001501300D01*
X0002174257Y0001505277D01*
X0002167628Y0001509254D01*
X0002163651Y0001510579D01*
X0002158349Y0001510579D01*
X0002153046Y0001507928D01*
X0002150395Y0001505277D01*
X0002147743Y0001499974D01*
X0002147743Y0001497323D01*
X0002159674Y0001458878D02*
X0002154372Y0001453576D01*
X0002150395Y0001452250D01*
X0002147743Y0001452250D01*
X0002141115Y0001453576D01*
X0002134487Y0001457553D01*
X0002123881Y0001468158D01*
X0002122556Y0001472135D01*
X0002122556Y0001474786D01*
X0002123881Y0001478763D01*
X0002129184Y0001484066D01*
X0002133161Y0001485392D01*
X0002135812Y0001485392D01*
X0002139789Y0001484066D01*
X0002146418Y0001477438D01*
X0002147743Y0001473461D01*
X0002147743Y0001470809D01*
X0002146418Y0001466832D01*
X0002141115Y0001461530D01*
X0002137138Y0001460204D01*
X0002134487Y0001460204D01*
X0002130510Y0001461530D01*
G04 #@! TO.C,C6*
X0003334237Y0001514796D02*
X0003334237Y0001512145D01*
X0003336889Y0001506842D01*
X0003339540Y0001504191D01*
X0003344842Y0001501540D01*
X0003350145Y0001501540D01*
X0003354122Y0001502865D01*
X0003360750Y0001506842D01*
X0003364727Y0001510819D01*
X0003368704Y0001517447D01*
X0003370030Y0001521424D01*
X0003370030Y0001526727D01*
X0003367379Y0001532030D01*
X0003364727Y0001534681D01*
X0003359425Y0001537332D01*
X0003356773Y0001537332D01*
X0003335563Y0001563846D02*
X0003340865Y0001558543D01*
X0003342191Y0001554566D01*
X0003342191Y0001551915D01*
X0003340865Y0001545286D01*
X0003336889Y0001538658D01*
X0003326283Y0001528053D01*
X0003322306Y0001526727D01*
X0003319655Y0001526727D01*
X0003315678Y0001528053D01*
X0003310375Y0001533355D01*
X0003309050Y0001537332D01*
X0003309050Y0001539984D01*
X0003310375Y0001543961D01*
X0003317004Y0001550589D01*
X0003320981Y0001551915D01*
X0003323632Y0001551915D01*
X0003327609Y0001550589D01*
X0003332912Y0001545286D01*
X0003334237Y0001541309D01*
X0003334237Y0001538658D01*
X0003332912Y0001534681D01*
G04 #@! TO.C,C2*
X0002541325Y0000496962D02*
X0002543200Y0000495088D01*
X0002548824Y0000493213D01*
X0002552574Y0000493213D01*
X0002558198Y0000495088D01*
X0002561947Y0000498837D01*
X0002563822Y0000502587D01*
X0002565697Y0000510086D01*
X0002565697Y0000515710D01*
X0002563822Y0000523209D01*
X0002561947Y0000526959D01*
X0002558198Y0000530708D01*
X0002552574Y0000532583D01*
X0002548824Y0000532583D01*
X0002543200Y0000530708D01*
X0002541325Y0000528833D01*
X0002526327Y0000528833D02*
X0002524452Y0000530708D01*
X0002520703Y0000532583D01*
X0002511329Y0000532583D01*
X0002507579Y0000530708D01*
X0002505704Y0000528833D01*
X0002503830Y0000525084D01*
X0002503830Y0000521334D01*
X0002505704Y0000515710D01*
X0002528202Y0000493213D01*
X0002503830Y0000493213D01*
G04 #@! TO.C,C3*
X0002536325Y0000841962D02*
X0002538200Y0000840088D01*
X0002543824Y0000838213D01*
X0002547574Y0000838213D01*
X0002553198Y0000840088D01*
X0002556947Y0000843837D01*
X0002558822Y0000847587D01*
X0002560697Y0000855086D01*
X0002560697Y0000860710D01*
X0002558822Y0000868209D01*
X0002556947Y0000871959D01*
X0002553198Y0000875708D01*
X0002547574Y0000877583D01*
X0002543824Y0000877583D01*
X0002538200Y0000875708D01*
X0002536325Y0000873833D01*
X0002523202Y0000877583D02*
X0002498830Y0000877583D01*
X0002511953Y0000862585D01*
X0002506329Y0000862585D01*
X0002502579Y0000860710D01*
X0002500704Y0000858835D01*
X0002498830Y0000855086D01*
X0002498830Y0000845712D01*
X0002500704Y0000841962D01*
X0002502579Y0000840088D01*
X0002506329Y0000838213D01*
X0002517577Y0000838213D01*
X0002521327Y0000840088D01*
X0002523202Y0000841962D01*
G04 #@! TO.C,D8*
X0002338822Y0001071638D02*
X0002338822Y0001111008D01*
X0002329448Y0001111008D01*
X0002323824Y0001109133D01*
X0002320074Y0001105384D01*
X0002318200Y0001101634D01*
X0002316325Y0001094135D01*
X0002316325Y0001088511D01*
X0002318200Y0001081012D01*
X0002320074Y0001077262D01*
X0002323824Y0001073513D01*
X0002329448Y0001071638D01*
X0002338822Y0001071638D01*
X0002293828Y0001094135D02*
X0002297577Y0001096010D01*
X0002299452Y0001097885D01*
X0002301327Y0001101634D01*
X0002301327Y0001103509D01*
X0002299452Y0001107259D01*
X0002297577Y0001109133D01*
X0002293828Y0001111008D01*
X0002286329Y0001111008D01*
X0002282579Y0001109133D01*
X0002280704Y0001107259D01*
X0002278830Y0001103509D01*
X0002278830Y0001101634D01*
X0002280704Y0001097885D01*
X0002282579Y0001096010D01*
X0002286329Y0001094135D01*
X0002293828Y0001094135D01*
X0002297577Y0001092260D01*
X0002299452Y0001090386D01*
X0002301327Y0001086636D01*
X0002301327Y0001079137D01*
X0002299452Y0001075388D01*
X0002297577Y0001073513D01*
X0002293828Y0001071638D01*
X0002286329Y0001071638D01*
X0002282579Y0001073513D01*
X0002280704Y0001075388D01*
X0002278830Y0001079137D01*
X0002278830Y0001086636D01*
X0002280704Y0001090386D01*
X0002282579Y0001092260D01*
X0002286329Y0001094135D01*
G04 #@! TO.C,L1*
X0002037495Y0000741679D02*
X0002037495Y0000760427D01*
X0001998125Y0000760427D01*
X0002037495Y0000707934D02*
X0002037495Y0000730431D01*
X0002037495Y0000719182D02*
X0001998125Y0000719182D01*
X0002003749Y0000722932D01*
X0002007499Y0000726681D01*
X0002009373Y0000730431D01*
G04 #@! TO.C,R7*
X0003026325Y0001458174D02*
X0003039448Y0001476921D01*
X0003048822Y0001458174D02*
X0003048822Y0001497544D01*
X0003033824Y0001497544D01*
X0003030074Y0001495669D01*
X0003028200Y0001493794D01*
X0003026325Y0001490045D01*
X0003026325Y0001484420D01*
X0003028200Y0001480671D01*
X0003030074Y0001478796D01*
X0003033824Y0001476921D01*
X0003048822Y0001476921D01*
X0003013202Y0001497544D02*
X0002986955Y0001497544D01*
X0003003828Y0001458174D01*
G04 #@! TO.C,R5*
X0002617574Y0000762585D02*
X0002598826Y0000775708D01*
X0002617574Y0000785082D02*
X0002578203Y0000785082D01*
X0002578203Y0000770084D01*
X0002580078Y0000766334D01*
X0002581953Y0000764460D01*
X0002585703Y0000762585D01*
X0002591327Y0000762585D01*
X0002595076Y0000764460D01*
X0002596951Y0000766334D01*
X0002598826Y0000770084D01*
X0002598826Y0000785082D01*
X0002578203Y0000726964D02*
X0002578203Y0000745712D01*
X0002596951Y0000747587D01*
X0002595076Y0000745712D01*
X0002593202Y0000741962D01*
X0002593202Y0000732589D01*
X0002595076Y0000728839D01*
X0002596951Y0000726964D01*
X0002600701Y0000725090D01*
X0002610074Y0000725090D01*
X0002613824Y0000726964D01*
X0002615699Y0000728839D01*
X0002617574Y0000732589D01*
X0002617574Y0000741962D01*
X0002615699Y0000745712D01*
X0002613824Y0000747587D01*
G04 #@! TO.C,R6*
X0002617574Y0000627585D02*
X0002598826Y0000640708D01*
X0002617574Y0000650082D02*
X0002578203Y0000650082D01*
X0002578203Y0000635084D01*
X0002580078Y0000631334D01*
X0002581953Y0000629460D01*
X0002585703Y0000627585D01*
X0002591327Y0000627585D01*
X0002595076Y0000629460D01*
X0002596951Y0000631334D01*
X0002598826Y0000635084D01*
X0002598826Y0000650082D01*
X0002578203Y0000593839D02*
X0002578203Y0000601338D01*
X0002580078Y0000605088D01*
X0002581953Y0000606962D01*
X0002587577Y0000610712D01*
X0002595076Y0000612587D01*
X0002610074Y0000612587D01*
X0002613824Y0000610712D01*
X0002615699Y0000608837D01*
X0002617574Y0000605088D01*
X0002617574Y0000597589D01*
X0002615699Y0000593839D01*
X0002613824Y0000591964D01*
X0002610074Y0000590089D01*
X0002600701Y0000590089D01*
X0002596951Y0000591964D01*
X0002595076Y0000593839D01*
X0002593202Y0000597589D01*
X0002593202Y0000605088D01*
X0002595076Y0000608837D01*
X0002596951Y0000610712D01*
X0002600701Y0000612587D01*
G04 #@! TO.C,U1*
X0002504759Y0000772583D02*
X0002504759Y0000740712D01*
X0002502885Y0000736962D01*
X0002501010Y0000735088D01*
X0002497260Y0000733213D01*
X0002489761Y0000733213D01*
X0002486012Y0000735088D01*
X0002484137Y0000736962D01*
X0002482262Y0000740712D01*
X0002482262Y0000772583D01*
X0002442892Y0000733213D02*
X0002465389Y0000733213D01*
X0002454141Y0000733213D02*
X0002454141Y0000772583D01*
X0002457890Y0000766959D01*
X0002461640Y0000763209D01*
X0002465389Y0000761334D01*
G04 #@! TO.C,C1*
X0002696325Y0000516962D02*
X0002698200Y0000515088D01*
X0002703824Y0000513213D01*
X0002707574Y0000513213D01*
X0002713198Y0000515088D01*
X0002716947Y0000518837D01*
X0002718822Y0000522587D01*
X0002720697Y0000530086D01*
X0002720697Y0000535710D01*
X0002718822Y0000543209D01*
X0002716947Y0000546959D01*
X0002713198Y0000550708D01*
X0002707574Y0000552583D01*
X0002703824Y0000552583D01*
X0002698200Y0000550708D01*
X0002696325Y0000548833D01*
X0002658830Y0000513213D02*
X0002681327Y0000513213D01*
X0002670078Y0000513213D02*
X0002670078Y0000552583D01*
X0002673828Y0000546959D01*
X0002677577Y0000543209D01*
X0002681327Y0000541334D01*
G04 #@! TO.C,R1*
X0002972534Y0001027585D02*
X0002953787Y0001040708D01*
X0002972534Y0001050082D02*
X0002933164Y0001050082D01*
X0002933164Y0001035084D01*
X0002935039Y0001031334D01*
X0002936914Y0001029460D01*
X0002940663Y0001027585D01*
X0002946287Y0001027585D01*
X0002950037Y0001029460D01*
X0002951912Y0001031334D01*
X0002953787Y0001035084D01*
X0002953787Y0001050082D01*
X0002972534Y0000990090D02*
X0002972534Y0001012587D01*
X0002972534Y0001001338D02*
X0002933164Y0001001338D01*
X0002938788Y0001005088D01*
X0002942538Y0001008837D01*
X0002944413Y0001012587D01*
G04 #@! TO.C,R2*
X0003071325Y0000653213D02*
X0003084448Y0000671961D01*
X0003093822Y0000653213D02*
X0003093822Y0000692583D01*
X0003078824Y0000692583D01*
X0003075074Y0000690708D01*
X0003073200Y0000688833D01*
X0003071325Y0000685084D01*
X0003071325Y0000679460D01*
X0003073200Y0000675710D01*
X0003075074Y0000673835D01*
X0003078824Y0000671961D01*
X0003093822Y0000671961D01*
X0003056327Y0000688833D02*
X0003054452Y0000690708D01*
X0003050703Y0000692583D01*
X0003041329Y0000692583D01*
X0003037579Y0000690708D01*
X0003035704Y0000688833D01*
X0003033830Y0000685084D01*
X0003033830Y0000681334D01*
X0003035704Y0000675710D01*
X0003058202Y0000653213D01*
X0003033830Y0000653213D01*
G04 #@! TO.C,R3*
X0002696325Y0000693213D02*
X0002709448Y0000711961D01*
X0002718822Y0000693213D02*
X0002718822Y0000732583D01*
X0002703824Y0000732583D01*
X0002700074Y0000730708D01*
X0002698200Y0000728833D01*
X0002696325Y0000725084D01*
X0002696325Y0000719460D01*
X0002698200Y0000715710D01*
X0002700074Y0000713835D01*
X0002703824Y0000711961D01*
X0002718822Y0000711961D01*
X0002683202Y0000732583D02*
X0002658830Y0000732583D01*
X0002671953Y0000717585D01*
X0002666329Y0000717585D01*
X0002662579Y0000715710D01*
X0002660704Y0000713835D01*
X0002658830Y0000710086D01*
X0002658830Y0000700712D01*
X0002660704Y0000696962D01*
X0002662579Y0000695088D01*
X0002666329Y0000693213D01*
X0002677577Y0000693213D01*
X0002681327Y0000695088D01*
X0002683202Y0000696962D01*
G04 #@! TO.C,R4*
X0002696325Y0000613213D02*
X0002709448Y0000631961D01*
X0002718822Y0000613213D02*
X0002718822Y0000652583D01*
X0002703824Y0000652583D01*
X0002700074Y0000650708D01*
X0002698200Y0000648833D01*
X0002696325Y0000645084D01*
X0002696325Y0000639460D01*
X0002698200Y0000635710D01*
X0002700074Y0000633835D01*
X0002703824Y0000631961D01*
X0002718822Y0000631961D01*
X0002662579Y0000639460D02*
X0002662579Y0000613213D01*
X0002671953Y0000654458D02*
X0002681327Y0000626336D01*
X0002656955Y0000626336D01*
G04 #@! TO.C,Q1*
X0003084748Y0000774773D02*
X0003082874Y0000778522D01*
X0003079124Y0000782272D01*
X0003073500Y0000787896D01*
X0003071625Y0000791646D01*
X0003071625Y0000795395D01*
X0003080999Y0000793520D02*
X0003079124Y0000797270D01*
X0003075374Y0000801019D01*
X0003067875Y0000802894D01*
X0003054752Y0000802894D01*
X0003047253Y0000801019D01*
X0003043503Y0000797270D01*
X0003041629Y0000793520D01*
X0003041629Y0000786021D01*
X0003043503Y0000782272D01*
X0003047253Y0000778522D01*
X0003054752Y0000776647D01*
X0003067875Y0000776647D01*
X0003075374Y0000778522D01*
X0003079124Y0000782272D01*
X0003080999Y0000786021D01*
X0003080999Y0000793520D01*
X0003080999Y0000739152D02*
X0003080999Y0000761649D01*
X0003080999Y0000750401D02*
X0003041629Y0000750401D01*
X0003047253Y0000754150D01*
X0003051002Y0000757900D01*
X0003052877Y0000761649D01*
G04 #@! TO.C,J1*
X0002029621Y0000203280D02*
X0002057742Y0000203280D01*
X0002063367Y0000205155D01*
X0002067116Y0000208905D01*
X0002068991Y0000214529D01*
X0002068991Y0000218278D01*
X0002068991Y0000163910D02*
X0002068991Y0000186407D01*
X0002068991Y0000175159D02*
X0002029621Y0000175159D01*
X0002035245Y0000178908D01*
X0002038995Y0000182658D01*
X0002040869Y0000186407D01*
G04 #@! TD*
G04 next file*
G04 #@! TF.GenerationSoftware,KiCad,Pcbnew,(5.0.2)-1*
G04 #@! TF.CreationDate,2019-01-31T16:36:43+01:00*
G04 #@! TF.ProjectId,SHMod24_RF_IR_Bridge,53484d6f-6432-4345-9f52-465f49525f42,rev?*
G04 #@! TF.SameCoordinates,Original*
G04 #@! TF.FileFunction,Legend,Bot*
G04 #@! TF.FilePolarity,Positive*
G04 Gerber Fmt 4.6, Leading zero omitted, Abs format (unit mm)*
G04 Created by KiCad (PCBNEW (5.0.2)-1) date 31/01/2019 16:36:43*
G01*
G04 APERTURE LIST*
G04 APERTURE END LIST*
D24*
G04 #@! TO.C,R8*
X0001527374Y0002352806D02*
X0001537980Y0002363413D01*
X0001492019Y0002388161D02*
X0001502625Y0002398768D01*
G04 #@! TO.C,C7*
X0001632980Y0002458413D02*
X0001622374Y0002447806D01*
X0001597625Y0002493768D02*
X0001587019Y0002483161D01*
G04 #@! TO.C,C8*
X0000177980Y0002298161D02*
X0000167374Y0002308768D01*
X0000142625Y0002262806D02*
X0000132019Y0002273413D01*
G04 #@! TO.C,C9*
X0000197019Y0003428161D02*
X0000207625Y0003438768D01*
X0000232374Y0003392806D02*
X0000242980Y0003403413D01*
G04 #@! TO.C,C6*
X0001472729Y0003452702D02*
X0001483336Y0003442095D01*
X0001508085Y0003488057D02*
X0001518691Y0003477451D01*
D25*
G04 #@! TO.C,C2*
X0000496296Y0002454330D02*
X0000543703Y0002454330D01*
X0000496296Y0002347244D02*
X0000543703Y0002347244D01*
G04 #@! TO.C,C3*
X0000543703Y0002774330D02*
X0000496296Y0002774330D01*
X0000543703Y0002667244D02*
X0000496296Y0002667244D01*
G04 #@! TO.C,D8*
X0000553858Y0002945748D02*
X0000553858Y0002815826D01*
X0000553858Y0002815826D02*
X0000341259Y0002815826D01*
X0000553858Y0002945748D02*
X0000341259Y0002945748D01*
D24*
G04 #@! TO.C,L1*
X0000426889Y0002766614D02*
X0000367834Y0002766614D01*
X0000426889Y0002483149D02*
X0000367834Y0002483149D01*
X0000163110Y0002483149D02*
X0000222165Y0002483149D01*
X0000163110Y0002766614D02*
X0000222165Y0002766614D01*
X0000426889Y0002483149D02*
X0000426889Y0002766614D01*
X0000163110Y0002483149D02*
X0000163110Y0002766614D01*
G04 #@! TO.C,R7*
X0001137500Y0003325787D02*
X0001122500Y0003325787D01*
X0001137500Y0003275787D02*
X0001122500Y0003275787D01*
G04 #@! TO.C,R5*
X0000675000Y0002658287D02*
X0000675000Y0002643287D01*
X0000625000Y0002658287D02*
X0000625000Y0002643287D01*
G04 #@! TO.C,R6*
X0000625000Y0002518287D02*
X0000625000Y0002503287D01*
X0000675000Y0002518287D02*
X0000675000Y0002503287D01*
D25*
G04 #@! TO.C,U1*
X0000563385Y0002596220D02*
X0000563385Y0002525354D01*
X0000436614Y0002525354D02*
X0000436614Y0002621810D01*
G04 #@! TO.C,C1*
X0000896296Y0002367244D02*
X0000943703Y0002367244D01*
X0000896296Y0002474330D02*
X0000943703Y0002474330D01*
D24*
G04 #@! TO.C,R1*
X0000975000Y0002903287D02*
X0000975000Y0002918287D01*
X0001025000Y0002903287D02*
X0001025000Y0002918287D01*
G04 #@! TO.C,R2*
X0001082500Y0002585787D02*
X0001067500Y0002585787D01*
X0001082500Y0002535787D02*
X0001067500Y0002535787D01*
G04 #@! TO.C,R3*
X0000892500Y0002625787D02*
X0000907500Y0002625787D01*
X0000892500Y0002575787D02*
X0000907500Y0002575787D01*
G04 #@! TO.C,R4*
X0000892500Y0002495787D02*
X0000907500Y0002495787D01*
X0000892500Y0002545787D02*
X0000907500Y0002545787D01*
D25*
G04 #@! TO.C,Q1*
X0001012795Y0002690708D02*
X0001049409Y0002690708D01*
X0001137204Y0002690708D02*
X0001100590Y0002690708D01*
X0001137204Y0002690708D02*
X0001137204Y0002605669D01*
X0001012795Y0002690708D02*
X0001012795Y0002633228D01*
G04 #@! TO.C,J2*
X0000239763Y0001973425D02*
X0000239763Y0001919881D01*
X0001599606Y0002178149D02*
X0001622047Y0002178149D01*
X0001499606Y0002178149D02*
X0001539763Y0002178149D01*
X0001399606Y0002178149D02*
X0001439763Y0002178149D01*
X0001299606Y0002178149D02*
X0001339763Y0002178149D01*
X0001199606Y0002178149D02*
X0001239763Y0002178149D01*
X0001099606Y0002178149D02*
X0001139763Y0002178149D01*
X0000999606Y0002178149D02*
X0001039763Y0002178149D01*
X0000899606Y0002178149D02*
X0000939763Y0002178149D01*
X0000799606Y0002178149D02*
X0000839763Y0002178149D01*
X0000699606Y0002178149D02*
X0000739763Y0002178149D01*
X0000599606Y0002178149D02*
X0000639763Y0002178149D01*
X0000499606Y0002178149D02*
X0000539763Y0002178149D01*
X0000399606Y0002178149D02*
X0000439763Y0002178149D01*
X0000299606Y0002178149D02*
X0000339763Y0002178149D01*
X0000217322Y0002178149D02*
X0000239763Y0002178149D01*
X0001622047Y0002178149D02*
X0001622047Y0001973425D01*
X0001599606Y0001973425D02*
X0001622047Y0001973425D01*
X0001499606Y0001973425D02*
X0001539763Y0001973425D01*
X0001399606Y0001973425D02*
X0001439763Y0001973425D01*
X0001299606Y0001973425D02*
X0001339763Y0001973425D01*
X0001199606Y0001973425D02*
X0001239763Y0001973425D01*
X0001099606Y0001973425D02*
X0001139763Y0001973425D01*
X0000999606Y0001973425D02*
X0001039763Y0001973425D01*
X0000899606Y0001973425D02*
X0000939763Y0001973425D01*
X0000799606Y0001973425D02*
X0000839763Y0001973425D01*
X0000699606Y0001973425D02*
X0000739763Y0001973425D01*
X0000599606Y0001973425D02*
X0000639763Y0001973425D01*
X0000499606Y0001973425D02*
X0000539763Y0001973425D01*
X0000399606Y0001973425D02*
X0000439763Y0001973425D01*
X0000299606Y0001973425D02*
X0000339763Y0001973425D01*
X0000217322Y0001973425D02*
X0000239763Y0001973425D01*
X0000217322Y0002178149D02*
X0000217322Y0001973425D01*
G04 #@! TO.C,J1*
X0000218110Y0002029921D02*
X0000218110Y0001977559D01*
X0000218110Y0001977559D02*
X0000270472Y0001977559D01*
X0000218110Y0002079921D02*
X0000320472Y0002079921D01*
X0000320472Y0002079921D02*
X0000320472Y0001977559D01*
X0000320472Y0001977559D02*
X0001622834Y0001977559D01*
X0001622834Y0002182283D02*
X0001622834Y0001977559D01*
X0000218110Y0002182283D02*
X0001622834Y0002182283D01*
X0000218110Y0002182283D02*
X0000218110Y0002079921D01*
G04 #@! TO.C,R8*
D24*
X0001487233Y0002412833D02*
X0001483256Y0002435369D01*
X0001503141Y0002428741D02*
X0001475302Y0002456580D01*
X0001464697Y0002445974D01*
X0001463371Y0002441997D01*
X0001463371Y0002439346D01*
X0001464697Y0002435369D01*
X0001468674Y0002431392D01*
X0001472651Y0002430067D01*
X0001475302Y0002430067D01*
X0001479279Y0002431392D01*
X0001489884Y0002441997D01*
X0001455417Y0002412833D02*
X0001456743Y0002416810D01*
X0001456743Y0002419461D01*
X0001455417Y0002423438D01*
X0001454092Y0002424764D01*
X0001450115Y0002426090D01*
X0001447463Y0002426090D01*
X0001443486Y0002424764D01*
X0001438184Y0002419461D01*
X0001436858Y0002415484D01*
X0001436858Y0002412833D01*
X0001438184Y0002408856D01*
X0001439509Y0002407530D01*
X0001443486Y0002406205D01*
X0001446138Y0002406205D01*
X0001450115Y0002407530D01*
X0001455417Y0002412833D01*
X0001459394Y0002414159D01*
X0001462046Y0002414159D01*
X0001466022Y0002412833D01*
X0001471325Y0002407530D01*
X0001472651Y0002403553D01*
X0001472651Y0002400902D01*
X0001471325Y0002396925D01*
X0001466022Y0002391622D01*
X0001462046Y0002390297D01*
X0001459394Y0002390297D01*
X0001455417Y0002391622D01*
X0001450115Y0002396925D01*
X0001448789Y0002400902D01*
X0001448789Y0002403553D01*
X0001450115Y0002407530D01*
G04 #@! TO.C,C7*
X0001578648Y0002511418D02*
X0001581299Y0002511418D01*
X0001586602Y0002514070D01*
X0001589253Y0002516721D01*
X0001591904Y0002522024D01*
X0001591904Y0002527326D01*
X0001590579Y0002531303D01*
X0001586602Y0002537932D01*
X0001582625Y0002541909D01*
X0001575996Y0002545885D01*
X0001572019Y0002547211D01*
X0001566717Y0002547211D01*
X0001561414Y0002544560D01*
X0001558763Y0002541909D01*
X0001556111Y0002536606D01*
X0001556111Y0002533955D01*
X0001544180Y0002527326D02*
X0001525621Y0002508767D01*
X0001565391Y0002492859D01*
G04 #@! TO.C,C8*
X0000104697Y0002226205D02*
X0000104697Y0002223553D01*
X0000107348Y0002218251D01*
X0000109999Y0002215599D01*
X0000115302Y0002212948D01*
X0000120605Y0002212948D01*
X0000124582Y0002214274D01*
X0000131210Y0002218251D01*
X0000135187Y0002222228D01*
X0000139164Y0002228856D01*
X0000140490Y0002232833D01*
X0000140490Y0002238136D01*
X0000137838Y0002243438D01*
X0000135187Y0002246090D01*
X0000129884Y0002248741D01*
X0000127233Y0002248741D01*
X0000102046Y0002255369D02*
X0000106022Y0002254044D01*
X0000108674Y0002254044D01*
X0000112651Y0002255369D01*
X0000113976Y0002256695D01*
X0000115302Y0002260672D01*
X0000115302Y0002263323D01*
X0000113976Y0002267300D01*
X0000108674Y0002272603D01*
X0000104697Y0002273928D01*
X0000102046Y0002273928D01*
X0000098069Y0002272603D01*
X0000096743Y0002271277D01*
X0000095417Y0002267300D01*
X0000095417Y0002264649D01*
X0000096743Y0002260672D01*
X0000102046Y0002255369D01*
X0000103371Y0002251392D01*
X0000103371Y0002248741D01*
X0000102046Y0002244764D01*
X0000096743Y0002239461D01*
X0000092766Y0002238136D01*
X0000090115Y0002238136D01*
X0000086138Y0002239461D01*
X0000080835Y0002244764D01*
X0000079509Y0002248741D01*
X0000079509Y0002251392D01*
X0000080835Y0002255369D01*
X0000086138Y0002260672D01*
X0000090115Y0002261997D01*
X0000092766Y0002261997D01*
X0000096743Y0002260672D01*
G04 #@! TO.C,C9*
X0000280516Y0003364550D02*
X0000283167Y0003364550D01*
X0000288470Y0003367202D01*
X0000291121Y0003369853D01*
X0000293772Y0003375155D01*
X0000293772Y0003380458D01*
X0000292447Y0003384435D01*
X0000288470Y0003391063D01*
X0000284493Y0003395040D01*
X0000277865Y0003399017D01*
X0000273888Y0003400343D01*
X0000268585Y0003400343D01*
X0000263282Y0003397692D01*
X0000260631Y0003395040D01*
X0000257980Y0003389738D01*
X0000257980Y0003387086D01*
X0000269911Y0003348642D02*
X0000264608Y0003343340D01*
X0000260631Y0003342014D01*
X0000257980Y0003342014D01*
X0000251351Y0003343340D01*
X0000244723Y0003347317D01*
X0000234118Y0003357922D01*
X0000232792Y0003361899D01*
X0000232792Y0003364550D01*
X0000234118Y0003368527D01*
X0000239420Y0003373830D01*
X0000243397Y0003375155D01*
X0000246049Y0003375155D01*
X0000250026Y0003373830D01*
X0000256654Y0003367202D01*
X0000257980Y0003363225D01*
X0000257980Y0003360573D01*
X0000256654Y0003356596D01*
X0000251351Y0003351294D01*
X0000247374Y0003349968D01*
X0000244723Y0003349968D01*
X0000240746Y0003351294D01*
G04 #@! TO.C,C6*
X0001444473Y0003404560D02*
X0001444473Y0003401909D01*
X0001447125Y0003396606D01*
X0001449776Y0003393955D01*
X0001455079Y0003391303D01*
X0001460381Y0003391303D01*
X0001464358Y0003392629D01*
X0001470987Y0003396606D01*
X0001474964Y0003400583D01*
X0001478941Y0003407211D01*
X0001480266Y0003411188D01*
X0001480266Y0003416491D01*
X0001477615Y0003421793D01*
X0001474964Y0003424445D01*
X0001469661Y0003427096D01*
X0001467010Y0003427096D01*
X0001445799Y0003453609D02*
X0001451102Y0003448307D01*
X0001452427Y0003444330D01*
X0001452427Y0003441678D01*
X0001451102Y0003435050D01*
X0001447125Y0003428422D01*
X0001436519Y0003417817D01*
X0001432542Y0003416491D01*
X0001429891Y0003416491D01*
X0001425914Y0003417817D01*
X0001420612Y0003423119D01*
X0001419286Y0003427096D01*
X0001419286Y0003429747D01*
X0001420612Y0003433724D01*
X0001427240Y0003440353D01*
X0001431217Y0003441678D01*
X0001433868Y0003441678D01*
X0001437845Y0003440353D01*
X0001443148Y0003435050D01*
X0001444473Y0003431073D01*
X0001444473Y0003428422D01*
X0001443148Y0003424445D01*
G04 #@! TO.C,C2*
X0000651561Y0002386726D02*
X0000653436Y0002384851D01*
X0000659060Y0002382977D01*
X0000662810Y0002382977D01*
X0000668434Y0002384851D01*
X0000672184Y0002388601D01*
X0000674058Y0002392350D01*
X0000675933Y0002399850D01*
X0000675933Y0002405474D01*
X0000674058Y0002412973D01*
X0000672184Y0002416722D01*
X0000668434Y0002420472D01*
X0000662810Y0002422347D01*
X0000659060Y0002422347D01*
X0000653436Y0002420472D01*
X0000651561Y0002418597D01*
X0000636563Y0002418597D02*
X0000634688Y0002420472D01*
X0000630939Y0002422347D01*
X0000621565Y0002422347D01*
X0000617815Y0002420472D01*
X0000615941Y0002418597D01*
X0000614066Y0002414848D01*
X0000614066Y0002411098D01*
X0000615941Y0002405474D01*
X0000638438Y0002382977D01*
X0000614066Y0002382977D01*
G04 #@! TO.C,C3*
X0000646561Y0002731726D02*
X0000648436Y0002729851D01*
X0000654060Y0002727977D01*
X0000657810Y0002727977D01*
X0000663434Y0002729851D01*
X0000667184Y0002733601D01*
X0000669058Y0002737350D01*
X0000670933Y0002744850D01*
X0000670933Y0002750474D01*
X0000669058Y0002757973D01*
X0000667184Y0002761722D01*
X0000663434Y0002765472D01*
X0000657810Y0002767347D01*
X0000654060Y0002767347D01*
X0000648436Y0002765472D01*
X0000646561Y0002763597D01*
X0000633438Y0002767347D02*
X0000609066Y0002767347D01*
X0000622189Y0002752349D01*
X0000616565Y0002752349D01*
X0000612815Y0002750474D01*
X0000610941Y0002748599D01*
X0000609066Y0002744850D01*
X0000609066Y0002735476D01*
X0000610941Y0002731726D01*
X0000612815Y0002729851D01*
X0000616565Y0002727977D01*
X0000627814Y0002727977D01*
X0000631563Y0002729851D01*
X0000633438Y0002731726D01*
G04 #@! TO.C,D8*
X0000449058Y0002961402D02*
X0000449058Y0003000772D01*
X0000439685Y0003000772D01*
X0000434060Y0002998897D01*
X0000430311Y0002995148D01*
X0000428436Y0002991398D01*
X0000426561Y0002983899D01*
X0000426561Y0002978275D01*
X0000428436Y0002970776D01*
X0000430311Y0002967026D01*
X0000434060Y0002963277D01*
X0000439685Y0002961402D01*
X0000449058Y0002961402D01*
X0000404064Y0002983899D02*
X0000407814Y0002985774D01*
X0000409688Y0002987649D01*
X0000411563Y0002991398D01*
X0000411563Y0002993273D01*
X0000409688Y0002997022D01*
X0000407814Y0002998897D01*
X0000404064Y0003000772D01*
X0000396565Y0003000772D01*
X0000392815Y0002998897D01*
X0000390941Y0002997022D01*
X0000389066Y0002993273D01*
X0000389066Y0002991398D01*
X0000390941Y0002987649D01*
X0000392815Y0002985774D01*
X0000396565Y0002983899D01*
X0000404064Y0002983899D01*
X0000407814Y0002982024D01*
X0000409688Y0002980150D01*
X0000411563Y0002976400D01*
X0000411563Y0002968901D01*
X0000409688Y0002965151D01*
X0000407814Y0002963277D01*
X0000404064Y0002961402D01*
X0000396565Y0002961402D01*
X0000392815Y0002963277D01*
X0000390941Y0002965151D01*
X0000389066Y0002968901D01*
X0000389066Y0002976400D01*
X0000390941Y0002980150D01*
X0000392815Y0002982024D01*
X0000396565Y0002983899D01*
G04 #@! TO.C,L1*
X0000147731Y0002631443D02*
X0000147731Y0002650191D01*
X0000108361Y0002650191D01*
X0000147731Y0002597697D02*
X0000147731Y0002620195D01*
X0000147731Y0002608946D02*
X0000108361Y0002608946D01*
X0000113985Y0002612695D01*
X0000117735Y0002616445D01*
X0000119610Y0002620195D01*
G04 #@! TO.C,R7*
X0001136561Y0003347937D02*
X0001149685Y0003366685D01*
X0001159058Y0003347937D02*
X0001159058Y0003387307D01*
X0001144060Y0003387307D01*
X0001140311Y0003385433D01*
X0001138436Y0003383558D01*
X0001136561Y0003379808D01*
X0001136561Y0003374184D01*
X0001138436Y0003370434D01*
X0001140311Y0003368560D01*
X0001144060Y0003366685D01*
X0001159058Y0003366685D01*
X0001123438Y0003387307D02*
X0001097191Y0003387307D01*
X0001114064Y0003347937D01*
G04 #@! TO.C,R5*
X0000727810Y0002652349D02*
X0000709062Y0002665472D01*
X0000727810Y0002674846D02*
X0000688440Y0002674846D01*
X0000688440Y0002659848D01*
X0000690314Y0002656098D01*
X0000692189Y0002654223D01*
X0000695939Y0002652349D01*
X0000701563Y0002652349D01*
X0000705313Y0002654223D01*
X0000707187Y0002656098D01*
X0000709062Y0002659848D01*
X0000709062Y0002674846D01*
X0000688440Y0002616728D02*
X0000688440Y0002635476D01*
X0000707187Y0002637350D01*
X0000705313Y0002635476D01*
X0000703438Y0002631726D01*
X0000703438Y0002622352D01*
X0000705313Y0002618603D01*
X0000707187Y0002616728D01*
X0000710937Y0002614853D01*
X0000720311Y0002614853D01*
X0000724060Y0002616728D01*
X0000725935Y0002618603D01*
X0000727810Y0002622352D01*
X0000727810Y0002631726D01*
X0000725935Y0002635476D01*
X0000724060Y0002637350D01*
G04 #@! TO.C,R6*
X0000727810Y0002517349D02*
X0000709062Y0002530472D01*
X0000727810Y0002539846D02*
X0000688440Y0002539846D01*
X0000688440Y0002524848D01*
X0000690314Y0002521098D01*
X0000692189Y0002519223D01*
X0000695939Y0002517349D01*
X0000701563Y0002517349D01*
X0000705313Y0002519223D01*
X0000707187Y0002521098D01*
X0000709062Y0002524848D01*
X0000709062Y0002539846D01*
X0000688440Y0002483603D02*
X0000688440Y0002491102D01*
X0000690314Y0002494851D01*
X0000692189Y0002496726D01*
X0000697814Y0002500476D01*
X0000705313Y0002502350D01*
X0000720311Y0002502350D01*
X0000724060Y0002500476D01*
X0000725935Y0002498601D01*
X0000727810Y0002494851D01*
X0000727810Y0002487352D01*
X0000725935Y0002483603D01*
X0000724060Y0002481728D01*
X0000720311Y0002479853D01*
X0000710937Y0002479853D01*
X0000707187Y0002481728D01*
X0000705313Y0002483603D01*
X0000703438Y0002487352D01*
X0000703438Y0002494851D01*
X0000705313Y0002498601D01*
X0000707187Y0002500476D01*
X0000710937Y0002502350D01*
G04 #@! TO.C,U1*
X0000614996Y0002662347D02*
X0000614996Y0002630476D01*
X0000613121Y0002626726D01*
X0000611246Y0002624851D01*
X0000607497Y0002622977D01*
X0000599998Y0002622977D01*
X0000596248Y0002624851D01*
X0000594373Y0002626726D01*
X0000592499Y0002630476D01*
X0000592499Y0002662347D01*
X0000553128Y0002622977D02*
X0000575626Y0002622977D01*
X0000564377Y0002622977D02*
X0000564377Y0002662347D01*
X0000568127Y0002656722D01*
X0000571876Y0002652973D01*
X0000575626Y0002651098D01*
G04 #@! TO.C,C1*
X0000806561Y0002406726D02*
X0000808436Y0002404851D01*
X0000814060Y0002402977D01*
X0000817810Y0002402977D01*
X0000823434Y0002404851D01*
X0000827184Y0002408601D01*
X0000829058Y0002412350D01*
X0000830933Y0002419850D01*
X0000830933Y0002425474D01*
X0000829058Y0002432973D01*
X0000827184Y0002436722D01*
X0000823434Y0002440472D01*
X0000817810Y0002442347D01*
X0000814060Y0002442347D01*
X0000808436Y0002440472D01*
X0000806561Y0002438597D01*
X0000769066Y0002402977D02*
X0000791563Y0002402977D01*
X0000780314Y0002402977D02*
X0000780314Y0002442347D01*
X0000784064Y0002436722D01*
X0000787814Y0002432973D01*
X0000791563Y0002431098D01*
G04 #@! TO.C,R1*
X0001082770Y0002917349D02*
X0001064023Y0002930472D01*
X0001082770Y0002939846D02*
X0001043400Y0002939846D01*
X0001043400Y0002924848D01*
X0001045275Y0002921098D01*
X0001047150Y0002919223D01*
X0001050899Y0002917349D01*
X0001056524Y0002917349D01*
X0001060273Y0002919223D01*
X0001062148Y0002921098D01*
X0001064023Y0002924848D01*
X0001064023Y0002939846D01*
X0001082770Y0002879853D02*
X0001082770Y0002902350D01*
X0001082770Y0002891102D02*
X0001043400Y0002891102D01*
X0001049025Y0002894851D01*
X0001052774Y0002898601D01*
X0001054649Y0002902350D01*
G04 #@! TO.C,R2*
X0001181561Y0002542977D02*
X0001194685Y0002561724D01*
X0001204058Y0002542977D02*
X0001204058Y0002582347D01*
X0001189060Y0002582347D01*
X0001185311Y0002580472D01*
X0001183436Y0002578597D01*
X0001181561Y0002574848D01*
X0001181561Y0002569223D01*
X0001183436Y0002565474D01*
X0001185311Y0002563599D01*
X0001189060Y0002561724D01*
X0001204058Y0002561724D01*
X0001166563Y0002578597D02*
X0001164688Y0002580472D01*
X0001160939Y0002582347D01*
X0001151565Y0002582347D01*
X0001147815Y0002580472D01*
X0001145941Y0002578597D01*
X0001144066Y0002574848D01*
X0001144066Y0002571098D01*
X0001145941Y0002565474D01*
X0001168438Y0002542977D01*
X0001144066Y0002542977D01*
G04 #@! TO.C,R3*
X0000806561Y0002582977D02*
X0000819685Y0002601724D01*
X0000829058Y0002582977D02*
X0000829058Y0002622347D01*
X0000814060Y0002622347D01*
X0000810311Y0002620472D01*
X0000808436Y0002618597D01*
X0000806561Y0002614848D01*
X0000806561Y0002609223D01*
X0000808436Y0002605474D01*
X0000810311Y0002603599D01*
X0000814060Y0002601724D01*
X0000829058Y0002601724D01*
X0000793438Y0002622347D02*
X0000769066Y0002622347D01*
X0000782189Y0002607349D01*
X0000776565Y0002607349D01*
X0000772815Y0002605474D01*
X0000770941Y0002603599D01*
X0000769066Y0002599850D01*
X0000769066Y0002590476D01*
X0000770941Y0002586726D01*
X0000772815Y0002584851D01*
X0000776565Y0002582977D01*
X0000787814Y0002582977D01*
X0000791563Y0002584851D01*
X0000793438Y0002586726D01*
G04 #@! TO.C,R4*
X0000806561Y0002502977D02*
X0000819685Y0002521724D01*
X0000829058Y0002502977D02*
X0000829058Y0002542347D01*
X0000814060Y0002542347D01*
X0000810311Y0002540472D01*
X0000808436Y0002538597D01*
X0000806561Y0002534848D01*
X0000806561Y0002529223D01*
X0000808436Y0002525474D01*
X0000810311Y0002523599D01*
X0000814060Y0002521724D01*
X0000829058Y0002521724D01*
X0000772815Y0002529223D02*
X0000772815Y0002502977D01*
X0000782189Y0002544222D02*
X0000791563Y0002516100D01*
X0000767191Y0002516100D01*
G04 #@! TO.C,Q1*
X0001194985Y0002664536D02*
X0001193110Y0002668286D01*
X0001189360Y0002672036D01*
X0001183736Y0002677660D01*
X0001181861Y0002681409D01*
X0001181861Y0002685159D01*
X0001191235Y0002683284D02*
X0001189360Y0002687034D01*
X0001185611Y0002690783D01*
X0001178112Y0002692658D01*
X0001164988Y0002692658D01*
X0001157489Y0002690783D01*
X0001153740Y0002687034D01*
X0001151865Y0002683284D01*
X0001151865Y0002675785D01*
X0001153740Y0002672036D01*
X0001157489Y0002668286D01*
X0001164988Y0002666411D01*
X0001178112Y0002666411D01*
X0001185611Y0002668286D01*
X0001189360Y0002672036D01*
X0001191235Y0002675785D01*
X0001191235Y0002683284D01*
X0001191235Y0002628916D02*
X0001191235Y0002651413D01*
X0001191235Y0002640165D02*
X0001151865Y0002640165D01*
X0001157489Y0002643914D01*
X0001161239Y0002647664D01*
X0001163113Y0002651413D01*
G04 #@! TO.C,J1*
X0000139857Y0002093044D02*
X0000167978Y0002093044D01*
X0000173603Y0002094919D01*
X0000177352Y0002098668D01*
X0000179227Y0002104293D01*
X0000179227Y0002108042D01*
X0000179227Y0002053674D02*
X0000179227Y0002076171D01*
X0000179227Y0002064923D02*
X0000139857Y0002064923D01*
X0000145481Y0002068672D01*
X0000149231Y0002072422D01*
X0000151106Y0002076171D01*
G04 #@! TD*
G04 next file*
G04 #@! TF.GenerationSoftware,KiCad,Pcbnew,(5.0.2)-1*
G04 #@! TF.CreationDate,2019-01-31T16:36:43+01:00*
G04 #@! TF.ProjectId,SHMod24_RF_IR_Bridge,53484d6f-6432-4345-9f52-465f49525f42,rev?*
G04 #@! TF.SameCoordinates,Original*
G04 #@! TF.FileFunction,Legend,Bot*
G04 #@! TF.FilePolarity,Positive*
G04 Gerber Fmt 4.6, Leading zero omitted, Abs format (unit mm)*
G04 Created by KiCad (PCBNEW (5.0.2)-1) date 31/01/2019 16:36:43*
G01*
G04 APERTURE LIST*
G04 APERTURE END LIST*
D26*
G04 #@! TO.C,R8*
X0003417138Y0002352806D02*
X0003427744Y0002363413D01*
X0003381782Y0002388161D02*
X0003392389Y0002398768D01*
G04 #@! TO.C,C7*
X0003522744Y0002458413D02*
X0003512138Y0002447806D01*
X0003487389Y0002493768D02*
X0003476782Y0002483161D01*
G04 #@! TO.C,C8*
X0002067744Y0002298161D02*
X0002057138Y0002308768D01*
X0002032389Y0002262806D02*
X0002021782Y0002273413D01*
G04 #@! TO.C,C9*
X0002086782Y0003428161D02*
X0002097389Y0003438768D01*
X0002122138Y0003392806D02*
X0002132744Y0003403413D01*
G04 #@! TO.C,C6*
X0003362493Y0003452702D02*
X0003373100Y0003442095D01*
X0003397848Y0003488057D02*
X0003408455Y0003477451D01*
D27*
G04 #@! TO.C,C2*
X0002386060Y0002454330D02*
X0002433467Y0002454330D01*
X0002386060Y0002347244D02*
X0002433467Y0002347244D01*
G04 #@! TO.C,C3*
X0002433467Y0002774330D02*
X0002386060Y0002774330D01*
X0002433467Y0002667244D02*
X0002386060Y0002667244D01*
G04 #@! TO.C,D8*
X0002443622Y0002945748D02*
X0002443622Y0002815826D01*
X0002443622Y0002815826D02*
X0002231023Y0002815826D01*
X0002443622Y0002945748D02*
X0002231023Y0002945748D01*
D26*
G04 #@! TO.C,L1*
X0002316653Y0002766614D02*
X0002257598Y0002766614D01*
X0002316653Y0002483149D02*
X0002257598Y0002483149D01*
X0002052874Y0002483149D02*
X0002111929Y0002483149D01*
X0002052874Y0002766614D02*
X0002111929Y0002766614D01*
X0002316653Y0002483149D02*
X0002316653Y0002766614D01*
X0002052874Y0002483149D02*
X0002052874Y0002766614D01*
G04 #@! TO.C,R7*
X0003027263Y0003325787D02*
X0003012263Y0003325787D01*
X0003027263Y0003275787D02*
X0003012263Y0003275787D01*
G04 #@! TO.C,R5*
X0002564763Y0002658287D02*
X0002564763Y0002643287D01*
X0002514763Y0002658287D02*
X0002514763Y0002643287D01*
G04 #@! TO.C,R6*
X0002514763Y0002518287D02*
X0002514763Y0002503287D01*
X0002564763Y0002518287D02*
X0002564763Y0002503287D01*
D27*
G04 #@! TO.C,U1*
X0002453149Y0002596220D02*
X0002453149Y0002525354D01*
X0002326377Y0002525354D02*
X0002326377Y0002621810D01*
G04 #@! TO.C,C1*
X0002786060Y0002367244D02*
X0002833467Y0002367244D01*
X0002786060Y0002474330D02*
X0002833467Y0002474330D01*
D26*
G04 #@! TO.C,R1*
X0002864763Y0002903287D02*
X0002864763Y0002918287D01*
X0002914763Y0002903287D02*
X0002914763Y0002918287D01*
G04 #@! TO.C,R2*
X0002972263Y0002585787D02*
X0002957263Y0002585787D01*
X0002972263Y0002535787D02*
X0002957263Y0002535787D01*
G04 #@! TO.C,R3*
X0002782263Y0002625787D02*
X0002797263Y0002625787D01*
X0002782263Y0002575787D02*
X0002797263Y0002575787D01*
G04 #@! TO.C,R4*
X0002782263Y0002495787D02*
X0002797263Y0002495787D01*
X0002782263Y0002545787D02*
X0002797263Y0002545787D01*
D27*
G04 #@! TO.C,Q1*
X0002902559Y0002690708D02*
X0002939173Y0002690708D01*
X0003026968Y0002690708D02*
X0002990354Y0002690708D01*
X0003026968Y0002690708D02*
X0003026968Y0002605669D01*
X0002902559Y0002690708D02*
X0002902559Y0002633228D01*
G04 #@! TO.C,J2*
X0002129527Y0001973425D02*
X0002129527Y0001919881D01*
X0003489370Y0002178149D02*
X0003511811Y0002178149D01*
X0003389370Y0002178149D02*
X0003429527Y0002178149D01*
X0003289370Y0002178149D02*
X0003329527Y0002178149D01*
X0003189370Y0002178149D02*
X0003229527Y0002178149D01*
X0003089370Y0002178149D02*
X0003129527Y0002178149D01*
X0002989370Y0002178149D02*
X0003029527Y0002178149D01*
X0002889370Y0002178149D02*
X0002929527Y0002178149D01*
X0002789370Y0002178149D02*
X0002829527Y0002178149D01*
X0002689370Y0002178149D02*
X0002729527Y0002178149D01*
X0002589370Y0002178149D02*
X0002629527Y0002178149D01*
X0002489370Y0002178149D02*
X0002529527Y0002178149D01*
X0002389370Y0002178149D02*
X0002429527Y0002178149D01*
X0002289370Y0002178149D02*
X0002329527Y0002178149D01*
X0002189370Y0002178149D02*
X0002229527Y0002178149D01*
X0002107086Y0002178149D02*
X0002129527Y0002178149D01*
X0003511811Y0002178149D02*
X0003511811Y0001973425D01*
X0003489370Y0001973425D02*
X0003511811Y0001973425D01*
X0003389370Y0001973425D02*
X0003429527Y0001973425D01*
X0003289370Y0001973425D02*
X0003329527Y0001973425D01*
X0003189370Y0001973425D02*
X0003229527Y0001973425D01*
X0003089370Y0001973425D02*
X0003129527Y0001973425D01*
X0002989370Y0001973425D02*
X0003029527Y0001973425D01*
X0002889370Y0001973425D02*
X0002929527Y0001973425D01*
X0002789370Y0001973425D02*
X0002829527Y0001973425D01*
X0002689370Y0001973425D02*
X0002729527Y0001973425D01*
X0002589370Y0001973425D02*
X0002629527Y0001973425D01*
X0002489370Y0001973425D02*
X0002529527Y0001973425D01*
X0002389370Y0001973425D02*
X0002429527Y0001973425D01*
X0002289370Y0001973425D02*
X0002329527Y0001973425D01*
X0002189370Y0001973425D02*
X0002229527Y0001973425D01*
X0002107086Y0001973425D02*
X0002129527Y0001973425D01*
X0002107086Y0002178149D02*
X0002107086Y0001973425D01*
G04 #@! TO.C,J1*
X0002107874Y0002029921D02*
X0002107874Y0001977559D01*
X0002107874Y0001977559D02*
X0002160236Y0001977559D01*
X0002107874Y0002079921D02*
X0002210236Y0002079921D01*
X0002210236Y0002079921D02*
X0002210236Y0001977559D01*
X0002210236Y0001977559D02*
X0003512598Y0001977559D01*
X0003512598Y0002182283D02*
X0003512598Y0001977559D01*
X0002107874Y0002182283D02*
X0003512598Y0002182283D01*
X0002107874Y0002182283D02*
X0002107874Y0002079921D01*
G04 #@! TO.C,R8*
D26*
X0003376997Y0002412833D02*
X0003373020Y0002435369D01*
X0003392905Y0002428741D02*
X0003365066Y0002456580D01*
X0003354461Y0002445974D01*
X0003353135Y0002441997D01*
X0003353135Y0002439346D01*
X0003354461Y0002435369D01*
X0003358438Y0002431392D01*
X0003362415Y0002430067D01*
X0003365066Y0002430067D01*
X0003369043Y0002431392D01*
X0003379648Y0002441997D01*
X0003345181Y0002412833D02*
X0003346507Y0002416810D01*
X0003346507Y0002419461D01*
X0003345181Y0002423438D01*
X0003343855Y0002424764D01*
X0003339878Y0002426090D01*
X0003337227Y0002426090D01*
X0003333250Y0002424764D01*
X0003327947Y0002419461D01*
X0003326622Y0002415484D01*
X0003326622Y0002412833D01*
X0003327947Y0002408856D01*
X0003329273Y0002407530D01*
X0003333250Y0002406205D01*
X0003335901Y0002406205D01*
X0003339878Y0002407530D01*
X0003345181Y0002412833D01*
X0003349158Y0002414159D01*
X0003351809Y0002414159D01*
X0003355786Y0002412833D01*
X0003361089Y0002407530D01*
X0003362415Y0002403553D01*
X0003362415Y0002400902D01*
X0003361089Y0002396925D01*
X0003355786Y0002391622D01*
X0003351809Y0002390297D01*
X0003349158Y0002390297D01*
X0003345181Y0002391622D01*
X0003339878Y0002396925D01*
X0003338553Y0002400902D01*
X0003338553Y0002403553D01*
X0003339878Y0002407530D01*
G04 #@! TO.C,C7*
X0003468411Y0002511418D02*
X0003471063Y0002511418D01*
X0003476365Y0002514070D01*
X0003479017Y0002516721D01*
X0003481668Y0002522024D01*
X0003481668Y0002527326D01*
X0003480342Y0002531303D01*
X0003476365Y0002537932D01*
X0003472388Y0002541909D01*
X0003465760Y0002545885D01*
X0003461783Y0002547211D01*
X0003456480Y0002547211D01*
X0003451178Y0002544560D01*
X0003448527Y0002541909D01*
X0003445875Y0002536606D01*
X0003445875Y0002533955D01*
X0003433944Y0002527326D02*
X0003415385Y0002508767D01*
X0003455155Y0002492859D01*
G04 #@! TO.C,C8*
X0001994461Y0002226205D02*
X0001994461Y0002223553D01*
X0001997112Y0002218251D01*
X0001999763Y0002215599D01*
X0002005066Y0002212948D01*
X0002010369Y0002212948D01*
X0002014346Y0002214274D01*
X0002020974Y0002218251D01*
X0002024951Y0002222228D01*
X0002028928Y0002228856D01*
X0002030253Y0002232833D01*
X0002030253Y0002238136D01*
X0002027602Y0002243438D01*
X0002024951Y0002246090D01*
X0002019648Y0002248741D01*
X0002016997Y0002248741D01*
X0001991809Y0002255369D02*
X0001995786Y0002254044D01*
X0001998438Y0002254044D01*
X0002002415Y0002255369D01*
X0002003740Y0002256695D01*
X0002005066Y0002260672D01*
X0002005066Y0002263323D01*
X0002003740Y0002267300D01*
X0001998438Y0002272603D01*
X0001994461Y0002273928D01*
X0001991809Y0002273928D01*
X0001987832Y0002272603D01*
X0001986507Y0002271277D01*
X0001985181Y0002267300D01*
X0001985181Y0002264649D01*
X0001986507Y0002260672D01*
X0001991809Y0002255369D01*
X0001993135Y0002251392D01*
X0001993135Y0002248741D01*
X0001991809Y0002244764D01*
X0001986507Y0002239461D01*
X0001982530Y0002238136D01*
X0001979878Y0002238136D01*
X0001975901Y0002239461D01*
X0001970599Y0002244764D01*
X0001969273Y0002248741D01*
X0001969273Y0002251392D01*
X0001970599Y0002255369D01*
X0001975901Y0002260672D01*
X0001979878Y0002261997D01*
X0001982530Y0002261997D01*
X0001986507Y0002260672D01*
G04 #@! TO.C,C9*
X0002170280Y0003364550D02*
X0002172931Y0003364550D01*
X0002178234Y0003367202D01*
X0002180885Y0003369853D01*
X0002183536Y0003375155D01*
X0002183536Y0003380458D01*
X0002182211Y0003384435D01*
X0002178234Y0003391063D01*
X0002174257Y0003395040D01*
X0002167628Y0003399017D01*
X0002163651Y0003400343D01*
X0002158349Y0003400343D01*
X0002153046Y0003397692D01*
X0002150395Y0003395040D01*
X0002147743Y0003389738D01*
X0002147743Y0003387086D01*
X0002159674Y0003348642D02*
X0002154372Y0003343340D01*
X0002150395Y0003342014D01*
X0002147743Y0003342014D01*
X0002141115Y0003343340D01*
X0002134487Y0003347317D01*
X0002123881Y0003357922D01*
X0002122556Y0003361899D01*
X0002122556Y0003364550D01*
X0002123881Y0003368527D01*
X0002129184Y0003373830D01*
X0002133161Y0003375155D01*
X0002135812Y0003375155D01*
X0002139789Y0003373830D01*
X0002146418Y0003367202D01*
X0002147743Y0003363225D01*
X0002147743Y0003360573D01*
X0002146418Y0003356596D01*
X0002141115Y0003351294D01*
X0002137138Y0003349968D01*
X0002134487Y0003349968D01*
X0002130510Y0003351294D01*
G04 #@! TO.C,C6*
X0003334237Y0003404560D02*
X0003334237Y0003401909D01*
X0003336889Y0003396606D01*
X0003339540Y0003393955D01*
X0003344842Y0003391303D01*
X0003350145Y0003391303D01*
X0003354122Y0003392629D01*
X0003360750Y0003396606D01*
X0003364727Y0003400583D01*
X0003368704Y0003407211D01*
X0003370030Y0003411188D01*
X0003370030Y0003416491D01*
X0003367379Y0003421793D01*
X0003364727Y0003424445D01*
X0003359425Y0003427096D01*
X0003356773Y0003427096D01*
X0003335563Y0003453609D02*
X0003340865Y0003448307D01*
X0003342191Y0003444330D01*
X0003342191Y0003441678D01*
X0003340865Y0003435050D01*
X0003336889Y0003428422D01*
X0003326283Y0003417817D01*
X0003322306Y0003416491D01*
X0003319655Y0003416491D01*
X0003315678Y0003417817D01*
X0003310375Y0003423119D01*
X0003309050Y0003427096D01*
X0003309050Y0003429747D01*
X0003310375Y0003433724D01*
X0003317004Y0003440353D01*
X0003320981Y0003441678D01*
X0003323632Y0003441678D01*
X0003327609Y0003440353D01*
X0003332912Y0003435050D01*
X0003334237Y0003431073D01*
X0003334237Y0003428422D01*
X0003332912Y0003424445D01*
G04 #@! TO.C,C2*
X0002541325Y0002386726D02*
X0002543200Y0002384851D01*
X0002548824Y0002382977D01*
X0002552574Y0002382977D01*
X0002558198Y0002384851D01*
X0002561947Y0002388601D01*
X0002563822Y0002392350D01*
X0002565697Y0002399850D01*
X0002565697Y0002405474D01*
X0002563822Y0002412973D01*
X0002561947Y0002416722D01*
X0002558198Y0002420472D01*
X0002552574Y0002422347D01*
X0002548824Y0002422347D01*
X0002543200Y0002420472D01*
X0002541325Y0002418597D01*
X0002526327Y0002418597D02*
X0002524452Y0002420472D01*
X0002520703Y0002422347D01*
X0002511329Y0002422347D01*
X0002507579Y0002420472D01*
X0002505704Y0002418597D01*
X0002503830Y0002414848D01*
X0002503830Y0002411098D01*
X0002505704Y0002405474D01*
X0002528202Y0002382977D01*
X0002503830Y0002382977D01*
G04 #@! TO.C,C3*
X0002536325Y0002731726D02*
X0002538200Y0002729851D01*
X0002543824Y0002727977D01*
X0002547574Y0002727977D01*
X0002553198Y0002729851D01*
X0002556947Y0002733601D01*
X0002558822Y0002737350D01*
X0002560697Y0002744850D01*
X0002560697Y0002750474D01*
X0002558822Y0002757973D01*
X0002556947Y0002761722D01*
X0002553198Y0002765472D01*
X0002547574Y0002767347D01*
X0002543824Y0002767347D01*
X0002538200Y0002765472D01*
X0002536325Y0002763597D01*
X0002523202Y0002767347D02*
X0002498830Y0002767347D01*
X0002511953Y0002752349D01*
X0002506329Y0002752349D01*
X0002502579Y0002750474D01*
X0002500704Y0002748599D01*
X0002498830Y0002744850D01*
X0002498830Y0002735476D01*
X0002500704Y0002731726D01*
X0002502579Y0002729851D01*
X0002506329Y0002727977D01*
X0002517577Y0002727977D01*
X0002521327Y0002729851D01*
X0002523202Y0002731726D01*
G04 #@! TO.C,D8*
X0002338822Y0002961402D02*
X0002338822Y0003000772D01*
X0002329448Y0003000772D01*
X0002323824Y0002998897D01*
X0002320074Y0002995148D01*
X0002318200Y0002991398D01*
X0002316325Y0002983899D01*
X0002316325Y0002978275D01*
X0002318200Y0002970776D01*
X0002320074Y0002967026D01*
X0002323824Y0002963277D01*
X0002329448Y0002961402D01*
X0002338822Y0002961402D01*
X0002293828Y0002983899D02*
X0002297577Y0002985774D01*
X0002299452Y0002987649D01*
X0002301327Y0002991398D01*
X0002301327Y0002993273D01*
X0002299452Y0002997022D01*
X0002297577Y0002998897D01*
X0002293828Y0003000772D01*
X0002286329Y0003000772D01*
X0002282579Y0002998897D01*
X0002280704Y0002997022D01*
X0002278830Y0002993273D01*
X0002278830Y0002991398D01*
X0002280704Y0002987649D01*
X0002282579Y0002985774D01*
X0002286329Y0002983899D01*
X0002293828Y0002983899D01*
X0002297577Y0002982024D01*
X0002299452Y0002980150D01*
X0002301327Y0002976400D01*
X0002301327Y0002968901D01*
X0002299452Y0002965151D01*
X0002297577Y0002963277D01*
X0002293828Y0002961402D01*
X0002286329Y0002961402D01*
X0002282579Y0002963277D01*
X0002280704Y0002965151D01*
X0002278830Y0002968901D01*
X0002278830Y0002976400D01*
X0002280704Y0002980150D01*
X0002282579Y0002982024D01*
X0002286329Y0002983899D01*
G04 #@! TO.C,L1*
X0002037495Y0002631443D02*
X0002037495Y0002650191D01*
X0001998125Y0002650191D01*
X0002037495Y0002597697D02*
X0002037495Y0002620195D01*
X0002037495Y0002608946D02*
X0001998125Y0002608946D01*
X0002003749Y0002612695D01*
X0002007499Y0002616445D01*
X0002009373Y0002620195D01*
G04 #@! TO.C,R7*
X0003026325Y0003347937D02*
X0003039448Y0003366685D01*
X0003048822Y0003347937D02*
X0003048822Y0003387307D01*
X0003033824Y0003387307D01*
X0003030074Y0003385433D01*
X0003028200Y0003383558D01*
X0003026325Y0003379808D01*
X0003026325Y0003374184D01*
X0003028200Y0003370434D01*
X0003030074Y0003368560D01*
X0003033824Y0003366685D01*
X0003048822Y0003366685D01*
X0003013202Y0003387307D02*
X0002986955Y0003387307D01*
X0003003828Y0003347937D01*
G04 #@! TO.C,R5*
X0002617574Y0002652349D02*
X0002598826Y0002665472D01*
X0002617574Y0002674846D02*
X0002578203Y0002674846D01*
X0002578203Y0002659848D01*
X0002580078Y0002656098D01*
X0002581953Y0002654223D01*
X0002585703Y0002652349D01*
X0002591327Y0002652349D01*
X0002595076Y0002654223D01*
X0002596951Y0002656098D01*
X0002598826Y0002659848D01*
X0002598826Y0002674846D01*
X0002578203Y0002616728D02*
X0002578203Y0002635476D01*
X0002596951Y0002637350D01*
X0002595076Y0002635476D01*
X0002593202Y0002631726D01*
X0002593202Y0002622352D01*
X0002595076Y0002618603D01*
X0002596951Y0002616728D01*
X0002600701Y0002614853D01*
X0002610074Y0002614853D01*
X0002613824Y0002616728D01*
X0002615699Y0002618603D01*
X0002617574Y0002622352D01*
X0002617574Y0002631726D01*
X0002615699Y0002635476D01*
X0002613824Y0002637350D01*
G04 #@! TO.C,R6*
X0002617574Y0002517349D02*
X0002598826Y0002530472D01*
X0002617574Y0002539846D02*
X0002578203Y0002539846D01*
X0002578203Y0002524848D01*
X0002580078Y0002521098D01*
X0002581953Y0002519223D01*
X0002585703Y0002517349D01*
X0002591327Y0002517349D01*
X0002595076Y0002519223D01*
X0002596951Y0002521098D01*
X0002598826Y0002524848D01*
X0002598826Y0002539846D01*
X0002578203Y0002483603D02*
X0002578203Y0002491102D01*
X0002580078Y0002494851D01*
X0002581953Y0002496726D01*
X0002587577Y0002500476D01*
X0002595076Y0002502350D01*
X0002610074Y0002502350D01*
X0002613824Y0002500476D01*
X0002615699Y0002498601D01*
X0002617574Y0002494851D01*
X0002617574Y0002487352D01*
X0002615699Y0002483603D01*
X0002613824Y0002481728D01*
X0002610074Y0002479853D01*
X0002600701Y0002479853D01*
X0002596951Y0002481728D01*
X0002595076Y0002483603D01*
X0002593202Y0002487352D01*
X0002593202Y0002494851D01*
X0002595076Y0002498601D01*
X0002596951Y0002500476D01*
X0002600701Y0002502350D01*
G04 #@! TO.C,U1*
X0002504759Y0002662347D02*
X0002504759Y0002630476D01*
X0002502885Y0002626726D01*
X0002501010Y0002624851D01*
X0002497260Y0002622977D01*
X0002489761Y0002622977D01*
X0002486012Y0002624851D01*
X0002484137Y0002626726D01*
X0002482262Y0002630476D01*
X0002482262Y0002662347D01*
X0002442892Y0002622977D02*
X0002465389Y0002622977D01*
X0002454141Y0002622977D02*
X0002454141Y0002662347D01*
X0002457890Y0002656722D01*
X0002461640Y0002652973D01*
X0002465389Y0002651098D01*
G04 #@! TO.C,C1*
X0002696325Y0002406726D02*
X0002698200Y0002404851D01*
X0002703824Y0002402977D01*
X0002707574Y0002402977D01*
X0002713198Y0002404851D01*
X0002716947Y0002408601D01*
X0002718822Y0002412350D01*
X0002720697Y0002419850D01*
X0002720697Y0002425474D01*
X0002718822Y0002432973D01*
X0002716947Y0002436722D01*
X0002713198Y0002440472D01*
X0002707574Y0002442347D01*
X0002703824Y0002442347D01*
X0002698200Y0002440472D01*
X0002696325Y0002438597D01*
X0002658830Y0002402977D02*
X0002681327Y0002402977D01*
X0002670078Y0002402977D02*
X0002670078Y0002442347D01*
X0002673828Y0002436722D01*
X0002677577Y0002432973D01*
X0002681327Y0002431098D01*
G04 #@! TO.C,R1*
X0002972534Y0002917349D02*
X0002953787Y0002930472D01*
X0002972534Y0002939846D02*
X0002933164Y0002939846D01*
X0002933164Y0002924848D01*
X0002935039Y0002921098D01*
X0002936914Y0002919223D01*
X0002940663Y0002917349D01*
X0002946287Y0002917349D01*
X0002950037Y0002919223D01*
X0002951912Y0002921098D01*
X0002953787Y0002924848D01*
X0002953787Y0002939846D01*
X0002972534Y0002879853D02*
X0002972534Y0002902350D01*
X0002972534Y0002891102D02*
X0002933164Y0002891102D01*
X0002938788Y0002894851D01*
X0002942538Y0002898601D01*
X0002944413Y0002902350D01*
G04 #@! TO.C,R2*
X0003071325Y0002542977D02*
X0003084448Y0002561724D01*
X0003093822Y0002542977D02*
X0003093822Y0002582347D01*
X0003078824Y0002582347D01*
X0003075074Y0002580472D01*
X0003073200Y0002578597D01*
X0003071325Y0002574848D01*
X0003071325Y0002569223D01*
X0003073200Y0002565474D01*
X0003075074Y0002563599D01*
X0003078824Y0002561724D01*
X0003093822Y0002561724D01*
X0003056327Y0002578597D02*
X0003054452Y0002580472D01*
X0003050703Y0002582347D01*
X0003041329Y0002582347D01*
X0003037579Y0002580472D01*
X0003035704Y0002578597D01*
X0003033830Y0002574848D01*
X0003033830Y0002571098D01*
X0003035704Y0002565474D01*
X0003058202Y0002542977D01*
X0003033830Y0002542977D01*
G04 #@! TO.C,R3*
X0002696325Y0002582977D02*
X0002709448Y0002601724D01*
X0002718822Y0002582977D02*
X0002718822Y0002622347D01*
X0002703824Y0002622347D01*
X0002700074Y0002620472D01*
X0002698200Y0002618597D01*
X0002696325Y0002614848D01*
X0002696325Y0002609223D01*
X0002698200Y0002605474D01*
X0002700074Y0002603599D01*
X0002703824Y0002601724D01*
X0002718822Y0002601724D01*
X0002683202Y0002622347D02*
X0002658830Y0002622347D01*
X0002671953Y0002607349D01*
X0002666329Y0002607349D01*
X0002662579Y0002605474D01*
X0002660704Y0002603599D01*
X0002658830Y0002599850D01*
X0002658830Y0002590476D01*
X0002660704Y0002586726D01*
X0002662579Y0002584851D01*
X0002666329Y0002582977D01*
X0002677577Y0002582977D01*
X0002681327Y0002584851D01*
X0002683202Y0002586726D01*
G04 #@! TO.C,R4*
X0002696325Y0002502977D02*
X0002709448Y0002521724D01*
X0002718822Y0002502977D02*
X0002718822Y0002542347D01*
X0002703824Y0002542347D01*
X0002700074Y0002540472D01*
X0002698200Y0002538597D01*
X0002696325Y0002534848D01*
X0002696325Y0002529223D01*
X0002698200Y0002525474D01*
X0002700074Y0002523599D01*
X0002703824Y0002521724D01*
X0002718822Y0002521724D01*
X0002662579Y0002529223D02*
X0002662579Y0002502977D01*
X0002671953Y0002544222D02*
X0002681327Y0002516100D01*
X0002656955Y0002516100D01*
G04 #@! TO.C,Q1*
X0003084748Y0002664536D02*
X0003082874Y0002668286D01*
X0003079124Y0002672036D01*
X0003073500Y0002677660D01*
X0003071625Y0002681409D01*
X0003071625Y0002685159D01*
X0003080999Y0002683284D02*
X0003079124Y0002687034D01*
X0003075374Y0002690783D01*
X0003067875Y0002692658D01*
X0003054752Y0002692658D01*
X0003047253Y0002690783D01*
X0003043503Y0002687034D01*
X0003041629Y0002683284D01*
X0003041629Y0002675785D01*
X0003043503Y0002672036D01*
X0003047253Y0002668286D01*
X0003054752Y0002666411D01*
X0003067875Y0002666411D01*
X0003075374Y0002668286D01*
X0003079124Y0002672036D01*
X0003080999Y0002675785D01*
X0003080999Y0002683284D01*
X0003080999Y0002628916D02*
X0003080999Y0002651413D01*
X0003080999Y0002640165D02*
X0003041629Y0002640165D01*
X0003047253Y0002643914D01*
X0003051002Y0002647664D01*
X0003052877Y0002651413D01*
G04 #@! TO.C,J1*
X0002029621Y0002093044D02*
X0002057742Y0002093044D01*
X0002063367Y0002094919D01*
X0002067116Y0002098668D01*
X0002068991Y0002104293D01*
X0002068991Y0002108042D01*
X0002068991Y0002053674D02*
X0002068991Y0002076171D01*
X0002068991Y0002064923D02*
X0002029621Y0002064923D01*
X0002035245Y0002068672D01*
X0002038995Y0002072422D01*
X0002040869Y0002076171D01*
G04 #@! TD*
M02*