%
M48
METRIC,000.000
T01C0.50
%
T01
X012188Y046250
X011188Y046250
X010188Y046250
X009188Y046250
X008188Y046250
X008547Y047750
X009547Y047750
X010547Y047750
X011547Y047750
X036464Y046250
X035464Y046250
X034464Y046250
X033464Y046250
X032464Y046250
X032547Y047750
X033547Y047750
X034547Y047750
X035547Y047750
X036547Y047750
X046250Y058281
X046250Y059281
X046250Y060281
X046250Y061281
X046250Y062281
X047750Y061934
X047750Y060934
X047750Y059934
X047750Y058934
X047750Y057934
X046250Y081281
X046250Y082281
X046250Y083281
X046250Y084281
X046250Y085281
X047750Y084934
X047750Y083934
X047750Y082934
X047750Y081934
X047750Y080934
X062188Y046250
X061188Y046250
X060188Y046250
X059188Y046250
X058188Y046250
X058547Y047750
X059547Y047750
X060547Y047750
X061547Y047750
X081464Y046250
X080464Y046250
X079464Y046250
X078464Y046250
X078547Y047750
X079547Y047750
X080547Y047750
X081547Y047750
X046250Y032281
X046250Y033281
X046250Y034281
X046250Y035281
X046250Y036281
X047750Y035934
X047750Y034934
X047750Y033934
X047750Y032934
X047750Y031934
X046250Y008281
X046250Y009281
X046250Y010281
X046250Y011281
X046250Y012281
X047750Y011934
X047750Y010934
X047750Y009934
X047750Y008934
X047750Y007934
M30