G04 #@! TF.GenerationSoftware,KiCad,Pcbnew,(5.0.2)-1*
G04 #@! TF.CreationDate,2019-01-31T16:36:43+01:00*
G04 #@! TF.ProjectId,SHMod24_RF_IR_Bridge,53484d6f-6432-4345-9f52-465f49525f42,rev?*
G04 #@! TF.SameCoordinates,Original*
G04 #@! TF.FileFunction,Copper,L1,Top*
G04 #@! TF.FilePolarity,Positive*
%FSLAX46Y46*%
G04 Gerber Fmt 4.6, Leading zero omitted, Abs format (unit mm)*
G04 Created by KiCad (PCBNEW (5.0.2)-1) date 31/01/2019 16:36:43*
%MOMM*%
%LPD*%
G01*
G04 APERTURE LIST*
G04 #@! TA.AperFunction,ComponentPad*
%ADD10R,1.700000X1.700000*%
G04 #@! TD*
G04 #@! TA.AperFunction,ComponentPad*
%ADD11O,1.700000X1.700000*%
G04 #@! TD*
G04 #@! TA.AperFunction,ComponentPad*
%ADD12C,1.800000*%
G04 #@! TD*
G04 #@! TA.AperFunction,Conductor*
%ADD13C,0.100000*%
G04 #@! TD*
G04 #@! TA.AperFunction,ComponentPad*
%ADD14R,1.800000X1.800000*%
G04 #@! TD*
G04 #@! TA.AperFunction,SMDPad,CuDef*
%ADD15C,1.600000*%
G04 #@! TD*
G04 #@! TA.AperFunction,ComponentPad*
%ADD16R,2.032000X1.727200*%
G04 #@! TD*
G04 #@! TA.AperFunction,ComponentPad*
%ADD17O,2.032000X1.727200*%
G04 #@! TD*
G04 #@! TA.AperFunction,ViaPad*
%ADD18C,0.800000*%
G04 #@! TD*
G04 #@! TA.AperFunction,ViaPad*
%ADD19C,0.700000*%
G04 #@! TD*
G04 #@! TA.AperFunction,Conductor*
%ADD20C,1.000000*%
G04 #@! TD*
G04 #@! TA.AperFunction,Conductor*
%ADD21C,0.200000*%
G04 #@! TD*
G04 #@! TA.AperFunction,Conductor*
%ADD22C,0.400000*%
G04 #@! TD*
G04 #@! TA.AperFunction,Conductor*
%ADD23C,0.254000*%
G04 #@! TD*
G04 APERTURE END LIST*
D10*
G04 #@! TO.P,J3,1*
G04 #@! TO.N,GND*
X10414000Y-5969000D03*
D11*
G04 #@! TO.P,J3,2*
X12954000Y-5969000D03*
G04 #@! TO.P,J3,3*
G04 #@! TO.N,+3V3*
X15494000Y-5969000D03*
G04 #@! TO.P,J3,4*
G04 #@! TO.N,RX*
X18034000Y-5969000D03*
G04 #@! TO.P,J3,5*
G04 #@! TO.N,TX*
X20574000Y-5969000D03*
G04 #@! TO.P,J3,6*
G04 #@! TO.N,Net-(J3-Pad6)*
X23114000Y-5969000D03*
G04 #@! TD*
D12*
G04 #@! TO.P,D3,1*
G04 #@! TO.N,Net-(D3-Pad1)*
X17145000Y-21971000D03*
D13*
G04 #@! TD*
G04 #@! TO.N,Net-(D3-Pad1)*
G04 #@! TO.C,D3*
G36*
X15915577Y-21641577D02*
X17474423Y-20741577D01*
X18374423Y-22300423D01*
X16815577Y-23200423D01*
X15915577Y-21641577D01*
X15915577Y-21641577D01*
G37*
D12*
G04 #@! TO.P,D3,2*
G04 #@! TO.N,Net-(D2-Pad1)*
X18415000Y-24170705D03*
G04 #@! TD*
G04 #@! TO.P,D4,2*
G04 #@! TO.N,Net-(D1-Pad2)*
X17145000Y-18161000D03*
G04 #@! TO.P,D4,1*
G04 #@! TO.N,Net-(D4-Pad1)*
X18415000Y-15961295D03*
D13*
G04 #@! TD*
G04 #@! TO.N,Net-(D4-Pad1)*
G04 #@! TO.C,D4*
G36*
X18085577Y-14731872D02*
X19644423Y-15631872D01*
X18744423Y-17190718D01*
X17185577Y-16290718D01*
X18085577Y-14731872D01*
X18085577Y-14731872D01*
G37*
D14*
G04 #@! TO.P,D5,1*
G04 #@! TO.N,Net-(D3-Pad1)*
X24130000Y-14351000D03*
D12*
G04 #@! TO.P,D5,2*
G04 #@! TO.N,Net-(D4-Pad1)*
X21590000Y-14351000D03*
G04 #@! TD*
G04 #@! TO.P,D6,2*
G04 #@! TO.N,Net-(D1-Pad2)*
X27305000Y-15961295D03*
G04 #@! TO.P,D6,1*
G04 #@! TO.N,Net-(D6-Pad1)*
X28575000Y-18161000D03*
D13*
G04 #@! TD*
G04 #@! TO.N,Net-(D6-Pad1)*
G04 #@! TO.C,D6*
G36*
X29804423Y-18490423D02*
X28245577Y-19390423D01*
X27345577Y-17831577D01*
X28904423Y-16931577D01*
X29804423Y-18490423D01*
X29804423Y-18490423D01*
G37*
D12*
G04 #@! TO.P,D7,1*
G04 #@! TO.N,Net-(D3-Pad1)*
X27305000Y-23241000D03*
D13*
G04 #@! TD*
G04 #@! TO.N,Net-(D3-Pad1)*
G04 #@! TO.C,D7*
G36*
X27634423Y-24470423D02*
X26075577Y-23570423D01*
X26975577Y-22011577D01*
X28534423Y-22911577D01*
X27634423Y-24470423D01*
X27634423Y-24470423D01*
G37*
D12*
G04 #@! TO.P,D7,2*
G04 #@! TO.N,Net-(D6-Pad1)*
X28575000Y-21041295D03*
G04 #@! TD*
D14*
G04 #@! TO.P,D2,1*
G04 #@! TO.N,Net-(D2-Pad1)*
X21590000Y-25781000D03*
D12*
G04 #@! TO.P,D2,2*
G04 #@! TO.N,Net-(D1-Pad2)*
X24130000Y-25781000D03*
G04 #@! TD*
D13*
G04 #@! TO.N,GND*
G04 #@! TO.C,C4*
G36*
X32451504Y-3044204D02*
X32475773Y-3047804D01*
X32499571Y-3053765D01*
X32522671Y-3062030D01*
X32544849Y-3072520D01*
X32565893Y-3085133D01*
X32585598Y-3099747D01*
X32603777Y-3116223D01*
X32620253Y-3134402D01*
X32634867Y-3154107D01*
X32647480Y-3175151D01*
X32657970Y-3197329D01*
X32666235Y-3220429D01*
X32672196Y-3244227D01*
X32675796Y-3268496D01*
X32677000Y-3293000D01*
X32677000Y-6293000D01*
X32675796Y-6317504D01*
X32672196Y-6341773D01*
X32666235Y-6365571D01*
X32657970Y-6388671D01*
X32647480Y-6410849D01*
X32634867Y-6431893D01*
X32620253Y-6451598D01*
X32603777Y-6469777D01*
X32585598Y-6486253D01*
X32565893Y-6500867D01*
X32544849Y-6513480D01*
X32522671Y-6523970D01*
X32499571Y-6532235D01*
X32475773Y-6538196D01*
X32451504Y-6541796D01*
X32427000Y-6543000D01*
X31327000Y-6543000D01*
X31302496Y-6541796D01*
X31278227Y-6538196D01*
X31254429Y-6532235D01*
X31231329Y-6523970D01*
X31209151Y-6513480D01*
X31188107Y-6500867D01*
X31168402Y-6486253D01*
X31150223Y-6469777D01*
X31133747Y-6451598D01*
X31119133Y-6431893D01*
X31106520Y-6410849D01*
X31096030Y-6388671D01*
X31087765Y-6365571D01*
X31081804Y-6341773D01*
X31078204Y-6317504D01*
X31077000Y-6293000D01*
X31077000Y-3293000D01*
X31078204Y-3268496D01*
X31081804Y-3244227D01*
X31087765Y-3220429D01*
X31096030Y-3197329D01*
X31106520Y-3175151D01*
X31119133Y-3154107D01*
X31133747Y-3134402D01*
X31150223Y-3116223D01*
X31168402Y-3099747D01*
X31188107Y-3085133D01*
X31209151Y-3072520D01*
X31231329Y-3062030D01*
X31254429Y-3053765D01*
X31278227Y-3047804D01*
X31302496Y-3044204D01*
X31327000Y-3043000D01*
X32427000Y-3043000D01*
X32451504Y-3044204D01*
X32451504Y-3044204D01*
G37*
D15*
G04 #@! TD*
G04 #@! TO.P,C4,2*
G04 #@! TO.N,GND*
X31877000Y-4793000D03*
D13*
G04 #@! TO.N,+3V3-filt*
G04 #@! TO.C,C4*
G36*
X32451504Y-8444204D02*
X32475773Y-8447804D01*
X32499571Y-8453765D01*
X32522671Y-8462030D01*
X32544849Y-8472520D01*
X32565893Y-8485133D01*
X32585598Y-8499747D01*
X32603777Y-8516223D01*
X32620253Y-8534402D01*
X32634867Y-8554107D01*
X32647480Y-8575151D01*
X32657970Y-8597329D01*
X32666235Y-8620429D01*
X32672196Y-8644227D01*
X32675796Y-8668496D01*
X32677000Y-8693000D01*
X32677000Y-11693000D01*
X32675796Y-11717504D01*
X32672196Y-11741773D01*
X32666235Y-11765571D01*
X32657970Y-11788671D01*
X32647480Y-11810849D01*
X32634867Y-11831893D01*
X32620253Y-11851598D01*
X32603777Y-11869777D01*
X32585598Y-11886253D01*
X32565893Y-11900867D01*
X32544849Y-11913480D01*
X32522671Y-11923970D01*
X32499571Y-11932235D01*
X32475773Y-11938196D01*
X32451504Y-11941796D01*
X32427000Y-11943000D01*
X31327000Y-11943000D01*
X31302496Y-11941796D01*
X31278227Y-11938196D01*
X31254429Y-11932235D01*
X31231329Y-11923970D01*
X31209151Y-11913480D01*
X31188107Y-11900867D01*
X31168402Y-11886253D01*
X31150223Y-11869777D01*
X31133747Y-11851598D01*
X31119133Y-11831893D01*
X31106520Y-11810849D01*
X31096030Y-11788671D01*
X31087765Y-11765571D01*
X31081804Y-11741773D01*
X31078204Y-11717504D01*
X31077000Y-11693000D01*
X31077000Y-8693000D01*
X31078204Y-8668496D01*
X31081804Y-8644227D01*
X31087765Y-8620429D01*
X31096030Y-8597329D01*
X31106520Y-8575151D01*
X31119133Y-8554107D01*
X31133747Y-8534402D01*
X31150223Y-8516223D01*
X31168402Y-8499747D01*
X31188107Y-8485133D01*
X31209151Y-8472520D01*
X31231329Y-8462030D01*
X31254429Y-8453765D01*
X31278227Y-8447804D01*
X31302496Y-8444204D01*
X31327000Y-8443000D01*
X32427000Y-8443000D01*
X32451504Y-8444204D01*
X32451504Y-8444204D01*
G37*
D15*
G04 #@! TD*
G04 #@! TO.P,C4,1*
G04 #@! TO.N,+3V3-filt*
X31877000Y-10193000D03*
D16*
G04 #@! TO.P,RF1,1*
G04 #@! TO.N,+3V3*
X33274000Y-26924000D03*
D17*
G04 #@! TO.P,RF1,2*
G04 #@! TO.N,P02*
X33274000Y-29464000D03*
G04 #@! TO.P,RF1,3*
X33274000Y-32004000D03*
G04 #@! TO.P,RF1,4*
G04 #@! TO.N,GND*
X33274000Y-34544000D03*
G04 #@! TD*
D16*
G04 #@! TO.P,RF2,1*
G04 #@! TO.N,P04*
X2794000Y-16256000D03*
D17*
G04 #@! TO.P,RF2,2*
G04 #@! TO.N,+12V*
X2794000Y-18796000D03*
G04 #@! TO.P,RF2,3*
G04 #@! TO.N,GND*
X2794000Y-21336000D03*
G04 #@! TD*
D12*
G04 #@! TO.P,IR2,1*
G04 #@! TO.N,P05*
X39859949Y-35578051D03*
D13*
G04 #@! TD*
G04 #@! TO.N,P05*
G04 #@! TO.C,IR2*
G36*
X41132741Y-35578051D02*
X39859949Y-36850843D01*
X38587157Y-35578051D01*
X39859949Y-34305259D01*
X41132741Y-35578051D01*
X41132741Y-35578051D01*
G37*
D12*
G04 #@! TO.P,IR2,2*
G04 #@! TO.N,GND*
X41656000Y-33782000D03*
G04 #@! TO.P,IR2,3*
G04 #@! TO.N,+3V3-filt*
X43452051Y-31985949D03*
G04 #@! TD*
G04 #@! TO.P,IR3,3*
G04 #@! TO.N,+3V3-filt*
X6495051Y-35197051D03*
G04 #@! TO.P,IR3,2*
G04 #@! TO.N,GND*
X4699000Y-33401000D03*
G04 #@! TO.P,IR3,1*
G04 #@! TO.N,P05*
X2902949Y-31604949D03*
D13*
G04 #@! TD*
G04 #@! TO.N,P05*
G04 #@! TO.C,IR3*
G36*
X2902949Y-32877741D02*
X1630157Y-31604949D01*
X2902949Y-30332157D01*
X4175741Y-31604949D01*
X2902949Y-32877741D01*
X2902949Y-32877741D01*
G37*
D12*
G04 #@! TO.P,IR4,1*
G04 #@! TO.N,P05*
X6495051Y-2902949D03*
D13*
G04 #@! TD*
G04 #@! TO.N,P05*
G04 #@! TO.C,IR4*
G36*
X5222259Y-2902949D02*
X6495051Y-1630157D01*
X7767843Y-2902949D01*
X6495051Y-4175741D01*
X5222259Y-2902949D01*
X5222259Y-2902949D01*
G37*
D12*
G04 #@! TO.P,IR4,2*
G04 #@! TO.N,GND*
X4699000Y-4699000D03*
G04 #@! TO.P,IR4,3*
G04 #@! TO.N,+3V3-filt*
X2902949Y-6495051D03*
G04 #@! TD*
G04 #@! TO.P,IR1,1*
G04 #@! TO.N,P05*
X42726153Y-6658153D03*
D13*
G04 #@! TD*
G04 #@! TO.N,P05*
G04 #@! TO.C,IR1*
G36*
X42726153Y-5385361D02*
X43998945Y-6658153D01*
X42726153Y-7930945D01*
X41453361Y-6658153D01*
X42726153Y-5385361D01*
X42726153Y-5385361D01*
G37*
D12*
G04 #@! TO.P,IR1,2*
G04 #@! TO.N,GND*
X40930102Y-4862102D03*
G04 #@! TO.P,IR1,3*
G04 #@! TO.N,+3V3-filt*
X39134051Y-3066051D03*
G04 #@! TD*
D14*
G04 #@! TO.P,D1,1*
G04 #@! TO.N,Net-(D1-Pad1)*
X22860000Y-21336000D03*
D12*
G04 #@! TO.P,D1,2*
G04 #@! TO.N,Net-(D1-Pad2)*
X22860000Y-18796000D03*
G04 #@! TD*
D11*
G04 #@! TO.P,J1,28*
G04 #@! TO.N,P09*
X39890000Y-39900000D03*
G04 #@! TO.P,J1,27*
G04 #@! TO.N,P10*
X39890000Y-42440000D03*
G04 #@! TO.P,J1,26*
G04 #@! TO.N,P06*
X37350000Y-39900000D03*
G04 #@! TO.P,J1,25*
G04 #@! TO.N,P07*
X37350000Y-42440000D03*
G04 #@! TO.P,J1,24*
G04 #@! TO.N,P04*
X34810000Y-39900000D03*
G04 #@! TO.P,J1,23*
G04 #@! TO.N,P05*
X34810000Y-42440000D03*
G04 #@! TO.P,J1,22*
G04 #@! TO.N,P02*
X32270000Y-39900000D03*
G04 #@! TO.P,J1,21*
G04 #@! TO.N,P03*
X32270000Y-42440000D03*
G04 #@! TO.P,J1,20*
G04 #@! TO.N,GND*
X29730000Y-39900000D03*
G04 #@! TO.P,J1,19*
X29730000Y-42440000D03*
G04 #@! TO.P,J1,18*
G04 #@! TO.N,A2*
X27190000Y-39900000D03*
G04 #@! TO.P,J1,17*
G04 #@! TO.N,A3*
X27190000Y-42440000D03*
G04 #@! TO.P,J1,16*
G04 #@! TO.N,A0*
X24650000Y-39900000D03*
G04 #@! TO.P,J1,15*
G04 #@! TO.N,A1*
X24650000Y-42440000D03*
G04 #@! TO.P,J1,14*
G04 #@! TO.N,SCK*
X22110000Y-39900000D03*
G04 #@! TO.P,J1,13*
G04 #@! TO.N,CS*
X22110000Y-42440000D03*
G04 #@! TO.P,J1,12*
G04 #@! TO.N,MOSI*
X19570000Y-39900000D03*
G04 #@! TO.P,J1,11*
G04 #@! TO.N,MISO*
X19570000Y-42440000D03*
G04 #@! TO.P,J1,10*
G04 #@! TO.N,SCL*
X17030000Y-39900000D03*
G04 #@! TO.P,J1,9*
G04 #@! TO.N,SDA*
X17030000Y-42440000D03*
G04 #@! TO.P,J1,8*
G04 #@! TO.N,TX*
X14490000Y-39900000D03*
G04 #@! TO.P,J1,7*
G04 #@! TO.N,RX*
X14490000Y-42440000D03*
G04 #@! TO.P,J1,6*
G04 #@! TO.N,+3V3*
X11950000Y-39900000D03*
G04 #@! TO.P,J1,5*
X11950000Y-42440000D03*
G04 #@! TO.P,J1,4*
G04 #@! TO.N,VCC*
X9410000Y-39900000D03*
G04 #@! TO.P,J1,3*
G04 #@! TO.N,+5V*
X9410000Y-42440000D03*
G04 #@! TO.P,J1,2*
G04 #@! TO.N,GND*
X6870000Y-39900000D03*
D10*
G04 #@! TO.P,J1,1*
X6870000Y-42440000D03*
G04 #@! TD*
D18*
G04 #@! TO.N,GND*
X25908000Y-30226000D03*
X26924000Y-30226000D03*
X25908000Y-31242000D03*
X26924000Y-31242000D03*
D19*
X11557000Y-28956000D03*
X12446000Y-28956000D03*
X13335000Y-28956000D03*
X14224000Y-28956000D03*
D18*
X15113000Y-28956000D03*
X12700000Y-26670000D03*
X11811000Y-26670000D03*
X10922000Y-26670000D03*
G04 #@! TO.N,RX*
X26162000Y-12065000D03*
X30089680Y-24136213D03*
G04 #@! TO.N,TX*
X27178357Y-12194645D03*
X30861000Y-23495006D03*
G04 #@! TO.N,P03*
X28194000Y-30861000D03*
G04 #@! TO.N,P04*
X20192998Y-36449000D03*
X2030147Y-23200000D03*
X10286998Y-32258000D03*
G04 #@! TO.N,P06*
X13335000Y-31369000D03*
X21209000Y-35560000D03*
G04 #@! TO.N,+3V3-filt*
X30607000Y-9652000D03*
X30607000Y-10668000D03*
G04 #@! TD*
D20*
G04 #@! TO.N,GND*
X29730000Y-42440000D02*
X29730000Y-39900000D01*
X29730000Y-38239000D02*
X27813000Y-36322000D01*
X29730000Y-39900000D02*
X29730000Y-38239000D01*
X6870000Y-42440000D02*
X6870000Y-39900000D01*
X6870000Y-38697919D02*
X6858000Y-38685919D01*
X6870000Y-39900000D02*
X6870000Y-38697919D01*
X5667919Y-39900000D02*
X5645919Y-39878000D01*
X6870000Y-39900000D02*
X5667919Y-39900000D01*
D21*
G04 #@! TO.N,RX*
X19304000Y-7239000D02*
X18034000Y-5969000D01*
X26162000Y-12065000D02*
X21336000Y-7239000D01*
X21336000Y-7239000D02*
X19304000Y-7239000D01*
X24564989Y-29660904D02*
X29689681Y-24536212D01*
X24564989Y-33773549D02*
X24564989Y-29660904D01*
X20365538Y-37973000D02*
X24564989Y-33773549D01*
X29689681Y-24536212D02*
X30089680Y-24136213D01*
X14490000Y-42440000D02*
X13412999Y-41362999D01*
X14823038Y-37973000D02*
X20365538Y-37973000D01*
X13412999Y-39383039D02*
X14823038Y-37973000D01*
X13412999Y-41362999D02*
X13412999Y-39383039D01*
G04 #@! TO.N,TX*
X20952712Y-5969000D02*
X20574000Y-5969000D01*
X27178357Y-12194645D02*
X20952712Y-5969000D01*
X30861000Y-24060691D02*
X30861000Y-23495006D01*
X30861000Y-24338462D02*
X30861000Y-24060691D01*
X24892000Y-30307462D02*
X30861000Y-24338462D01*
X20500990Y-38300011D02*
X24892000Y-33909001D01*
X14490000Y-39900000D02*
X16089989Y-38300011D01*
X24892000Y-33909001D02*
X24892000Y-30307462D01*
X16089989Y-38300011D02*
X20500990Y-38300011D01*
D22*
G04 #@! TO.N,P03*
X30980001Y-33647001D02*
X28194000Y-30861000D01*
X32270000Y-42440000D02*
X30980001Y-41150001D01*
X30980001Y-41150001D02*
X30980001Y-33647001D01*
G04 #@! TO.N,P02*
X33274000Y-29464000D02*
X33274000Y-32004000D01*
X33121600Y-32004000D02*
X33274000Y-32004000D01*
X31623000Y-33502600D02*
X33121600Y-32004000D01*
X32270000Y-39900000D02*
X31623000Y-39253000D01*
X31623000Y-39253000D02*
X31623000Y-33502600D01*
G04 #@! TO.N,P05*
X41232741Y-35578051D02*
X39859949Y-35578051D01*
X41783951Y-35578051D02*
X41232741Y-35578051D01*
X44752052Y-32609950D02*
X41783951Y-35578051D01*
X44752052Y-8684052D02*
X44752052Y-32609950D01*
X42726153Y-6658153D02*
X44752052Y-8684052D01*
X35659999Y-41590001D02*
X34810000Y-42440000D01*
X36060001Y-41189999D02*
X35659999Y-41590001D01*
X36060001Y-39377999D02*
X36060001Y-41189999D01*
X39859949Y-35578051D02*
X36060001Y-39377999D01*
X2902949Y-31604949D02*
X635000Y-33872898D01*
X635000Y-33872898D02*
X635000Y-40386000D01*
X33960001Y-43289999D02*
X34810000Y-42440000D01*
X31772991Y-45477009D02*
X33960001Y-43289999D01*
X5757011Y-45477009D02*
X31772991Y-45477009D01*
X666002Y-40386000D02*
X5757011Y-45477009D01*
X635000Y-40386000D02*
X666002Y-40386000D01*
X42726153Y-5285361D02*
X42726153Y-6658153D01*
X42726153Y-4372153D02*
X42726153Y-5285361D01*
X39243000Y-889000D02*
X42726153Y-4372153D01*
X8509000Y-889000D02*
X17671051Y-889000D01*
X17671051Y-889000D02*
X19957051Y-3175000D01*
X19957051Y-3175000D02*
X25908000Y-3175000D01*
X6495051Y-2902949D02*
X8509000Y-889000D01*
X25908000Y-3175000D02*
X28194000Y-889000D01*
X28194000Y-889000D02*
X39243000Y-889000D01*
G04 #@! TO.N,P04*
X2641600Y-16256000D02*
X2794000Y-16256000D01*
X1377990Y-17519610D02*
X2641600Y-16256000D01*
X1377990Y-21982158D02*
X1377990Y-17519610D01*
X2030147Y-22634315D02*
X1377990Y-21982158D01*
X2030147Y-23200000D02*
X2030147Y-22634315D01*
X14477998Y-36449000D02*
X10686997Y-32657999D01*
X10686997Y-32657999D02*
X10286998Y-32258000D01*
X20192998Y-36449000D02*
X14477998Y-36449000D01*
G04 #@! TO.N,P06*
X13335000Y-31369000D02*
X17526000Y-35560000D01*
X17526000Y-35560000D02*
X21209000Y-35560000D01*
D20*
G04 #@! TO.N,Net-(D1-Pad2)*
X22225000Y-18161000D02*
X22860000Y-18796000D01*
X17145000Y-18161000D02*
X22225000Y-18161000D01*
X24470295Y-18796000D02*
X27305000Y-15961295D01*
X22860000Y-18796000D02*
X24470295Y-18796000D01*
X25029999Y-19355704D02*
X24470295Y-18796000D01*
X25029999Y-24881001D02*
X25029999Y-19355704D01*
X24130000Y-25781000D02*
X25029999Y-24881001D01*
G04 #@! TO.N,Net-(D6-Pad1)*
X28575000Y-21041295D02*
X28575000Y-18161000D01*
G04 #@! TO.N,Net-(D4-Pad1)*
X20025295Y-14351000D02*
X18415000Y-15961295D01*
X21590000Y-14351000D02*
X20025295Y-14351000D01*
G04 #@! TO.N,Net-(D2-Pad1)*
X19979705Y-24170705D02*
X21590000Y-25781000D01*
X18415000Y-24170705D02*
X19979705Y-24170705D01*
G04 #@! TD*
D23*
G04 #@! TO.N,GND*
G36*
X8057710Y-518632D02*
X6995304Y-1581038D01*
X6769737Y-1355471D01*
X6643710Y-1271263D01*
X6495051Y-1241693D01*
X6346392Y-1271263D01*
X6220365Y-1355471D01*
X4947573Y-2628263D01*
X4863365Y-2754290D01*
X4833795Y-2902949D01*
X4863365Y-3051608D01*
X4947573Y-3177635D01*
X5330141Y-3560203D01*
X5027787Y-3434964D01*
X4826000Y-3494833D01*
X4826000Y-4392392D01*
X4713141Y-4505251D01*
X4892749Y-4684859D01*
X5005608Y-4572000D01*
X5903167Y-4572000D01*
X5963036Y-4370213D01*
X5796861Y-4026923D01*
X6220365Y-4450427D01*
X6346392Y-4534635D01*
X6495051Y-4564205D01*
X6643710Y-4534635D01*
X6769737Y-4450427D01*
X8042529Y-3177635D01*
X8126737Y-3051608D01*
X8156307Y-2902949D01*
X8126737Y-2754290D01*
X8042529Y-2628263D01*
X7816962Y-2402696D01*
X8749658Y-1470000D01*
X17430394Y-1470000D01*
X19505761Y-3545368D01*
X19538174Y-3593877D01*
X19586683Y-3626290D01*
X19604364Y-3638104D01*
X19730356Y-3722290D01*
X19899829Y-3756000D01*
X19899833Y-3756000D01*
X19957050Y-3767381D01*
X20014267Y-3756000D01*
X25850782Y-3756000D01*
X25908000Y-3767381D01*
X25965218Y-3756000D01*
X25965222Y-3756000D01*
X26134695Y-3722290D01*
X26326877Y-3593877D01*
X26359292Y-3545365D01*
X26937443Y-2967214D01*
X30696000Y-2967214D01*
X30696000Y-4570750D01*
X30791250Y-4666000D01*
X31750000Y-4666000D01*
X31750000Y-2757250D01*
X32004000Y-2757250D01*
X32004000Y-4666000D01*
X32962750Y-4666000D01*
X33058000Y-4570750D01*
X33058000Y-2967214D01*
X32999996Y-2827180D01*
X32892819Y-2720004D01*
X32752785Y-2662000D01*
X32099250Y-2662000D01*
X32004000Y-2757250D01*
X31750000Y-2757250D01*
X31654750Y-2662000D01*
X31001215Y-2662000D01*
X30861181Y-2720004D01*
X30754004Y-2827180D01*
X30696000Y-2967214D01*
X26937443Y-2967214D01*
X28434658Y-1470000D01*
X39002343Y-1470000D01*
X39317394Y-1785051D01*
X38879244Y-1785051D01*
X38408423Y-1980072D01*
X38048072Y-2340423D01*
X37853051Y-2811244D01*
X37853051Y-3320858D01*
X38048072Y-3791679D01*
X38408423Y-4152030D01*
X38879244Y-4347051D01*
X39388858Y-4347051D01*
X39839906Y-4160220D01*
X39803806Y-4200781D01*
X39666066Y-4533315D01*
X39725935Y-4735102D01*
X40623494Y-4735102D01*
X40736353Y-4847961D01*
X40915961Y-4668353D01*
X40803102Y-4555494D01*
X40803102Y-3657935D01*
X40601315Y-3598066D01*
X40224717Y-3780364D01*
X40415051Y-3320858D01*
X40415051Y-2882708D01*
X41159806Y-3627463D01*
X41057102Y-3657935D01*
X41057102Y-4555494D01*
X40944243Y-4668353D01*
X41123851Y-4847961D01*
X41236710Y-4735102D01*
X42134269Y-4735102D01*
X42145153Y-4698416D01*
X42145154Y-5025789D01*
X42134269Y-4989102D01*
X41236710Y-4989102D01*
X41123851Y-4876243D01*
X40944243Y-5055851D01*
X41057102Y-5168710D01*
X41057102Y-6066269D01*
X41258889Y-6126138D01*
X41602179Y-5959963D01*
X41178675Y-6383467D01*
X41094467Y-6509494D01*
X41064897Y-6658153D01*
X41094467Y-6806812D01*
X41178675Y-6932839D01*
X42451467Y-8205631D01*
X42577494Y-8289839D01*
X42726153Y-8319409D01*
X42874812Y-8289839D01*
X43000839Y-8205631D01*
X43226406Y-7980064D01*
X44171052Y-8924710D01*
X44171053Y-30897225D01*
X43706858Y-30704949D01*
X43197244Y-30704949D01*
X42726423Y-30899970D01*
X42366072Y-31260321D01*
X42171051Y-31731142D01*
X42171051Y-32240756D01*
X42357882Y-32691804D01*
X42317321Y-32655704D01*
X41984787Y-32517964D01*
X41783000Y-32577833D01*
X41783000Y-33475392D01*
X41670141Y-33588251D01*
X41849749Y-33767859D01*
X41962608Y-33655000D01*
X42860167Y-33655000D01*
X42920036Y-33453213D01*
X42737738Y-33076615D01*
X43197244Y-33266949D01*
X43273395Y-33266949D01*
X42631345Y-33909000D01*
X41962608Y-33909000D01*
X41849749Y-33796141D01*
X41670141Y-33975749D01*
X41783000Y-34088608D01*
X41783000Y-34757345D01*
X41543294Y-34997051D01*
X41492316Y-34997051D01*
X41529000Y-34986167D01*
X41529000Y-34088608D01*
X41641859Y-33975749D01*
X41462251Y-33796141D01*
X41349392Y-33909000D01*
X40451833Y-33909000D01*
X40391964Y-34110787D01*
X40558139Y-34454077D01*
X40134635Y-34030573D01*
X40008608Y-33946365D01*
X39859949Y-33916795D01*
X39711290Y-33946365D01*
X39585263Y-34030573D01*
X38312471Y-35303365D01*
X38228263Y-35429392D01*
X38198693Y-35578051D01*
X38228263Y-35726710D01*
X38312471Y-35852737D01*
X38538038Y-36078304D01*
X35689636Y-38926707D01*
X35641124Y-38959122D01*
X35633868Y-38969981D01*
X35290312Y-38740424D01*
X34931239Y-38669000D01*
X34688761Y-38669000D01*
X34329688Y-38740424D01*
X33922499Y-39012499D01*
X33650424Y-39419688D01*
X33554884Y-39900000D01*
X33650424Y-40380312D01*
X33922499Y-40787501D01*
X34329688Y-41059576D01*
X34688761Y-41131000D01*
X34931239Y-41131000D01*
X35290312Y-41059576D01*
X35479002Y-40933497D01*
X35479002Y-40949341D01*
X35289637Y-41138706D01*
X35289631Y-41138710D01*
X35171542Y-41256799D01*
X34931239Y-41209000D01*
X34688761Y-41209000D01*
X34329688Y-41280424D01*
X33922499Y-41552499D01*
X33650424Y-41959688D01*
X33554884Y-42440000D01*
X33626799Y-42801543D01*
X33271595Y-43156747D01*
X33429576Y-42920312D01*
X33525116Y-42440000D01*
X33429576Y-41959688D01*
X33157501Y-41552499D01*
X32750312Y-41280424D01*
X32391239Y-41209000D01*
X32148761Y-41209000D01*
X31908457Y-41256799D01*
X31561001Y-40909344D01*
X31561001Y-40906772D01*
X31789688Y-41059576D01*
X32148761Y-41131000D01*
X32391239Y-41131000D01*
X32750312Y-41059576D01*
X33157501Y-40787501D01*
X33429576Y-40380312D01*
X33525116Y-39900000D01*
X33429576Y-39419688D01*
X33157501Y-39012499D01*
X32750312Y-38740424D01*
X32391239Y-38669000D01*
X32204000Y-38669000D01*
X32204000Y-35363785D01*
X32492280Y-35619570D01*
X32951787Y-35778527D01*
X33147000Y-35694643D01*
X33147000Y-34671000D01*
X33401000Y-34671000D01*
X33401000Y-35694643D01*
X33596213Y-35778527D01*
X34055720Y-35619570D01*
X34419419Y-35296867D01*
X34629393Y-34863118D01*
X34568712Y-34671000D01*
X33401000Y-34671000D01*
X33147000Y-34671000D01*
X33127000Y-34671000D01*
X33127000Y-34417000D01*
X33147000Y-34417000D01*
X33147000Y-33393357D01*
X33401000Y-33393357D01*
X33401000Y-34417000D01*
X34568712Y-34417000D01*
X34629393Y-34224882D01*
X34419419Y-33791133D01*
X34055720Y-33468430D01*
X34011732Y-33453213D01*
X40391964Y-33453213D01*
X40451833Y-33655000D01*
X41529000Y-33655000D01*
X41529000Y-32577833D01*
X41327213Y-32517964D01*
X40868515Y-32740004D01*
X40529704Y-33120679D01*
X40391964Y-33453213D01*
X34011732Y-33453213D01*
X33596213Y-33309473D01*
X33401000Y-33393357D01*
X33147000Y-33393357D01*
X32951787Y-33309473D01*
X32492280Y-33468430D01*
X32372933Y-33574324D01*
X32748491Y-33198767D01*
X32999019Y-33248600D01*
X33548981Y-33248600D01*
X33912019Y-33176387D01*
X34323706Y-32901306D01*
X34598787Y-32489619D01*
X34695383Y-32004000D01*
X34598787Y-31518381D01*
X34323706Y-31106694D01*
X33912019Y-30831613D01*
X33855000Y-30820271D01*
X33855000Y-30647729D01*
X33912019Y-30636387D01*
X34323706Y-30361306D01*
X34598787Y-29949619D01*
X34695383Y-29464000D01*
X34598787Y-28978381D01*
X34323706Y-28566694D01*
X33912019Y-28291613D01*
X33548981Y-28219400D01*
X32999019Y-28219400D01*
X32635981Y-28291613D01*
X32224294Y-28566694D01*
X31949213Y-28978381D01*
X31852617Y-29464000D01*
X31949213Y-29949619D01*
X32224294Y-30361306D01*
X32635981Y-30636387D01*
X32693000Y-30647729D01*
X32693001Y-30820271D01*
X32635981Y-30831613D01*
X32224294Y-31106694D01*
X31949213Y-31518381D01*
X31852617Y-32004000D01*
X31926833Y-32377109D01*
X31252633Y-33051310D01*
X31224659Y-33070002D01*
X28975000Y-30820343D01*
X28975000Y-30705649D01*
X28856100Y-30418599D01*
X28636401Y-30198900D01*
X28349351Y-30080000D01*
X28038649Y-30080000D01*
X27751599Y-30198900D01*
X27531900Y-30418599D01*
X27413000Y-30705649D01*
X27413000Y-31016351D01*
X27531900Y-31303401D01*
X27751599Y-31523100D01*
X28038649Y-31642000D01*
X28153343Y-31642000D01*
X30399002Y-33887660D01*
X30399001Y-38880517D01*
X30346964Y-38834755D01*
X30046980Y-38710511D01*
X29857000Y-38771373D01*
X29857000Y-39773000D01*
X29877000Y-39773000D01*
X29877000Y-40027000D01*
X29857000Y-40027000D01*
X29857000Y-41028627D01*
X30046980Y-41089489D01*
X30346964Y-40965245D01*
X30399001Y-40919484D01*
X30399001Y-41092783D01*
X30387620Y-41150001D01*
X30399001Y-41207219D01*
X30399001Y-41207222D01*
X30432711Y-41376695D01*
X30551742Y-41554837D01*
X30346964Y-41374755D01*
X30046980Y-41250511D01*
X29857000Y-41311373D01*
X29857000Y-42313000D01*
X30859193Y-42313000D01*
X30919501Y-42123018D01*
X30714769Y-41706427D01*
X31086799Y-42078457D01*
X31014884Y-42440000D01*
X31110424Y-42920312D01*
X31382499Y-43327501D01*
X31789688Y-43599576D01*
X32148761Y-43671000D01*
X32391239Y-43671000D01*
X32750312Y-43599576D01*
X32986747Y-43441595D01*
X31532334Y-44896009D01*
X5997669Y-44896009D01*
X3763910Y-42662250D01*
X5639000Y-42662250D01*
X5639000Y-43365786D01*
X5697004Y-43505820D01*
X5804181Y-43612996D01*
X5944215Y-43671000D01*
X6647750Y-43671000D01*
X6743000Y-43575750D01*
X6743000Y-42567000D01*
X6997000Y-42567000D01*
X6997000Y-43575750D01*
X7092250Y-43671000D01*
X7795785Y-43671000D01*
X7935819Y-43612996D01*
X8042996Y-43505820D01*
X8101000Y-43365786D01*
X8101000Y-42662250D01*
X8005750Y-42567000D01*
X6997000Y-42567000D01*
X6743000Y-42567000D01*
X5734250Y-42567000D01*
X5639000Y-42662250D01*
X3763910Y-42662250D01*
X3541660Y-42440000D01*
X8154884Y-42440000D01*
X8250424Y-42920312D01*
X8522499Y-43327501D01*
X8929688Y-43599576D01*
X9288761Y-43671000D01*
X9531239Y-43671000D01*
X9890312Y-43599576D01*
X10297501Y-43327501D01*
X10569576Y-42920312D01*
X10665116Y-42440000D01*
X10694884Y-42440000D01*
X10790424Y-42920312D01*
X11062499Y-43327501D01*
X11469688Y-43599576D01*
X11828761Y-43671000D01*
X12071239Y-43671000D01*
X12430312Y-43599576D01*
X12837501Y-43327501D01*
X13109576Y-42920312D01*
X13205116Y-42440000D01*
X13109576Y-41959688D01*
X12837501Y-41552499D01*
X12430312Y-41280424D01*
X12071239Y-41209000D01*
X11828761Y-41209000D01*
X11469688Y-41280424D01*
X11062499Y-41552499D01*
X10790424Y-41959688D01*
X10694884Y-42440000D01*
X10665116Y-42440000D01*
X10569576Y-41959688D01*
X10297501Y-41552499D01*
X9890312Y-41280424D01*
X9531239Y-41209000D01*
X9288761Y-41209000D01*
X8929688Y-41280424D01*
X8522499Y-41552499D01*
X8250424Y-41959688D01*
X8154884Y-42440000D01*
X3541660Y-42440000D01*
X2615874Y-41514214D01*
X5639000Y-41514214D01*
X5639000Y-42217750D01*
X5734250Y-42313000D01*
X6743000Y-42313000D01*
X6743000Y-41304250D01*
X6997000Y-41304250D01*
X6997000Y-42313000D01*
X8005750Y-42313000D01*
X8101000Y-42217750D01*
X8101000Y-41514214D01*
X8042996Y-41374180D01*
X7935819Y-41267004D01*
X7795785Y-41209000D01*
X7092250Y-41209000D01*
X6997000Y-41304250D01*
X6743000Y-41304250D01*
X6647750Y-41209000D01*
X5944215Y-41209000D01*
X5804181Y-41267004D01*
X5697004Y-41374180D01*
X5639000Y-41514214D01*
X2615874Y-41514214D01*
X1318642Y-40216982D01*
X5680499Y-40216982D01*
X5892348Y-40648056D01*
X6253036Y-40965245D01*
X6553020Y-41089489D01*
X6743000Y-41028627D01*
X6743000Y-40027000D01*
X6997000Y-40027000D01*
X6997000Y-41028627D01*
X7186980Y-41089489D01*
X7486964Y-40965245D01*
X7847652Y-40648056D01*
X8059501Y-40216982D01*
X7999193Y-40027000D01*
X6997000Y-40027000D01*
X6743000Y-40027000D01*
X5740807Y-40027000D01*
X5680499Y-40216982D01*
X1318642Y-40216982D01*
X1216000Y-40114341D01*
X1216000Y-39900000D01*
X8154884Y-39900000D01*
X8250424Y-40380312D01*
X8522499Y-40787501D01*
X8929688Y-41059576D01*
X9288761Y-41131000D01*
X9531239Y-41131000D01*
X9890312Y-41059576D01*
X10297501Y-40787501D01*
X10569576Y-40380312D01*
X10665116Y-39900000D01*
X10569576Y-39419688D01*
X10297501Y-39012499D01*
X9890312Y-38740424D01*
X9531239Y-38669000D01*
X9288761Y-38669000D01*
X8929688Y-38740424D01*
X8522499Y-39012499D01*
X8250424Y-39419688D01*
X8154884Y-39900000D01*
X1216000Y-39900000D01*
X1216000Y-39583018D01*
X5680499Y-39583018D01*
X5740807Y-39773000D01*
X6743000Y-39773000D01*
X6743000Y-38771373D01*
X6997000Y-38771373D01*
X6997000Y-39773000D01*
X7999193Y-39773000D01*
X8059501Y-39583018D01*
X7847652Y-39151944D01*
X7486964Y-38834755D01*
X7186980Y-38710511D01*
X6997000Y-38771373D01*
X6743000Y-38771373D01*
X6553020Y-38710511D01*
X6253036Y-38834755D01*
X5892348Y-39151944D01*
X5680499Y-39583018D01*
X1216000Y-39583018D01*
X1216000Y-34113555D01*
X1599768Y-33729787D01*
X3434964Y-33729787D01*
X3657004Y-34188485D01*
X4037679Y-34527296D01*
X4370213Y-34665036D01*
X4572000Y-34605167D01*
X4572000Y-33594749D01*
X4713141Y-33594749D01*
X4826000Y-33707608D01*
X4826000Y-34605167D01*
X5027787Y-34665036D01*
X5404385Y-34482738D01*
X5214051Y-34942244D01*
X5214051Y-35451858D01*
X5409072Y-35922679D01*
X5769423Y-36283030D01*
X6240244Y-36478051D01*
X6749858Y-36478051D01*
X7220679Y-36283030D01*
X7581030Y-35922679D01*
X7776051Y-35451858D01*
X7776051Y-34942244D01*
X7581030Y-34471423D01*
X7220679Y-34111072D01*
X6749858Y-33916051D01*
X6240244Y-33916051D01*
X5789196Y-34102882D01*
X5825296Y-34062321D01*
X5963036Y-33729787D01*
X5903167Y-33528000D01*
X5005608Y-33528000D01*
X4892749Y-33415141D01*
X4713141Y-33594749D01*
X4572000Y-33594749D01*
X4572000Y-33528000D01*
X3494833Y-33528000D01*
X3434964Y-33729787D01*
X1599768Y-33729787D01*
X2402696Y-32926860D01*
X2628263Y-33152427D01*
X2754290Y-33236635D01*
X2902949Y-33266205D01*
X3051608Y-33236635D01*
X3177635Y-33152427D01*
X3560203Y-32769859D01*
X3434964Y-33072213D01*
X3494833Y-33274000D01*
X4392392Y-33274000D01*
X4505251Y-33386859D01*
X4684859Y-33207251D01*
X4572000Y-33094392D01*
X4572000Y-32196833D01*
X4826000Y-32196833D01*
X4826000Y-33274000D01*
X5903167Y-33274000D01*
X5963036Y-33072213D01*
X5740996Y-32613515D01*
X5360321Y-32274704D01*
X5027787Y-32136964D01*
X4826000Y-32196833D01*
X4572000Y-32196833D01*
X4370213Y-32136964D01*
X4026923Y-32303139D01*
X4227413Y-32102649D01*
X9505998Y-32102649D01*
X9505998Y-32413351D01*
X9624898Y-32700401D01*
X9844597Y-32920100D01*
X10131647Y-33039000D01*
X10246340Y-33039000D01*
X10316630Y-33109290D01*
X10316633Y-33109292D01*
X14026708Y-36819368D01*
X14059121Y-36867877D01*
X14107630Y-36900290D01*
X14107631Y-36900291D01*
X14251303Y-36996290D01*
X14420776Y-37030000D01*
X14420779Y-37030000D01*
X14477997Y-37041381D01*
X14535215Y-37030000D01*
X19669497Y-37030000D01*
X19750597Y-37111100D01*
X20037647Y-37230000D01*
X20348349Y-37230000D01*
X20484837Y-37173465D01*
X20166302Y-37492000D01*
X14870405Y-37492000D01*
X14823037Y-37482578D01*
X14775669Y-37492000D01*
X14775665Y-37492000D01*
X14635361Y-37519908D01*
X14476257Y-37626219D01*
X14449422Y-37666380D01*
X13106377Y-39009425D01*
X13066219Y-39036258D01*
X13039386Y-39076416D01*
X13039383Y-39076419D01*
X12959907Y-39195363D01*
X12959856Y-39195617D01*
X12837501Y-39012499D01*
X12430312Y-38740424D01*
X12071239Y-38669000D01*
X11828761Y-38669000D01*
X11469688Y-38740424D01*
X11062499Y-39012499D01*
X10790424Y-39419688D01*
X10694884Y-39900000D01*
X10790424Y-40380312D01*
X11062499Y-40787501D01*
X11469688Y-41059576D01*
X11828761Y-41131000D01*
X12071239Y-41131000D01*
X12430312Y-41059576D01*
X12837501Y-40787501D01*
X12931999Y-40646074D01*
X12931999Y-41315630D01*
X12922577Y-41362999D01*
X12931999Y-41410368D01*
X12931999Y-41410371D01*
X12959907Y-41550675D01*
X13066218Y-41709780D01*
X13106379Y-41736615D01*
X13330263Y-41960499D01*
X13234884Y-42440000D01*
X13330424Y-42920312D01*
X13602499Y-43327501D01*
X14009688Y-43599576D01*
X14368761Y-43671000D01*
X14611239Y-43671000D01*
X14970312Y-43599576D01*
X15377501Y-43327501D01*
X15649576Y-42920312D01*
X15745116Y-42440000D01*
X15774884Y-42440000D01*
X15870424Y-42920312D01*
X16142499Y-43327501D01*
X16549688Y-43599576D01*
X16908761Y-43671000D01*
X17151239Y-43671000D01*
X17510312Y-43599576D01*
X17917501Y-43327501D01*
X18189576Y-42920312D01*
X18285116Y-42440000D01*
X18314884Y-42440000D01*
X18410424Y-42920312D01*
X18682499Y-43327501D01*
X19089688Y-43599576D01*
X19448761Y-43671000D01*
X19691239Y-43671000D01*
X20050312Y-43599576D01*
X20457501Y-43327501D01*
X20729576Y-42920312D01*
X20825116Y-42440000D01*
X20854884Y-42440000D01*
X20950424Y-42920312D01*
X21222499Y-43327501D01*
X21629688Y-43599576D01*
X21988761Y-43671000D01*
X22231239Y-43671000D01*
X22590312Y-43599576D01*
X22997501Y-43327501D01*
X23269576Y-42920312D01*
X23365116Y-42440000D01*
X23394884Y-42440000D01*
X23490424Y-42920312D01*
X23762499Y-43327501D01*
X24169688Y-43599576D01*
X24528761Y-43671000D01*
X24771239Y-43671000D01*
X25130312Y-43599576D01*
X25537501Y-43327501D01*
X25809576Y-42920312D01*
X25905116Y-42440000D01*
X25934884Y-42440000D01*
X26030424Y-42920312D01*
X26302499Y-43327501D01*
X26709688Y-43599576D01*
X27068761Y-43671000D01*
X27311239Y-43671000D01*
X27670312Y-43599576D01*
X28077501Y-43327501D01*
X28349576Y-42920312D01*
X28382064Y-42756982D01*
X28540499Y-42756982D01*
X28752348Y-43188056D01*
X29113036Y-43505245D01*
X29413020Y-43629489D01*
X29603000Y-43568627D01*
X29603000Y-42567000D01*
X29857000Y-42567000D01*
X29857000Y-43568627D01*
X30046980Y-43629489D01*
X30346964Y-43505245D01*
X30707652Y-43188056D01*
X30919501Y-42756982D01*
X30859193Y-42567000D01*
X29857000Y-42567000D01*
X29603000Y-42567000D01*
X28600807Y-42567000D01*
X28540499Y-42756982D01*
X28382064Y-42756982D01*
X28445116Y-42440000D01*
X28382065Y-42123018D01*
X28540499Y-42123018D01*
X28600807Y-42313000D01*
X29603000Y-42313000D01*
X29603000Y-41311373D01*
X29413020Y-41250511D01*
X29113036Y-41374755D01*
X28752348Y-41691944D01*
X28540499Y-42123018D01*
X28382065Y-42123018D01*
X28349576Y-41959688D01*
X28077501Y-41552499D01*
X27670312Y-41280424D01*
X27311239Y-41209000D01*
X27068761Y-41209000D01*
X26709688Y-41280424D01*
X26302499Y-41552499D01*
X26030424Y-41959688D01*
X25934884Y-42440000D01*
X25905116Y-42440000D01*
X25809576Y-41959688D01*
X25537501Y-41552499D01*
X25130312Y-41280424D01*
X24771239Y-41209000D01*
X24528761Y-41209000D01*
X24169688Y-41280424D01*
X23762499Y-41552499D01*
X23490424Y-41959688D01*
X23394884Y-42440000D01*
X23365116Y-42440000D01*
X23269576Y-41959688D01*
X22997501Y-41552499D01*
X22590312Y-41280424D01*
X22231239Y-41209000D01*
X21988761Y-41209000D01*
X21629688Y-41280424D01*
X21222499Y-41552499D01*
X20950424Y-41959688D01*
X20854884Y-42440000D01*
X20825116Y-42440000D01*
X20729576Y-41959688D01*
X20457501Y-41552499D01*
X20050312Y-41280424D01*
X19691239Y-41209000D01*
X19448761Y-41209000D01*
X19089688Y-41280424D01*
X18682499Y-41552499D01*
X18410424Y-41959688D01*
X18314884Y-42440000D01*
X18285116Y-42440000D01*
X18189576Y-41959688D01*
X17917501Y-41552499D01*
X17510312Y-41280424D01*
X17151239Y-41209000D01*
X16908761Y-41209000D01*
X16549688Y-41280424D01*
X16142499Y-41552499D01*
X15870424Y-41959688D01*
X15774884Y-42440000D01*
X15745116Y-42440000D01*
X15649576Y-41959688D01*
X15377501Y-41552499D01*
X14970312Y-41280424D01*
X14611239Y-41209000D01*
X14368761Y-41209000D01*
X14010499Y-41280263D01*
X13893999Y-41163763D01*
X13893999Y-40982275D01*
X14009688Y-41059576D01*
X14368761Y-41131000D01*
X14611239Y-41131000D01*
X14970312Y-41059576D01*
X15377501Y-40787501D01*
X15649576Y-40380312D01*
X15745116Y-39900000D01*
X15649737Y-39420499D01*
X16289226Y-38781011D01*
X16488945Y-38781011D01*
X16142499Y-39012499D01*
X15870424Y-39419688D01*
X15774884Y-39900000D01*
X15870424Y-40380312D01*
X16142499Y-40787501D01*
X16549688Y-41059576D01*
X16908761Y-41131000D01*
X17151239Y-41131000D01*
X17510312Y-41059576D01*
X17917501Y-40787501D01*
X18189576Y-40380312D01*
X18285116Y-39900000D01*
X18189576Y-39419688D01*
X17917501Y-39012499D01*
X17571055Y-38781011D01*
X19028945Y-38781011D01*
X18682499Y-39012499D01*
X18410424Y-39419688D01*
X18314884Y-39900000D01*
X18410424Y-40380312D01*
X18682499Y-40787501D01*
X19089688Y-41059576D01*
X19448761Y-41131000D01*
X19691239Y-41131000D01*
X20050312Y-41059576D01*
X20457501Y-40787501D01*
X20729576Y-40380312D01*
X20825116Y-39900000D01*
X20854884Y-39900000D01*
X20950424Y-40380312D01*
X21222499Y-40787501D01*
X21629688Y-41059576D01*
X21988761Y-41131000D01*
X22231239Y-41131000D01*
X22590312Y-41059576D01*
X22997501Y-40787501D01*
X23269576Y-40380312D01*
X23365116Y-39900000D01*
X23394884Y-39900000D01*
X23490424Y-40380312D01*
X23762499Y-40787501D01*
X24169688Y-41059576D01*
X24528761Y-41131000D01*
X24771239Y-41131000D01*
X25130312Y-41059576D01*
X25537501Y-40787501D01*
X25809576Y-40380312D01*
X25905116Y-39900000D01*
X25934884Y-39900000D01*
X26030424Y-40380312D01*
X26302499Y-40787501D01*
X26709688Y-41059576D01*
X27068761Y-41131000D01*
X27311239Y-41131000D01*
X27670312Y-41059576D01*
X28077501Y-40787501D01*
X28349576Y-40380312D01*
X28382064Y-40216982D01*
X28540499Y-40216982D01*
X28752348Y-40648056D01*
X29113036Y-40965245D01*
X29413020Y-41089489D01*
X29603000Y-41028627D01*
X29603000Y-40027000D01*
X28600807Y-40027000D01*
X28540499Y-40216982D01*
X28382064Y-40216982D01*
X28445116Y-39900000D01*
X28382065Y-39583018D01*
X28540499Y-39583018D01*
X28600807Y-39773000D01*
X29603000Y-39773000D01*
X29603000Y-38771373D01*
X29413020Y-38710511D01*
X29113036Y-38834755D01*
X28752348Y-39151944D01*
X28540499Y-39583018D01*
X28382065Y-39583018D01*
X28349576Y-39419688D01*
X28077501Y-39012499D01*
X27670312Y-38740424D01*
X27311239Y-38669000D01*
X27068761Y-38669000D01*
X26709688Y-38740424D01*
X26302499Y-39012499D01*
X26030424Y-39419688D01*
X25934884Y-39900000D01*
X25905116Y-39900000D01*
X25809576Y-39419688D01*
X25537501Y-39012499D01*
X25130312Y-38740424D01*
X24771239Y-38669000D01*
X24528761Y-38669000D01*
X24169688Y-38740424D01*
X23762499Y-39012499D01*
X23490424Y-39419688D01*
X23394884Y-39900000D01*
X23365116Y-39900000D01*
X23269576Y-39419688D01*
X22997501Y-39012499D01*
X22590312Y-38740424D01*
X22231239Y-38669000D01*
X21988761Y-38669000D01*
X21629688Y-38740424D01*
X21222499Y-39012499D01*
X20950424Y-39419688D01*
X20854884Y-39900000D01*
X20825116Y-39900000D01*
X20729576Y-39419688D01*
X20457501Y-39012499D01*
X20111055Y-38781011D01*
X20453621Y-38781011D01*
X20500990Y-38790433D01*
X20548359Y-38781011D01*
X20548363Y-38781011D01*
X20688667Y-38753103D01*
X20847771Y-38646792D01*
X20874606Y-38606631D01*
X25198623Y-34282615D01*
X25238781Y-34255782D01*
X25265614Y-34215624D01*
X25265616Y-34215622D01*
X25345092Y-34096678D01*
X25351926Y-34062321D01*
X25373000Y-33956374D01*
X25373000Y-33956370D01*
X25382422Y-33909001D01*
X25373000Y-33861632D01*
X25373000Y-30506698D01*
X29819298Y-26060400D01*
X31869536Y-26060400D01*
X31869536Y-27787600D01*
X31899106Y-27936259D01*
X31983314Y-28062286D01*
X32109341Y-28146494D01*
X32258000Y-28176064D01*
X34290000Y-28176064D01*
X34438659Y-28146494D01*
X34564686Y-28062286D01*
X34648894Y-27936259D01*
X34678464Y-27787600D01*
X34678464Y-26060400D01*
X34648894Y-25911741D01*
X34564686Y-25785714D01*
X34438659Y-25701506D01*
X34290000Y-25671936D01*
X32258000Y-25671936D01*
X32109341Y-25701506D01*
X31983314Y-25785714D01*
X31899106Y-25911741D01*
X31869536Y-26060400D01*
X29819298Y-26060400D01*
X31167623Y-24712076D01*
X31207781Y-24685243D01*
X31234614Y-24645085D01*
X31234616Y-24645083D01*
X31314092Y-24526139D01*
X31330662Y-24442834D01*
X31342000Y-24385835D01*
X31342000Y-24385831D01*
X31351422Y-24338462D01*
X31342000Y-24291093D01*
X31342000Y-24118507D01*
X31523100Y-23937407D01*
X31642000Y-23650357D01*
X31642000Y-23339655D01*
X31523100Y-23052605D01*
X31303401Y-22832906D01*
X31016351Y-22714006D01*
X30705649Y-22714006D01*
X30418599Y-22832906D01*
X30198900Y-23052605D01*
X30080000Y-23339655D01*
X30080000Y-23355213D01*
X29934329Y-23355213D01*
X29647279Y-23474113D01*
X29427580Y-23693812D01*
X29308680Y-23980862D01*
X29308680Y-24236976D01*
X24258367Y-29287290D01*
X24218209Y-29314123D01*
X24191376Y-29354281D01*
X24191373Y-29354284D01*
X24111897Y-29473228D01*
X24074567Y-29660904D01*
X24083990Y-29708278D01*
X24083989Y-33574312D01*
X21990000Y-35668302D01*
X21990000Y-35404649D01*
X21871100Y-35117599D01*
X21651401Y-34897900D01*
X21364351Y-34779000D01*
X21053649Y-34779000D01*
X20766599Y-34897900D01*
X20685499Y-34979000D01*
X17766659Y-34979000D01*
X14116000Y-31328343D01*
X14116000Y-31213649D01*
X13997100Y-30926599D01*
X13777401Y-30706900D01*
X13490351Y-30588000D01*
X13179649Y-30588000D01*
X12892599Y-30706900D01*
X12672900Y-30926599D01*
X12554000Y-31213649D01*
X12554000Y-31524351D01*
X12672900Y-31811401D01*
X12892599Y-32031100D01*
X13179649Y-32150000D01*
X13294343Y-32150000D01*
X17012341Y-35868000D01*
X14718656Y-35868000D01*
X11138290Y-32287635D01*
X11138288Y-32287632D01*
X11067998Y-32217342D01*
X11067998Y-32102649D01*
X10949098Y-31815599D01*
X10729399Y-31595900D01*
X10442349Y-31477000D01*
X10131647Y-31477000D01*
X9844597Y-31595900D01*
X9624898Y-31815599D01*
X9505998Y-32102649D01*
X4227413Y-32102649D01*
X4450427Y-31879635D01*
X4534635Y-31753608D01*
X4564205Y-31604949D01*
X4534635Y-31456290D01*
X4450427Y-31330263D01*
X3177635Y-30057471D01*
X3051608Y-29973263D01*
X2902949Y-29943693D01*
X2754290Y-29973263D01*
X2628263Y-30057471D01*
X1355471Y-31330263D01*
X1271263Y-31456290D01*
X1241693Y-31604949D01*
X1271263Y-31753608D01*
X1355471Y-31879635D01*
X1581038Y-32105202D01*
X481000Y-33205241D01*
X481000Y-17519610D01*
X785609Y-17519610D01*
X796991Y-17576833D01*
X796990Y-21924940D01*
X785609Y-21982158D01*
X796990Y-22039376D01*
X796990Y-22039379D01*
X830700Y-22208852D01*
X959113Y-22401035D01*
X1007625Y-22433450D01*
X1357423Y-22783248D01*
X1249147Y-23044649D01*
X1249147Y-23355351D01*
X1368047Y-23642401D01*
X1587746Y-23862100D01*
X1874796Y-23981000D01*
X2185498Y-23981000D01*
X2472548Y-23862100D01*
X2692247Y-23642401D01*
X2811147Y-23355351D01*
X2811147Y-23044649D01*
X2692247Y-22757599D01*
X2613641Y-22678993D01*
X2622528Y-22634314D01*
X2611147Y-22577097D01*
X2611147Y-22577093D01*
X2598970Y-22515876D01*
X2667000Y-22486643D01*
X2667000Y-21463000D01*
X2921000Y-21463000D01*
X2921000Y-22486643D01*
X3116213Y-22570527D01*
X3575720Y-22411570D01*
X3939419Y-22088867D01*
X4131402Y-21692282D01*
X15530436Y-21692282D01*
X15579157Y-21835809D01*
X16479157Y-23394655D01*
X16579095Y-23508612D01*
X16715035Y-23575650D01*
X16866282Y-23585564D01*
X17009809Y-23536843D01*
X17547952Y-23226146D01*
X17329021Y-23445077D01*
X17134000Y-23915898D01*
X17134000Y-24425512D01*
X17329021Y-24896333D01*
X17689372Y-25256684D01*
X18160193Y-25451705D01*
X18669807Y-25451705D01*
X19140628Y-25256684D01*
X19345607Y-25051705D01*
X19614784Y-25051705D01*
X20301536Y-25738458D01*
X20301536Y-26681000D01*
X20331106Y-26829659D01*
X20415314Y-26955686D01*
X20541341Y-27039894D01*
X20690000Y-27069464D01*
X22490000Y-27069464D01*
X22638659Y-27039894D01*
X22764686Y-26955686D01*
X22848894Y-26829659D01*
X22878464Y-26681000D01*
X22878464Y-26106939D01*
X23044021Y-26506628D01*
X23404372Y-26866979D01*
X23875193Y-27062000D01*
X24384807Y-27062000D01*
X24855628Y-26866979D01*
X25215979Y-26506628D01*
X25411000Y-26035807D01*
X25411000Y-25745922D01*
X25591606Y-25565315D01*
X25665164Y-25516166D01*
X25859882Y-25224750D01*
X25910999Y-24967768D01*
X25910999Y-24967767D01*
X25928258Y-24881001D01*
X25910999Y-24794234D01*
X25910999Y-23923964D01*
X27440191Y-24806843D01*
X27583718Y-24855564D01*
X27734965Y-24845650D01*
X27870905Y-24778612D01*
X27970843Y-24664655D01*
X28870843Y-23105809D01*
X28919564Y-22962282D01*
X28909650Y-22811035D01*
X28842612Y-22675095D01*
X28728655Y-22575157D01*
X28215762Y-22279038D01*
X28320193Y-22322295D01*
X28829807Y-22322295D01*
X29300628Y-22127274D01*
X29660979Y-21766923D01*
X29856000Y-21296102D01*
X29856000Y-20786488D01*
X29660979Y-20315667D01*
X29456000Y-20110688D01*
X29456000Y-19140145D01*
X29998655Y-18826843D01*
X30112612Y-18726905D01*
X30179650Y-18590965D01*
X30189564Y-18439718D01*
X30140843Y-18296191D01*
X29240843Y-16737345D01*
X29140905Y-16623388D01*
X29004965Y-16556350D01*
X28853718Y-16546436D01*
X28710191Y-16595157D01*
X28172048Y-16905854D01*
X28390979Y-16686923D01*
X28586000Y-16216102D01*
X28586000Y-15706488D01*
X28390979Y-15235667D01*
X28030628Y-14875316D01*
X27559807Y-14680295D01*
X27050193Y-14680295D01*
X26579372Y-14875316D01*
X26219021Y-15235667D01*
X26024000Y-15706488D01*
X26024000Y-15996373D01*
X24105374Y-17915000D01*
X23790607Y-17915000D01*
X23585628Y-17710021D01*
X23114807Y-17515000D01*
X22843949Y-17515000D01*
X22568749Y-17331117D01*
X22311767Y-17280000D01*
X22311763Y-17280000D01*
X22225000Y-17262742D01*
X22138237Y-17280000D01*
X19141436Y-17280000D01*
X19980843Y-15826104D01*
X20029564Y-15682577D01*
X20024032Y-15598184D01*
X20390217Y-15232000D01*
X20659393Y-15232000D01*
X20864372Y-15436979D01*
X21335193Y-15632000D01*
X21844807Y-15632000D01*
X22315628Y-15436979D01*
X22675979Y-15076628D01*
X22841536Y-14676939D01*
X22841536Y-15251000D01*
X22871106Y-15399659D01*
X22955314Y-15525686D01*
X23081341Y-15609894D01*
X23230000Y-15639464D01*
X25030000Y-15639464D01*
X25178659Y-15609894D01*
X25304686Y-15525686D01*
X25388894Y-15399659D01*
X25418464Y-15251000D01*
X25418464Y-13451000D01*
X25388894Y-13302341D01*
X25304686Y-13176314D01*
X25178659Y-13092106D01*
X25030000Y-13062536D01*
X23230000Y-13062536D01*
X23081341Y-13092106D01*
X22955314Y-13176314D01*
X22871106Y-13302341D01*
X22841536Y-13451000D01*
X22841536Y-14025061D01*
X22675979Y-13625372D01*
X22315628Y-13265021D01*
X21844807Y-13070000D01*
X21335193Y-13070000D01*
X20864372Y-13265021D01*
X20659393Y-13470000D01*
X20112057Y-13470000D01*
X20025294Y-13452742D01*
X19938531Y-13470000D01*
X19938528Y-13470000D01*
X19681546Y-13521117D01*
X19390130Y-13715835D01*
X19340980Y-13789393D01*
X18568339Y-14562035D01*
X18279809Y-14395452D01*
X18136282Y-14346731D01*
X17985035Y-14356645D01*
X17849095Y-14423683D01*
X17749157Y-14537640D01*
X16849157Y-16096486D01*
X16800436Y-16240013D01*
X16810350Y-16391260D01*
X16877388Y-16527200D01*
X16991345Y-16627138D01*
X17504238Y-16923257D01*
X17399807Y-16880000D01*
X16890193Y-16880000D01*
X16419372Y-17075021D01*
X16059021Y-17435372D01*
X15864000Y-17906193D01*
X15864000Y-18415807D01*
X16059021Y-18886628D01*
X16419372Y-19246979D01*
X16890193Y-19442000D01*
X17399807Y-19442000D01*
X17870628Y-19246979D01*
X18075607Y-19042000D01*
X21579000Y-19042000D01*
X21579000Y-19050807D01*
X21774021Y-19521628D01*
X22134372Y-19881979D01*
X22534061Y-20047536D01*
X21960000Y-20047536D01*
X21811341Y-20077106D01*
X21685314Y-20161314D01*
X21601106Y-20287341D01*
X21571536Y-20436000D01*
X21571536Y-22236000D01*
X21601106Y-22384659D01*
X21685314Y-22510686D01*
X21811341Y-22594894D01*
X21960000Y-22624464D01*
X23760000Y-22624464D01*
X23908659Y-22594894D01*
X24034686Y-22510686D01*
X24118894Y-22384659D01*
X24148464Y-22236000D01*
X24148464Y-20436000D01*
X24118894Y-20287341D01*
X24034686Y-20161314D01*
X23908659Y-20077106D01*
X23760000Y-20047536D01*
X23185939Y-20047536D01*
X23585628Y-19881979D01*
X23790607Y-19677000D01*
X24105374Y-19677000D01*
X24149000Y-19720626D01*
X24148999Y-24500000D01*
X23875193Y-24500000D01*
X23404372Y-24695021D01*
X23044021Y-25055372D01*
X22878464Y-25455061D01*
X22878464Y-24881000D01*
X22848894Y-24732341D01*
X22764686Y-24606314D01*
X22638659Y-24522106D01*
X22490000Y-24492536D01*
X21547458Y-24492536D01*
X20664022Y-23609100D01*
X20614870Y-23535540D01*
X20323454Y-23340822D01*
X20066472Y-23289705D01*
X20066468Y-23289705D01*
X19979705Y-23272447D01*
X19892942Y-23289705D01*
X19345607Y-23289705D01*
X19140628Y-23084726D01*
X18669807Y-22889705D01*
X18160193Y-22889705D01*
X18055762Y-22932962D01*
X18568655Y-22636843D01*
X18682612Y-22536905D01*
X18749650Y-22400965D01*
X18759564Y-22249718D01*
X18710843Y-22106191D01*
X17810843Y-20547345D01*
X17710905Y-20433388D01*
X17574965Y-20366350D01*
X17423718Y-20356436D01*
X17280191Y-20405157D01*
X15721345Y-21305157D01*
X15607388Y-21405095D01*
X15540350Y-21541035D01*
X15530436Y-21692282D01*
X4131402Y-21692282D01*
X4149393Y-21655118D01*
X4088712Y-21463000D01*
X2921000Y-21463000D01*
X2667000Y-21463000D01*
X2647000Y-21463000D01*
X2647000Y-21209000D01*
X2667000Y-21209000D01*
X2667000Y-20185357D01*
X2921000Y-20185357D01*
X2921000Y-21209000D01*
X4088712Y-21209000D01*
X4149393Y-21016882D01*
X3939419Y-20583133D01*
X3575720Y-20260430D01*
X3116213Y-20101473D01*
X2921000Y-20185357D01*
X2667000Y-20185357D01*
X2471787Y-20101473D01*
X2012280Y-20260430D01*
X1958990Y-20307713D01*
X1958990Y-19836762D01*
X2155981Y-19968387D01*
X2519019Y-20040600D01*
X3068981Y-20040600D01*
X3432019Y-19968387D01*
X3843706Y-19693306D01*
X4118787Y-19281619D01*
X4215383Y-18796000D01*
X4118787Y-18310381D01*
X3843706Y-17898694D01*
X3432019Y-17623613D01*
X3068981Y-17551400D01*
X2519019Y-17551400D01*
X2155981Y-17623613D01*
X1974145Y-17745112D01*
X2211193Y-17508064D01*
X3810000Y-17508064D01*
X3958659Y-17478494D01*
X4084686Y-17394286D01*
X4168894Y-17268259D01*
X4198464Y-17119600D01*
X4198464Y-15392400D01*
X4168894Y-15243741D01*
X4084686Y-15117714D01*
X3958659Y-15033506D01*
X3810000Y-15003936D01*
X1778000Y-15003936D01*
X1629341Y-15033506D01*
X1503314Y-15117714D01*
X1419106Y-15243741D01*
X1389536Y-15392400D01*
X1389536Y-16686407D01*
X1007623Y-17068320D01*
X959114Y-17100733D01*
X926701Y-17149242D01*
X926699Y-17149244D01*
X830700Y-17292916D01*
X785609Y-17519610D01*
X481000Y-17519610D01*
X481000Y-6240244D01*
X1621949Y-6240244D01*
X1621949Y-6749858D01*
X1816970Y-7220679D01*
X2177321Y-7581030D01*
X2648142Y-7776051D01*
X3157756Y-7776051D01*
X3628577Y-7581030D01*
X3988928Y-7220679D01*
X4183949Y-6749858D01*
X4183949Y-6240244D01*
X4163655Y-6191250D01*
X9183000Y-6191250D01*
X9183000Y-6894786D01*
X9241004Y-7034820D01*
X9348181Y-7141996D01*
X9488215Y-7200000D01*
X10191750Y-7200000D01*
X10287000Y-7104750D01*
X10287000Y-6096000D01*
X10541000Y-6096000D01*
X10541000Y-7104750D01*
X10636250Y-7200000D01*
X11339785Y-7200000D01*
X11479819Y-7141996D01*
X11586996Y-7034820D01*
X11645000Y-6894786D01*
X11645000Y-6285982D01*
X11764499Y-6285982D01*
X11976348Y-6717056D01*
X12337036Y-7034245D01*
X12637020Y-7158489D01*
X12827000Y-7097627D01*
X12827000Y-6096000D01*
X13081000Y-6096000D01*
X13081000Y-7097627D01*
X13270980Y-7158489D01*
X13570964Y-7034245D01*
X13931652Y-6717056D01*
X14143501Y-6285982D01*
X14083193Y-6096000D01*
X13081000Y-6096000D01*
X12827000Y-6096000D01*
X11824807Y-6096000D01*
X11764499Y-6285982D01*
X11645000Y-6285982D01*
X11645000Y-6191250D01*
X11549750Y-6096000D01*
X10541000Y-6096000D01*
X10287000Y-6096000D01*
X9278250Y-6096000D01*
X9183000Y-6191250D01*
X4163655Y-6191250D01*
X4071596Y-5969000D01*
X14238884Y-5969000D01*
X14334424Y-6449312D01*
X14606499Y-6856501D01*
X15013688Y-7128576D01*
X15372761Y-7200000D01*
X15615239Y-7200000D01*
X15974312Y-7128576D01*
X16381501Y-6856501D01*
X16653576Y-6449312D01*
X16749116Y-5969000D01*
X16778884Y-5969000D01*
X16874424Y-6449312D01*
X17146499Y-6856501D01*
X17553688Y-7128576D01*
X17912761Y-7200000D01*
X18155239Y-7200000D01*
X18513501Y-7128737D01*
X18930384Y-7545620D01*
X18957219Y-7585781D01*
X19116323Y-7692092D01*
X19256627Y-7720000D01*
X19256631Y-7720000D01*
X19303999Y-7729422D01*
X19351367Y-7720000D01*
X21136764Y-7720000D01*
X25381000Y-11964237D01*
X25381000Y-12220351D01*
X25499900Y-12507401D01*
X25719599Y-12727100D01*
X26006649Y-12846000D01*
X26317351Y-12846000D01*
X26604401Y-12727100D01*
X26605356Y-12726145D01*
X26735956Y-12856745D01*
X27023006Y-12975645D01*
X27333708Y-12975645D01*
X27620758Y-12856745D01*
X27840457Y-12637046D01*
X27959357Y-12349996D01*
X27959357Y-12039294D01*
X27840457Y-11752244D01*
X27620758Y-11532545D01*
X27333708Y-11413645D01*
X27077594Y-11413645D01*
X25160598Y-9496649D01*
X29826000Y-9496649D01*
X29826000Y-9807351D01*
X29845000Y-9853221D01*
X29845000Y-10466779D01*
X29826000Y-10512649D01*
X29826000Y-10823351D01*
X29845000Y-10869221D01*
X29845000Y-10922000D01*
X29874002Y-11067802D01*
X29956592Y-11191408D01*
X30806855Y-12041671D01*
X30875538Y-12144462D01*
X31082670Y-12282864D01*
X31086730Y-12283672D01*
X31096198Y-12289998D01*
X31242000Y-12319000D01*
X31264339Y-12319000D01*
X31327000Y-12331464D01*
X32427000Y-12331464D01*
X32489661Y-12319000D01*
X32766000Y-12319000D01*
X32911802Y-12289998D01*
X33035408Y-12207408D01*
X33117998Y-12083802D01*
X33147000Y-11938000D01*
X33147000Y-8382000D01*
X33117998Y-8236198D01*
X33035408Y-8112592D01*
X32911802Y-8030002D01*
X32766000Y-8001000D01*
X31115000Y-8001000D01*
X30969198Y-8030002D01*
X30845592Y-8112592D01*
X29956592Y-9001592D01*
X29874002Y-9125198D01*
X29845000Y-9271000D01*
X29845000Y-9450779D01*
X29826000Y-9496649D01*
X25160598Y-9496649D01*
X22831964Y-7168015D01*
X22992761Y-7200000D01*
X23235239Y-7200000D01*
X23594312Y-7128576D01*
X24001501Y-6856501D01*
X24273576Y-6449312D01*
X24369116Y-5969000D01*
X24273576Y-5488688D01*
X24001501Y-5081499D01*
X23902353Y-5015250D01*
X30696000Y-5015250D01*
X30696000Y-6618786D01*
X30754004Y-6758820D01*
X30861181Y-6865996D01*
X31001215Y-6924000D01*
X31654750Y-6924000D01*
X31750000Y-6828750D01*
X31750000Y-4920000D01*
X32004000Y-4920000D01*
X32004000Y-6828750D01*
X32099250Y-6924000D01*
X32752785Y-6924000D01*
X32892819Y-6865996D01*
X32999996Y-6758820D01*
X33058000Y-6618786D01*
X33058000Y-5190889D01*
X39666066Y-5190889D01*
X39888106Y-5649587D01*
X40268781Y-5988398D01*
X40601315Y-6126138D01*
X40803102Y-6066269D01*
X40803102Y-4989102D01*
X39725935Y-4989102D01*
X39666066Y-5190889D01*
X33058000Y-5190889D01*
X33058000Y-5015250D01*
X32962750Y-4920000D01*
X32004000Y-4920000D01*
X31750000Y-4920000D01*
X30791250Y-4920000D01*
X30696000Y-5015250D01*
X23902353Y-5015250D01*
X23594312Y-4809424D01*
X23235239Y-4738000D01*
X22992761Y-4738000D01*
X22633688Y-4809424D01*
X22226499Y-5081499D01*
X21954424Y-5488688D01*
X21858884Y-5969000D01*
X21914985Y-6251036D01*
X21796570Y-6132622D01*
X21829116Y-5969000D01*
X21733576Y-5488688D01*
X21461501Y-5081499D01*
X21054312Y-4809424D01*
X20695239Y-4738000D01*
X20452761Y-4738000D01*
X20093688Y-4809424D01*
X19686499Y-5081499D01*
X19414424Y-5488688D01*
X19318884Y-5969000D01*
X19414424Y-6449312D01*
X19620683Y-6758000D01*
X19503236Y-6758000D01*
X19193737Y-6448501D01*
X19289116Y-5969000D01*
X19193576Y-5488688D01*
X18921501Y-5081499D01*
X18514312Y-4809424D01*
X18155239Y-4738000D01*
X17912761Y-4738000D01*
X17553688Y-4809424D01*
X17146499Y-5081499D01*
X16874424Y-5488688D01*
X16778884Y-5969000D01*
X16749116Y-5969000D01*
X16653576Y-5488688D01*
X16381501Y-5081499D01*
X15974312Y-4809424D01*
X15615239Y-4738000D01*
X15372761Y-4738000D01*
X15013688Y-4809424D01*
X14606499Y-5081499D01*
X14334424Y-5488688D01*
X14238884Y-5969000D01*
X4071596Y-5969000D01*
X3997118Y-5789196D01*
X4037679Y-5825296D01*
X4370213Y-5963036D01*
X4572000Y-5903167D01*
X4572000Y-5005608D01*
X4684859Y-4892749D01*
X4618110Y-4826000D01*
X4826000Y-4826000D01*
X4826000Y-5903167D01*
X5027787Y-5963036D01*
X5486485Y-5740996D01*
X5825296Y-5360321D01*
X5956645Y-5043214D01*
X9183000Y-5043214D01*
X9183000Y-5746750D01*
X9278250Y-5842000D01*
X10287000Y-5842000D01*
X10287000Y-4833250D01*
X10541000Y-4833250D01*
X10541000Y-5842000D01*
X11549750Y-5842000D01*
X11645000Y-5746750D01*
X11645000Y-5652018D01*
X11764499Y-5652018D01*
X11824807Y-5842000D01*
X12827000Y-5842000D01*
X12827000Y-4840373D01*
X13081000Y-4840373D01*
X13081000Y-5842000D01*
X14083193Y-5842000D01*
X14143501Y-5652018D01*
X13931652Y-5220944D01*
X13570964Y-4903755D01*
X13270980Y-4779511D01*
X13081000Y-4840373D01*
X12827000Y-4840373D01*
X12637020Y-4779511D01*
X12337036Y-4903755D01*
X11976348Y-5220944D01*
X11764499Y-5652018D01*
X11645000Y-5652018D01*
X11645000Y-5043214D01*
X11586996Y-4903180D01*
X11479819Y-4796004D01*
X11339785Y-4738000D01*
X10636250Y-4738000D01*
X10541000Y-4833250D01*
X10287000Y-4833250D01*
X10191750Y-4738000D01*
X9488215Y-4738000D01*
X9348181Y-4796004D01*
X9241004Y-4903180D01*
X9183000Y-5043214D01*
X5956645Y-5043214D01*
X5963036Y-5027787D01*
X5903167Y-4826000D01*
X4826000Y-4826000D01*
X4618110Y-4826000D01*
X4505251Y-4713141D01*
X4392392Y-4826000D01*
X3494833Y-4826000D01*
X3434964Y-5027787D01*
X3617262Y-5404385D01*
X3157756Y-5214051D01*
X2648142Y-5214051D01*
X2177321Y-5409072D01*
X1816970Y-5769423D01*
X1621949Y-6240244D01*
X481000Y-6240244D01*
X481000Y-4370213D01*
X3434964Y-4370213D01*
X3494833Y-4572000D01*
X4572000Y-4572000D01*
X4572000Y-3494833D01*
X4370213Y-3434964D01*
X3911515Y-3657004D01*
X3572704Y-4037679D01*
X3434964Y-4370213D01*
X481000Y-4370213D01*
X481000Y-1539754D01*
X542199Y-1172073D01*
X700060Y-879504D01*
X944178Y-653844D01*
X1257080Y-515510D01*
X1530260Y-481000D01*
X8082855Y-481000D01*
X8057710Y-518632D01*
X8057710Y-518632D01*
G37*
X8057710Y-518632D02*
X6995304Y-1581038D01*
X6769737Y-1355471D01*
X6643710Y-1271263D01*
X6495051Y-1241693D01*
X6346392Y-1271263D01*
X6220365Y-1355471D01*
X4947573Y-2628263D01*
X4863365Y-2754290D01*
X4833795Y-2902949D01*
X4863365Y-3051608D01*
X4947573Y-3177635D01*
X5330141Y-3560203D01*
X5027787Y-3434964D01*
X4826000Y-3494833D01*
X4826000Y-4392392D01*
X4713141Y-4505251D01*
X4892749Y-4684859D01*
X5005608Y-4572000D01*
X5903167Y-4572000D01*
X5963036Y-4370213D01*
X5796861Y-4026923D01*
X6220365Y-4450427D01*
X6346392Y-4534635D01*
X6495051Y-4564205D01*
X6643710Y-4534635D01*
X6769737Y-4450427D01*
X8042529Y-3177635D01*
X8126737Y-3051608D01*
X8156307Y-2902949D01*
X8126737Y-2754290D01*
X8042529Y-2628263D01*
X7816962Y-2402696D01*
X8749658Y-1470000D01*
X17430394Y-1470000D01*
X19505761Y-3545368D01*
X19538174Y-3593877D01*
X19586683Y-3626290D01*
X19604364Y-3638104D01*
X19730356Y-3722290D01*
X19899829Y-3756000D01*
X19899833Y-3756000D01*
X19957050Y-3767381D01*
X20014267Y-3756000D01*
X25850782Y-3756000D01*
X25908000Y-3767381D01*
X25965218Y-3756000D01*
X25965222Y-3756000D01*
X26134695Y-3722290D01*
X26326877Y-3593877D01*
X26359292Y-3545365D01*
X26937443Y-2967214D01*
X30696000Y-2967214D01*
X30696000Y-4570750D01*
X30791250Y-4666000D01*
X31750000Y-4666000D01*
X31750000Y-2757250D01*
X32004000Y-2757250D01*
X32004000Y-4666000D01*
X32962750Y-4666000D01*
X33058000Y-4570750D01*
X33058000Y-2967214D01*
X32999996Y-2827180D01*
X32892819Y-2720004D01*
X32752785Y-2662000D01*
X32099250Y-2662000D01*
X32004000Y-2757250D01*
X31750000Y-2757250D01*
X31654750Y-2662000D01*
X31001215Y-2662000D01*
X30861181Y-2720004D01*
X30754004Y-2827180D01*
X30696000Y-2967214D01*
X26937443Y-2967214D01*
X28434658Y-1470000D01*
X39002343Y-1470000D01*
X39317394Y-1785051D01*
X38879244Y-1785051D01*
X38408423Y-1980072D01*
X38048072Y-2340423D01*
X37853051Y-2811244D01*
X37853051Y-3320858D01*
X38048072Y-3791679D01*
X38408423Y-4152030D01*
X38879244Y-4347051D01*
X39388858Y-4347051D01*
X39839906Y-4160220D01*
X39803806Y-4200781D01*
X39666066Y-4533315D01*
X39725935Y-4735102D01*
X40623494Y-4735102D01*
X40736353Y-4847961D01*
X40915961Y-4668353D01*
X40803102Y-4555494D01*
X40803102Y-3657935D01*
X40601315Y-3598066D01*
X40224717Y-3780364D01*
X40415051Y-3320858D01*
X40415051Y-2882708D01*
X41159806Y-3627463D01*
X41057102Y-3657935D01*
X41057102Y-4555494D01*
X40944243Y-4668353D01*
X41123851Y-4847961D01*
X41236710Y-4735102D01*
X42134269Y-4735102D01*
X42145153Y-4698416D01*
X42145154Y-5025789D01*
X42134269Y-4989102D01*
X41236710Y-4989102D01*
X41123851Y-4876243D01*
X40944243Y-5055851D01*
X41057102Y-5168710D01*
X41057102Y-6066269D01*
X41258889Y-6126138D01*
X41602179Y-5959963D01*
X41178675Y-6383467D01*
X41094467Y-6509494D01*
X41064897Y-6658153D01*
X41094467Y-6806812D01*
X41178675Y-6932839D01*
X42451467Y-8205631D01*
X42577494Y-8289839D01*
X42726153Y-8319409D01*
X42874812Y-8289839D01*
X43000839Y-8205631D01*
X43226406Y-7980064D01*
X44171052Y-8924710D01*
X44171053Y-30897225D01*
X43706858Y-30704949D01*
X43197244Y-30704949D01*
X42726423Y-30899970D01*
X42366072Y-31260321D01*
X42171051Y-31731142D01*
X42171051Y-32240756D01*
X42357882Y-32691804D01*
X42317321Y-32655704D01*
X41984787Y-32517964D01*
X41783000Y-32577833D01*
X41783000Y-33475392D01*
X41670141Y-33588251D01*
X41849749Y-33767859D01*
X41962608Y-33655000D01*
X42860167Y-33655000D01*
X42920036Y-33453213D01*
X42737738Y-33076615D01*
X43197244Y-33266949D01*
X43273395Y-33266949D01*
X42631345Y-33909000D01*
X41962608Y-33909000D01*
X41849749Y-33796141D01*
X41670141Y-33975749D01*
X41783000Y-34088608D01*
X41783000Y-34757345D01*
X41543294Y-34997051D01*
X41492316Y-34997051D01*
X41529000Y-34986167D01*
X41529000Y-34088608D01*
X41641859Y-33975749D01*
X41462251Y-33796141D01*
X41349392Y-33909000D01*
X40451833Y-33909000D01*
X40391964Y-34110787D01*
X40558139Y-34454077D01*
X40134635Y-34030573D01*
X40008608Y-33946365D01*
X39859949Y-33916795D01*
X39711290Y-33946365D01*
X39585263Y-34030573D01*
X38312471Y-35303365D01*
X38228263Y-35429392D01*
X38198693Y-35578051D01*
X38228263Y-35726710D01*
X38312471Y-35852737D01*
X38538038Y-36078304D01*
X35689636Y-38926707D01*
X35641124Y-38959122D01*
X35633868Y-38969981D01*
X35290312Y-38740424D01*
X34931239Y-38669000D01*
X34688761Y-38669000D01*
X34329688Y-38740424D01*
X33922499Y-39012499D01*
X33650424Y-39419688D01*
X33554884Y-39900000D01*
X33650424Y-40380312D01*
X33922499Y-40787501D01*
X34329688Y-41059576D01*
X34688761Y-41131000D01*
X34931239Y-41131000D01*
X35290312Y-41059576D01*
X35479002Y-40933497D01*
X35479002Y-40949341D01*
X35289637Y-41138706D01*
X35289631Y-41138710D01*
X35171542Y-41256799D01*
X34931239Y-41209000D01*
X34688761Y-41209000D01*
X34329688Y-41280424D01*
X33922499Y-41552499D01*
X33650424Y-41959688D01*
X33554884Y-42440000D01*
X33626799Y-42801543D01*
X33271595Y-43156747D01*
X33429576Y-42920312D01*
X33525116Y-42440000D01*
X33429576Y-41959688D01*
X33157501Y-41552499D01*
X32750312Y-41280424D01*
X32391239Y-41209000D01*
X32148761Y-41209000D01*
X31908457Y-41256799D01*
X31561001Y-40909344D01*
X31561001Y-40906772D01*
X31789688Y-41059576D01*
X32148761Y-41131000D01*
X32391239Y-41131000D01*
X32750312Y-41059576D01*
X33157501Y-40787501D01*
X33429576Y-40380312D01*
X33525116Y-39900000D01*
X33429576Y-39419688D01*
X33157501Y-39012499D01*
X32750312Y-38740424D01*
X32391239Y-38669000D01*
X32204000Y-38669000D01*
X32204000Y-35363785D01*
X32492280Y-35619570D01*
X32951787Y-35778527D01*
X33147000Y-35694643D01*
X33147000Y-34671000D01*
X33401000Y-34671000D01*
X33401000Y-35694643D01*
X33596213Y-35778527D01*
X34055720Y-35619570D01*
X34419419Y-35296867D01*
X34629393Y-34863118D01*
X34568712Y-34671000D01*
X33401000Y-34671000D01*
X33147000Y-34671000D01*
X33127000Y-34671000D01*
X33127000Y-34417000D01*
X33147000Y-34417000D01*
X33147000Y-33393357D01*
X33401000Y-33393357D01*
X33401000Y-34417000D01*
X34568712Y-34417000D01*
X34629393Y-34224882D01*
X34419419Y-33791133D01*
X34055720Y-33468430D01*
X34011732Y-33453213D01*
X40391964Y-33453213D01*
X40451833Y-33655000D01*
X41529000Y-33655000D01*
X41529000Y-32577833D01*
X41327213Y-32517964D01*
X40868515Y-32740004D01*
X40529704Y-33120679D01*
X40391964Y-33453213D01*
X34011732Y-33453213D01*
X33596213Y-33309473D01*
X33401000Y-33393357D01*
X33147000Y-33393357D01*
X32951787Y-33309473D01*
X32492280Y-33468430D01*
X32372933Y-33574324D01*
X32748491Y-33198767D01*
X32999019Y-33248600D01*
X33548981Y-33248600D01*
X33912019Y-33176387D01*
X34323706Y-32901306D01*
X34598787Y-32489619D01*
X34695383Y-32004000D01*
X34598787Y-31518381D01*
X34323706Y-31106694D01*
X33912019Y-30831613D01*
X33855000Y-30820271D01*
X33855000Y-30647729D01*
X33912019Y-30636387D01*
X34323706Y-30361306D01*
X34598787Y-29949619D01*
X34695383Y-29464000D01*
X34598787Y-28978381D01*
X34323706Y-28566694D01*
X33912019Y-28291613D01*
X33548981Y-28219400D01*
X32999019Y-28219400D01*
X32635981Y-28291613D01*
X32224294Y-28566694D01*
X31949213Y-28978381D01*
X31852617Y-29464000D01*
X31949213Y-29949619D01*
X32224294Y-30361306D01*
X32635981Y-30636387D01*
X32693000Y-30647729D01*
X32693001Y-30820271D01*
X32635981Y-30831613D01*
X32224294Y-31106694D01*
X31949213Y-31518381D01*
X31852617Y-32004000D01*
X31926833Y-32377109D01*
X31252633Y-33051310D01*
X31224659Y-33070002D01*
X28975000Y-30820343D01*
X28975000Y-30705649D01*
X28856100Y-30418599D01*
X28636401Y-30198900D01*
X28349351Y-30080000D01*
X28038649Y-30080000D01*
X27751599Y-30198900D01*
X27531900Y-30418599D01*
X27413000Y-30705649D01*
X27413000Y-31016351D01*
X27531900Y-31303401D01*
X27751599Y-31523100D01*
X28038649Y-31642000D01*
X28153343Y-31642000D01*
X30399002Y-33887660D01*
X30399001Y-38880517D01*
X30346964Y-38834755D01*
X30046980Y-38710511D01*
X29857000Y-38771373D01*
X29857000Y-39773000D01*
X29877000Y-39773000D01*
X29877000Y-40027000D01*
X29857000Y-40027000D01*
X29857000Y-41028627D01*
X30046980Y-41089489D01*
X30346964Y-40965245D01*
X30399001Y-40919484D01*
X30399001Y-41092783D01*
X30387620Y-41150001D01*
X30399001Y-41207219D01*
X30399001Y-41207222D01*
X30432711Y-41376695D01*
X30551742Y-41554837D01*
X30346964Y-41374755D01*
X30046980Y-41250511D01*
X29857000Y-41311373D01*
X29857000Y-42313000D01*
X30859193Y-42313000D01*
X30919501Y-42123018D01*
X30714769Y-41706427D01*
X31086799Y-42078457D01*
X31014884Y-42440000D01*
X31110424Y-42920312D01*
X31382499Y-43327501D01*
X31789688Y-43599576D01*
X32148761Y-43671000D01*
X32391239Y-43671000D01*
X32750312Y-43599576D01*
X32986747Y-43441595D01*
X31532334Y-44896009D01*
X5997669Y-44896009D01*
X3763910Y-42662250D01*
X5639000Y-42662250D01*
X5639000Y-43365786D01*
X5697004Y-43505820D01*
X5804181Y-43612996D01*
X5944215Y-43671000D01*
X6647750Y-43671000D01*
X6743000Y-43575750D01*
X6743000Y-42567000D01*
X6997000Y-42567000D01*
X6997000Y-43575750D01*
X7092250Y-43671000D01*
X7795785Y-43671000D01*
X7935819Y-43612996D01*
X8042996Y-43505820D01*
X8101000Y-43365786D01*
X8101000Y-42662250D01*
X8005750Y-42567000D01*
X6997000Y-42567000D01*
X6743000Y-42567000D01*
X5734250Y-42567000D01*
X5639000Y-42662250D01*
X3763910Y-42662250D01*
X3541660Y-42440000D01*
X8154884Y-42440000D01*
X8250424Y-42920312D01*
X8522499Y-43327501D01*
X8929688Y-43599576D01*
X9288761Y-43671000D01*
X9531239Y-43671000D01*
X9890312Y-43599576D01*
X10297501Y-43327501D01*
X10569576Y-42920312D01*
X10665116Y-42440000D01*
X10694884Y-42440000D01*
X10790424Y-42920312D01*
X11062499Y-43327501D01*
X11469688Y-43599576D01*
X11828761Y-43671000D01*
X12071239Y-43671000D01*
X12430312Y-43599576D01*
X12837501Y-43327501D01*
X13109576Y-42920312D01*
X13205116Y-42440000D01*
X13109576Y-41959688D01*
X12837501Y-41552499D01*
X12430312Y-41280424D01*
X12071239Y-41209000D01*
X11828761Y-41209000D01*
X11469688Y-41280424D01*
X11062499Y-41552499D01*
X10790424Y-41959688D01*
X10694884Y-42440000D01*
X10665116Y-42440000D01*
X10569576Y-41959688D01*
X10297501Y-41552499D01*
X9890312Y-41280424D01*
X9531239Y-41209000D01*
X9288761Y-41209000D01*
X8929688Y-41280424D01*
X8522499Y-41552499D01*
X8250424Y-41959688D01*
X8154884Y-42440000D01*
X3541660Y-42440000D01*
X2615874Y-41514214D01*
X5639000Y-41514214D01*
X5639000Y-42217750D01*
X5734250Y-42313000D01*
X6743000Y-42313000D01*
X6743000Y-41304250D01*
X6997000Y-41304250D01*
X6997000Y-42313000D01*
X8005750Y-42313000D01*
X8101000Y-42217750D01*
X8101000Y-41514214D01*
X8042996Y-41374180D01*
X7935819Y-41267004D01*
X7795785Y-41209000D01*
X7092250Y-41209000D01*
X6997000Y-41304250D01*
X6743000Y-41304250D01*
X6647750Y-41209000D01*
X5944215Y-41209000D01*
X5804181Y-41267004D01*
X5697004Y-41374180D01*
X5639000Y-41514214D01*
X2615874Y-41514214D01*
X1318642Y-40216982D01*
X5680499Y-40216982D01*
X5892348Y-40648056D01*
X6253036Y-40965245D01*
X6553020Y-41089489D01*
X6743000Y-41028627D01*
X6743000Y-40027000D01*
X6997000Y-40027000D01*
X6997000Y-41028627D01*
X7186980Y-41089489D01*
X7486964Y-40965245D01*
X7847652Y-40648056D01*
X8059501Y-40216982D01*
X7999193Y-40027000D01*
X6997000Y-40027000D01*
X6743000Y-40027000D01*
X5740807Y-40027000D01*
X5680499Y-40216982D01*
X1318642Y-40216982D01*
X1216000Y-40114341D01*
X1216000Y-39900000D01*
X8154884Y-39900000D01*
X8250424Y-40380312D01*
X8522499Y-40787501D01*
X8929688Y-41059576D01*
X9288761Y-41131000D01*
X9531239Y-41131000D01*
X9890312Y-41059576D01*
X10297501Y-40787501D01*
X10569576Y-40380312D01*
X10665116Y-39900000D01*
X10569576Y-39419688D01*
X10297501Y-39012499D01*
X9890312Y-38740424D01*
X9531239Y-38669000D01*
X9288761Y-38669000D01*
X8929688Y-38740424D01*
X8522499Y-39012499D01*
X8250424Y-39419688D01*
X8154884Y-39900000D01*
X1216000Y-39900000D01*
X1216000Y-39583018D01*
X5680499Y-39583018D01*
X5740807Y-39773000D01*
X6743000Y-39773000D01*
X6743000Y-38771373D01*
X6997000Y-38771373D01*
X6997000Y-39773000D01*
X7999193Y-39773000D01*
X8059501Y-39583018D01*
X7847652Y-39151944D01*
X7486964Y-38834755D01*
X7186980Y-38710511D01*
X6997000Y-38771373D01*
X6743000Y-38771373D01*
X6553020Y-38710511D01*
X6253036Y-38834755D01*
X5892348Y-39151944D01*
X5680499Y-39583018D01*
X1216000Y-39583018D01*
X1216000Y-34113555D01*
X1599768Y-33729787D01*
X3434964Y-33729787D01*
X3657004Y-34188485D01*
X4037679Y-34527296D01*
X4370213Y-34665036D01*
X4572000Y-34605167D01*
X4572000Y-33594749D01*
X4713141Y-33594749D01*
X4826000Y-33707608D01*
X4826000Y-34605167D01*
X5027787Y-34665036D01*
X5404385Y-34482738D01*
X5214051Y-34942244D01*
X5214051Y-35451858D01*
X5409072Y-35922679D01*
X5769423Y-36283030D01*
X6240244Y-36478051D01*
X6749858Y-36478051D01*
X7220679Y-36283030D01*
X7581030Y-35922679D01*
X7776051Y-35451858D01*
X7776051Y-34942244D01*
X7581030Y-34471423D01*
X7220679Y-34111072D01*
X6749858Y-33916051D01*
X6240244Y-33916051D01*
X5789196Y-34102882D01*
X5825296Y-34062321D01*
X5963036Y-33729787D01*
X5903167Y-33528000D01*
X5005608Y-33528000D01*
X4892749Y-33415141D01*
X4713141Y-33594749D01*
X4572000Y-33594749D01*
X4572000Y-33528000D01*
X3494833Y-33528000D01*
X3434964Y-33729787D01*
X1599768Y-33729787D01*
X2402696Y-32926860D01*
X2628263Y-33152427D01*
X2754290Y-33236635D01*
X2902949Y-33266205D01*
X3051608Y-33236635D01*
X3177635Y-33152427D01*
X3560203Y-32769859D01*
X3434964Y-33072213D01*
X3494833Y-33274000D01*
X4392392Y-33274000D01*
X4505251Y-33386859D01*
X4684859Y-33207251D01*
X4572000Y-33094392D01*
X4572000Y-32196833D01*
X4826000Y-32196833D01*
X4826000Y-33274000D01*
X5903167Y-33274000D01*
X5963036Y-33072213D01*
X5740996Y-32613515D01*
X5360321Y-32274704D01*
X5027787Y-32136964D01*
X4826000Y-32196833D01*
X4572000Y-32196833D01*
X4370213Y-32136964D01*
X4026923Y-32303139D01*
X4227413Y-32102649D01*
X9505998Y-32102649D01*
X9505998Y-32413351D01*
X9624898Y-32700401D01*
X9844597Y-32920100D01*
X10131647Y-33039000D01*
X10246340Y-33039000D01*
X10316630Y-33109290D01*
X10316633Y-33109292D01*
X14026708Y-36819368D01*
X14059121Y-36867877D01*
X14107630Y-36900290D01*
X14107631Y-36900291D01*
X14251303Y-36996290D01*
X14420776Y-37030000D01*
X14420779Y-37030000D01*
X14477997Y-37041381D01*
X14535215Y-37030000D01*
X19669497Y-37030000D01*
X19750597Y-37111100D01*
X20037647Y-37230000D01*
X20348349Y-37230000D01*
X20484837Y-37173465D01*
X20166302Y-37492000D01*
X14870405Y-37492000D01*
X14823037Y-37482578D01*
X14775669Y-37492000D01*
X14775665Y-37492000D01*
X14635361Y-37519908D01*
X14476257Y-37626219D01*
X14449422Y-37666380D01*
X13106377Y-39009425D01*
X13066219Y-39036258D01*
X13039386Y-39076416D01*
X13039383Y-39076419D01*
X12959907Y-39195363D01*
X12959856Y-39195617D01*
X12837501Y-39012499D01*
X12430312Y-38740424D01*
X12071239Y-38669000D01*
X11828761Y-38669000D01*
X11469688Y-38740424D01*
X11062499Y-39012499D01*
X10790424Y-39419688D01*
X10694884Y-39900000D01*
X10790424Y-40380312D01*
X11062499Y-40787501D01*
X11469688Y-41059576D01*
X11828761Y-41131000D01*
X12071239Y-41131000D01*
X12430312Y-41059576D01*
X12837501Y-40787501D01*
X12931999Y-40646074D01*
X12931999Y-41315630D01*
X12922577Y-41362999D01*
X12931999Y-41410368D01*
X12931999Y-41410371D01*
X12959907Y-41550675D01*
X13066218Y-41709780D01*
X13106379Y-41736615D01*
X13330263Y-41960499D01*
X13234884Y-42440000D01*
X13330424Y-42920312D01*
X13602499Y-43327501D01*
X14009688Y-43599576D01*
X14368761Y-43671000D01*
X14611239Y-43671000D01*
X14970312Y-43599576D01*
X15377501Y-43327501D01*
X15649576Y-42920312D01*
X15745116Y-42440000D01*
X15774884Y-42440000D01*
X15870424Y-42920312D01*
X16142499Y-43327501D01*
X16549688Y-43599576D01*
X16908761Y-43671000D01*
X17151239Y-43671000D01*
X17510312Y-43599576D01*
X17917501Y-43327501D01*
X18189576Y-42920312D01*
X18285116Y-42440000D01*
X18314884Y-42440000D01*
X18410424Y-42920312D01*
X18682499Y-43327501D01*
X19089688Y-43599576D01*
X19448761Y-43671000D01*
X19691239Y-43671000D01*
X20050312Y-43599576D01*
X20457501Y-43327501D01*
X20729576Y-42920312D01*
X20825116Y-42440000D01*
X20854884Y-42440000D01*
X20950424Y-42920312D01*
X21222499Y-43327501D01*
X21629688Y-43599576D01*
X21988761Y-43671000D01*
X22231239Y-43671000D01*
X22590312Y-43599576D01*
X22997501Y-43327501D01*
X23269576Y-42920312D01*
X23365116Y-42440000D01*
X23394884Y-42440000D01*
X23490424Y-42920312D01*
X23762499Y-43327501D01*
X24169688Y-43599576D01*
X24528761Y-43671000D01*
X24771239Y-43671000D01*
X25130312Y-43599576D01*
X25537501Y-43327501D01*
X25809576Y-42920312D01*
X25905116Y-42440000D01*
X25934884Y-42440000D01*
X26030424Y-42920312D01*
X26302499Y-43327501D01*
X26709688Y-43599576D01*
X27068761Y-43671000D01*
X27311239Y-43671000D01*
X27670312Y-43599576D01*
X28077501Y-43327501D01*
X28349576Y-42920312D01*
X28382064Y-42756982D01*
X28540499Y-42756982D01*
X28752348Y-43188056D01*
X29113036Y-43505245D01*
X29413020Y-43629489D01*
X29603000Y-43568627D01*
X29603000Y-42567000D01*
X29857000Y-42567000D01*
X29857000Y-43568627D01*
X30046980Y-43629489D01*
X30346964Y-43505245D01*
X30707652Y-43188056D01*
X30919501Y-42756982D01*
X30859193Y-42567000D01*
X29857000Y-42567000D01*
X29603000Y-42567000D01*
X28600807Y-42567000D01*
X28540499Y-42756982D01*
X28382064Y-42756982D01*
X28445116Y-42440000D01*
X28382065Y-42123018D01*
X28540499Y-42123018D01*
X28600807Y-42313000D01*
X29603000Y-42313000D01*
X29603000Y-41311373D01*
X29413020Y-41250511D01*
X29113036Y-41374755D01*
X28752348Y-41691944D01*
X28540499Y-42123018D01*
X28382065Y-42123018D01*
X28349576Y-41959688D01*
X28077501Y-41552499D01*
X27670312Y-41280424D01*
X27311239Y-41209000D01*
X27068761Y-41209000D01*
X26709688Y-41280424D01*
X26302499Y-41552499D01*
X26030424Y-41959688D01*
X25934884Y-42440000D01*
X25905116Y-42440000D01*
X25809576Y-41959688D01*
X25537501Y-41552499D01*
X25130312Y-41280424D01*
X24771239Y-41209000D01*
X24528761Y-41209000D01*
X24169688Y-41280424D01*
X23762499Y-41552499D01*
X23490424Y-41959688D01*
X23394884Y-42440000D01*
X23365116Y-42440000D01*
X23269576Y-41959688D01*
X22997501Y-41552499D01*
X22590312Y-41280424D01*
X22231239Y-41209000D01*
X21988761Y-41209000D01*
X21629688Y-41280424D01*
X21222499Y-41552499D01*
X20950424Y-41959688D01*
X20854884Y-42440000D01*
X20825116Y-42440000D01*
X20729576Y-41959688D01*
X20457501Y-41552499D01*
X20050312Y-41280424D01*
X19691239Y-41209000D01*
X19448761Y-41209000D01*
X19089688Y-41280424D01*
X18682499Y-41552499D01*
X18410424Y-41959688D01*
X18314884Y-42440000D01*
X18285116Y-42440000D01*
X18189576Y-41959688D01*
X17917501Y-41552499D01*
X17510312Y-41280424D01*
X17151239Y-41209000D01*
X16908761Y-41209000D01*
X16549688Y-41280424D01*
X16142499Y-41552499D01*
X15870424Y-41959688D01*
X15774884Y-42440000D01*
X15745116Y-42440000D01*
X15649576Y-41959688D01*
X15377501Y-41552499D01*
X14970312Y-41280424D01*
X14611239Y-41209000D01*
X14368761Y-41209000D01*
X14010499Y-41280263D01*
X13893999Y-41163763D01*
X13893999Y-40982275D01*
X14009688Y-41059576D01*
X14368761Y-41131000D01*
X14611239Y-41131000D01*
X14970312Y-41059576D01*
X15377501Y-40787501D01*
X15649576Y-40380312D01*
X15745116Y-39900000D01*
X15649737Y-39420499D01*
X16289226Y-38781011D01*
X16488945Y-38781011D01*
X16142499Y-39012499D01*
X15870424Y-39419688D01*
X15774884Y-39900000D01*
X15870424Y-40380312D01*
X16142499Y-40787501D01*
X16549688Y-41059576D01*
X16908761Y-41131000D01*
X17151239Y-41131000D01*
X17510312Y-41059576D01*
X17917501Y-40787501D01*
X18189576Y-40380312D01*
X18285116Y-39900000D01*
X18189576Y-39419688D01*
X17917501Y-39012499D01*
X17571055Y-38781011D01*
X19028945Y-38781011D01*
X18682499Y-39012499D01*
X18410424Y-39419688D01*
X18314884Y-39900000D01*
X18410424Y-40380312D01*
X18682499Y-40787501D01*
X19089688Y-41059576D01*
X19448761Y-41131000D01*
X19691239Y-41131000D01*
X20050312Y-41059576D01*
X20457501Y-40787501D01*
X20729576Y-40380312D01*
X20825116Y-39900000D01*
X20854884Y-39900000D01*
X20950424Y-40380312D01*
X21222499Y-40787501D01*
X21629688Y-41059576D01*
X21988761Y-41131000D01*
X22231239Y-41131000D01*
X22590312Y-41059576D01*
X22997501Y-40787501D01*
X23269576Y-40380312D01*
X23365116Y-39900000D01*
X23394884Y-39900000D01*
X23490424Y-40380312D01*
X23762499Y-40787501D01*
X24169688Y-41059576D01*
X24528761Y-41131000D01*
X24771239Y-41131000D01*
X25130312Y-41059576D01*
X25537501Y-40787501D01*
X25809576Y-40380312D01*
X25905116Y-39900000D01*
X25934884Y-39900000D01*
X26030424Y-40380312D01*
X26302499Y-40787501D01*
X26709688Y-41059576D01*
X27068761Y-41131000D01*
X27311239Y-41131000D01*
X27670312Y-41059576D01*
X28077501Y-40787501D01*
X28349576Y-40380312D01*
X28382064Y-40216982D01*
X28540499Y-40216982D01*
X28752348Y-40648056D01*
X29113036Y-40965245D01*
X29413020Y-41089489D01*
X29603000Y-41028627D01*
X29603000Y-40027000D01*
X28600807Y-40027000D01*
X28540499Y-40216982D01*
X28382064Y-40216982D01*
X28445116Y-39900000D01*
X28382065Y-39583018D01*
X28540499Y-39583018D01*
X28600807Y-39773000D01*
X29603000Y-39773000D01*
X29603000Y-38771373D01*
X29413020Y-38710511D01*
X29113036Y-38834755D01*
X28752348Y-39151944D01*
X28540499Y-39583018D01*
X28382065Y-39583018D01*
X28349576Y-39419688D01*
X28077501Y-39012499D01*
X27670312Y-38740424D01*
X27311239Y-38669000D01*
X27068761Y-38669000D01*
X26709688Y-38740424D01*
X26302499Y-39012499D01*
X26030424Y-39419688D01*
X25934884Y-39900000D01*
X25905116Y-39900000D01*
X25809576Y-39419688D01*
X25537501Y-39012499D01*
X25130312Y-38740424D01*
X24771239Y-38669000D01*
X24528761Y-38669000D01*
X24169688Y-38740424D01*
X23762499Y-39012499D01*
X23490424Y-39419688D01*
X23394884Y-39900000D01*
X23365116Y-39900000D01*
X23269576Y-39419688D01*
X22997501Y-39012499D01*
X22590312Y-38740424D01*
X22231239Y-38669000D01*
X21988761Y-38669000D01*
X21629688Y-38740424D01*
X21222499Y-39012499D01*
X20950424Y-39419688D01*
X20854884Y-39900000D01*
X20825116Y-39900000D01*
X20729576Y-39419688D01*
X20457501Y-39012499D01*
X20111055Y-38781011D01*
X20453621Y-38781011D01*
X20500990Y-38790433D01*
X20548359Y-38781011D01*
X20548363Y-38781011D01*
X20688667Y-38753103D01*
X20847771Y-38646792D01*
X20874606Y-38606631D01*
X25198623Y-34282615D01*
X25238781Y-34255782D01*
X25265614Y-34215624D01*
X25265616Y-34215622D01*
X25345092Y-34096678D01*
X25351926Y-34062321D01*
X25373000Y-33956374D01*
X25373000Y-33956370D01*
X25382422Y-33909001D01*
X25373000Y-33861632D01*
X25373000Y-30506698D01*
X29819298Y-26060400D01*
X31869536Y-26060400D01*
X31869536Y-27787600D01*
X31899106Y-27936259D01*
X31983314Y-28062286D01*
X32109341Y-28146494D01*
X32258000Y-28176064D01*
X34290000Y-28176064D01*
X34438659Y-28146494D01*
X34564686Y-28062286D01*
X34648894Y-27936259D01*
X34678464Y-27787600D01*
X34678464Y-26060400D01*
X34648894Y-25911741D01*
X34564686Y-25785714D01*
X34438659Y-25701506D01*
X34290000Y-25671936D01*
X32258000Y-25671936D01*
X32109341Y-25701506D01*
X31983314Y-25785714D01*
X31899106Y-25911741D01*
X31869536Y-26060400D01*
X29819298Y-26060400D01*
X31167623Y-24712076D01*
X31207781Y-24685243D01*
X31234614Y-24645085D01*
X31234616Y-24645083D01*
X31314092Y-24526139D01*
X31330662Y-24442834D01*
X31342000Y-24385835D01*
X31342000Y-24385831D01*
X31351422Y-24338462D01*
X31342000Y-24291093D01*
X31342000Y-24118507D01*
X31523100Y-23937407D01*
X31642000Y-23650357D01*
X31642000Y-23339655D01*
X31523100Y-23052605D01*
X31303401Y-22832906D01*
X31016351Y-22714006D01*
X30705649Y-22714006D01*
X30418599Y-22832906D01*
X30198900Y-23052605D01*
X30080000Y-23339655D01*
X30080000Y-23355213D01*
X29934329Y-23355213D01*
X29647279Y-23474113D01*
X29427580Y-23693812D01*
X29308680Y-23980862D01*
X29308680Y-24236976D01*
X24258367Y-29287290D01*
X24218209Y-29314123D01*
X24191376Y-29354281D01*
X24191373Y-29354284D01*
X24111897Y-29473228D01*
X24074567Y-29660904D01*
X24083990Y-29708278D01*
X24083989Y-33574312D01*
X21990000Y-35668302D01*
X21990000Y-35404649D01*
X21871100Y-35117599D01*
X21651401Y-34897900D01*
X21364351Y-34779000D01*
X21053649Y-34779000D01*
X20766599Y-34897900D01*
X20685499Y-34979000D01*
X17766659Y-34979000D01*
X14116000Y-31328343D01*
X14116000Y-31213649D01*
X13997100Y-30926599D01*
X13777401Y-30706900D01*
X13490351Y-30588000D01*
X13179649Y-30588000D01*
X12892599Y-30706900D01*
X12672900Y-30926599D01*
X12554000Y-31213649D01*
X12554000Y-31524351D01*
X12672900Y-31811401D01*
X12892599Y-32031100D01*
X13179649Y-32150000D01*
X13294343Y-32150000D01*
X17012341Y-35868000D01*
X14718656Y-35868000D01*
X11138290Y-32287635D01*
X11138288Y-32287632D01*
X11067998Y-32217342D01*
X11067998Y-32102649D01*
X10949098Y-31815599D01*
X10729399Y-31595900D01*
X10442349Y-31477000D01*
X10131647Y-31477000D01*
X9844597Y-31595900D01*
X9624898Y-31815599D01*
X9505998Y-32102649D01*
X4227413Y-32102649D01*
X4450427Y-31879635D01*
X4534635Y-31753608D01*
X4564205Y-31604949D01*
X4534635Y-31456290D01*
X4450427Y-31330263D01*
X3177635Y-30057471D01*
X3051608Y-29973263D01*
X2902949Y-29943693D01*
X2754290Y-29973263D01*
X2628263Y-30057471D01*
X1355471Y-31330263D01*
X1271263Y-31456290D01*
X1241693Y-31604949D01*
X1271263Y-31753608D01*
X1355471Y-31879635D01*
X1581038Y-32105202D01*
X481000Y-33205241D01*
X481000Y-17519610D01*
X785609Y-17519610D01*
X796991Y-17576833D01*
X796990Y-21924940D01*
X785609Y-21982158D01*
X796990Y-22039376D01*
X796990Y-22039379D01*
X830700Y-22208852D01*
X959113Y-22401035D01*
X1007625Y-22433450D01*
X1357423Y-22783248D01*
X1249147Y-23044649D01*
X1249147Y-23355351D01*
X1368047Y-23642401D01*
X1587746Y-23862100D01*
X1874796Y-23981000D01*
X2185498Y-23981000D01*
X2472548Y-23862100D01*
X2692247Y-23642401D01*
X2811147Y-23355351D01*
X2811147Y-23044649D01*
X2692247Y-22757599D01*
X2613641Y-22678993D01*
X2622528Y-22634314D01*
X2611147Y-22577097D01*
X2611147Y-22577093D01*
X2598970Y-22515876D01*
X2667000Y-22486643D01*
X2667000Y-21463000D01*
X2921000Y-21463000D01*
X2921000Y-22486643D01*
X3116213Y-22570527D01*
X3575720Y-22411570D01*
X3939419Y-22088867D01*
X4131402Y-21692282D01*
X15530436Y-21692282D01*
X15579157Y-21835809D01*
X16479157Y-23394655D01*
X16579095Y-23508612D01*
X16715035Y-23575650D01*
X16866282Y-23585564D01*
X17009809Y-23536843D01*
X17547952Y-23226146D01*
X17329021Y-23445077D01*
X17134000Y-23915898D01*
X17134000Y-24425512D01*
X17329021Y-24896333D01*
X17689372Y-25256684D01*
X18160193Y-25451705D01*
X18669807Y-25451705D01*
X19140628Y-25256684D01*
X19345607Y-25051705D01*
X19614784Y-25051705D01*
X20301536Y-25738458D01*
X20301536Y-26681000D01*
X20331106Y-26829659D01*
X20415314Y-26955686D01*
X20541341Y-27039894D01*
X20690000Y-27069464D01*
X22490000Y-27069464D01*
X22638659Y-27039894D01*
X22764686Y-26955686D01*
X22848894Y-26829659D01*
X22878464Y-26681000D01*
X22878464Y-26106939D01*
X23044021Y-26506628D01*
X23404372Y-26866979D01*
X23875193Y-27062000D01*
X24384807Y-27062000D01*
X24855628Y-26866979D01*
X25215979Y-26506628D01*
X25411000Y-26035807D01*
X25411000Y-25745922D01*
X25591606Y-25565315D01*
X25665164Y-25516166D01*
X25859882Y-25224750D01*
X25910999Y-24967768D01*
X25910999Y-24967767D01*
X25928258Y-24881001D01*
X25910999Y-24794234D01*
X25910999Y-23923964D01*
X27440191Y-24806843D01*
X27583718Y-24855564D01*
X27734965Y-24845650D01*
X27870905Y-24778612D01*
X27970843Y-24664655D01*
X28870843Y-23105809D01*
X28919564Y-22962282D01*
X28909650Y-22811035D01*
X28842612Y-22675095D01*
X28728655Y-22575157D01*
X28215762Y-22279038D01*
X28320193Y-22322295D01*
X28829807Y-22322295D01*
X29300628Y-22127274D01*
X29660979Y-21766923D01*
X29856000Y-21296102D01*
X29856000Y-20786488D01*
X29660979Y-20315667D01*
X29456000Y-20110688D01*
X29456000Y-19140145D01*
X29998655Y-18826843D01*
X30112612Y-18726905D01*
X30179650Y-18590965D01*
X30189564Y-18439718D01*
X30140843Y-18296191D01*
X29240843Y-16737345D01*
X29140905Y-16623388D01*
X29004965Y-16556350D01*
X28853718Y-16546436D01*
X28710191Y-16595157D01*
X28172048Y-16905854D01*
X28390979Y-16686923D01*
X28586000Y-16216102D01*
X28586000Y-15706488D01*
X28390979Y-15235667D01*
X28030628Y-14875316D01*
X27559807Y-14680295D01*
X27050193Y-14680295D01*
X26579372Y-14875316D01*
X26219021Y-15235667D01*
X26024000Y-15706488D01*
X26024000Y-15996373D01*
X24105374Y-17915000D01*
X23790607Y-17915000D01*
X23585628Y-17710021D01*
X23114807Y-17515000D01*
X22843949Y-17515000D01*
X22568749Y-17331117D01*
X22311767Y-17280000D01*
X22311763Y-17280000D01*
X22225000Y-17262742D01*
X22138237Y-17280000D01*
X19141436Y-17280000D01*
X19980843Y-15826104D01*
X20029564Y-15682577D01*
X20024032Y-15598184D01*
X20390217Y-15232000D01*
X20659393Y-15232000D01*
X20864372Y-15436979D01*
X21335193Y-15632000D01*
X21844807Y-15632000D01*
X22315628Y-15436979D01*
X22675979Y-15076628D01*
X22841536Y-14676939D01*
X22841536Y-15251000D01*
X22871106Y-15399659D01*
X22955314Y-15525686D01*
X23081341Y-15609894D01*
X23230000Y-15639464D01*
X25030000Y-15639464D01*
X25178659Y-15609894D01*
X25304686Y-15525686D01*
X25388894Y-15399659D01*
X25418464Y-15251000D01*
X25418464Y-13451000D01*
X25388894Y-13302341D01*
X25304686Y-13176314D01*
X25178659Y-13092106D01*
X25030000Y-13062536D01*
X23230000Y-13062536D01*
X23081341Y-13092106D01*
X22955314Y-13176314D01*
X22871106Y-13302341D01*
X22841536Y-13451000D01*
X22841536Y-14025061D01*
X22675979Y-13625372D01*
X22315628Y-13265021D01*
X21844807Y-13070000D01*
X21335193Y-13070000D01*
X20864372Y-13265021D01*
X20659393Y-13470000D01*
X20112057Y-13470000D01*
X20025294Y-13452742D01*
X19938531Y-13470000D01*
X19938528Y-13470000D01*
X19681546Y-13521117D01*
X19390130Y-13715835D01*
X19340980Y-13789393D01*
X18568339Y-14562035D01*
X18279809Y-14395452D01*
X18136282Y-14346731D01*
X17985035Y-14356645D01*
X17849095Y-14423683D01*
X17749157Y-14537640D01*
X16849157Y-16096486D01*
X16800436Y-16240013D01*
X16810350Y-16391260D01*
X16877388Y-16527200D01*
X16991345Y-16627138D01*
X17504238Y-16923257D01*
X17399807Y-16880000D01*
X16890193Y-16880000D01*
X16419372Y-17075021D01*
X16059021Y-17435372D01*
X15864000Y-17906193D01*
X15864000Y-18415807D01*
X16059021Y-18886628D01*
X16419372Y-19246979D01*
X16890193Y-19442000D01*
X17399807Y-19442000D01*
X17870628Y-19246979D01*
X18075607Y-19042000D01*
X21579000Y-19042000D01*
X21579000Y-19050807D01*
X21774021Y-19521628D01*
X22134372Y-19881979D01*
X22534061Y-20047536D01*
X21960000Y-20047536D01*
X21811341Y-20077106D01*
X21685314Y-20161314D01*
X21601106Y-20287341D01*
X21571536Y-20436000D01*
X21571536Y-22236000D01*
X21601106Y-22384659D01*
X21685314Y-22510686D01*
X21811341Y-22594894D01*
X21960000Y-22624464D01*
X23760000Y-22624464D01*
X23908659Y-22594894D01*
X24034686Y-22510686D01*
X24118894Y-22384659D01*
X24148464Y-22236000D01*
X24148464Y-20436000D01*
X24118894Y-20287341D01*
X24034686Y-20161314D01*
X23908659Y-20077106D01*
X23760000Y-20047536D01*
X23185939Y-20047536D01*
X23585628Y-19881979D01*
X23790607Y-19677000D01*
X24105374Y-19677000D01*
X24149000Y-19720626D01*
X24148999Y-24500000D01*
X23875193Y-24500000D01*
X23404372Y-24695021D01*
X23044021Y-25055372D01*
X22878464Y-25455061D01*
X22878464Y-24881000D01*
X22848894Y-24732341D01*
X22764686Y-24606314D01*
X22638659Y-24522106D01*
X22490000Y-24492536D01*
X21547458Y-24492536D01*
X20664022Y-23609100D01*
X20614870Y-23535540D01*
X20323454Y-23340822D01*
X20066472Y-23289705D01*
X20066468Y-23289705D01*
X19979705Y-23272447D01*
X19892942Y-23289705D01*
X19345607Y-23289705D01*
X19140628Y-23084726D01*
X18669807Y-22889705D01*
X18160193Y-22889705D01*
X18055762Y-22932962D01*
X18568655Y-22636843D01*
X18682612Y-22536905D01*
X18749650Y-22400965D01*
X18759564Y-22249718D01*
X18710843Y-22106191D01*
X17810843Y-20547345D01*
X17710905Y-20433388D01*
X17574965Y-20366350D01*
X17423718Y-20356436D01*
X17280191Y-20405157D01*
X15721345Y-21305157D01*
X15607388Y-21405095D01*
X15540350Y-21541035D01*
X15530436Y-21692282D01*
X4131402Y-21692282D01*
X4149393Y-21655118D01*
X4088712Y-21463000D01*
X2921000Y-21463000D01*
X2667000Y-21463000D01*
X2647000Y-21463000D01*
X2647000Y-21209000D01*
X2667000Y-21209000D01*
X2667000Y-20185357D01*
X2921000Y-20185357D01*
X2921000Y-21209000D01*
X4088712Y-21209000D01*
X4149393Y-21016882D01*
X3939419Y-20583133D01*
X3575720Y-20260430D01*
X3116213Y-20101473D01*
X2921000Y-20185357D01*
X2667000Y-20185357D01*
X2471787Y-20101473D01*
X2012280Y-20260430D01*
X1958990Y-20307713D01*
X1958990Y-19836762D01*
X2155981Y-19968387D01*
X2519019Y-20040600D01*
X3068981Y-20040600D01*
X3432019Y-19968387D01*
X3843706Y-19693306D01*
X4118787Y-19281619D01*
X4215383Y-18796000D01*
X4118787Y-18310381D01*
X3843706Y-17898694D01*
X3432019Y-17623613D01*
X3068981Y-17551400D01*
X2519019Y-17551400D01*
X2155981Y-17623613D01*
X1974145Y-17745112D01*
X2211193Y-17508064D01*
X3810000Y-17508064D01*
X3958659Y-17478494D01*
X4084686Y-17394286D01*
X4168894Y-17268259D01*
X4198464Y-17119600D01*
X4198464Y-15392400D01*
X4168894Y-15243741D01*
X4084686Y-15117714D01*
X3958659Y-15033506D01*
X3810000Y-15003936D01*
X1778000Y-15003936D01*
X1629341Y-15033506D01*
X1503314Y-15117714D01*
X1419106Y-15243741D01*
X1389536Y-15392400D01*
X1389536Y-16686407D01*
X1007623Y-17068320D01*
X959114Y-17100733D01*
X926701Y-17149242D01*
X926699Y-17149244D01*
X830700Y-17292916D01*
X785609Y-17519610D01*
X481000Y-17519610D01*
X481000Y-6240244D01*
X1621949Y-6240244D01*
X1621949Y-6749858D01*
X1816970Y-7220679D01*
X2177321Y-7581030D01*
X2648142Y-7776051D01*
X3157756Y-7776051D01*
X3628577Y-7581030D01*
X3988928Y-7220679D01*
X4183949Y-6749858D01*
X4183949Y-6240244D01*
X4163655Y-6191250D01*
X9183000Y-6191250D01*
X9183000Y-6894786D01*
X9241004Y-7034820D01*
X9348181Y-7141996D01*
X9488215Y-7200000D01*
X10191750Y-7200000D01*
X10287000Y-7104750D01*
X10287000Y-6096000D01*
X10541000Y-6096000D01*
X10541000Y-7104750D01*
X10636250Y-7200000D01*
X11339785Y-7200000D01*
X11479819Y-7141996D01*
X11586996Y-7034820D01*
X11645000Y-6894786D01*
X11645000Y-6285982D01*
X11764499Y-6285982D01*
X11976348Y-6717056D01*
X12337036Y-7034245D01*
X12637020Y-7158489D01*
X12827000Y-7097627D01*
X12827000Y-6096000D01*
X13081000Y-6096000D01*
X13081000Y-7097627D01*
X13270980Y-7158489D01*
X13570964Y-7034245D01*
X13931652Y-6717056D01*
X14143501Y-6285982D01*
X14083193Y-6096000D01*
X13081000Y-6096000D01*
X12827000Y-6096000D01*
X11824807Y-6096000D01*
X11764499Y-6285982D01*
X11645000Y-6285982D01*
X11645000Y-6191250D01*
X11549750Y-6096000D01*
X10541000Y-6096000D01*
X10287000Y-6096000D01*
X9278250Y-6096000D01*
X9183000Y-6191250D01*
X4163655Y-6191250D01*
X4071596Y-5969000D01*
X14238884Y-5969000D01*
X14334424Y-6449312D01*
X14606499Y-6856501D01*
X15013688Y-7128576D01*
X15372761Y-7200000D01*
X15615239Y-7200000D01*
X15974312Y-7128576D01*
X16381501Y-6856501D01*
X16653576Y-6449312D01*
X16749116Y-5969000D01*
X16778884Y-5969000D01*
X16874424Y-6449312D01*
X17146499Y-6856501D01*
X17553688Y-7128576D01*
X17912761Y-7200000D01*
X18155239Y-7200000D01*
X18513501Y-7128737D01*
X18930384Y-7545620D01*
X18957219Y-7585781D01*
X19116323Y-7692092D01*
X19256627Y-7720000D01*
X19256631Y-7720000D01*
X19303999Y-7729422D01*
X19351367Y-7720000D01*
X21136764Y-7720000D01*
X25381000Y-11964237D01*
X25381000Y-12220351D01*
X25499900Y-12507401D01*
X25719599Y-12727100D01*
X26006649Y-12846000D01*
X26317351Y-12846000D01*
X26604401Y-12727100D01*
X26605356Y-12726145D01*
X26735956Y-12856745D01*
X27023006Y-12975645D01*
X27333708Y-12975645D01*
X27620758Y-12856745D01*
X27840457Y-12637046D01*
X27959357Y-12349996D01*
X27959357Y-12039294D01*
X27840457Y-11752244D01*
X27620758Y-11532545D01*
X27333708Y-11413645D01*
X27077594Y-11413645D01*
X25160598Y-9496649D01*
X29826000Y-9496649D01*
X29826000Y-9807351D01*
X29845000Y-9853221D01*
X29845000Y-10466779D01*
X29826000Y-10512649D01*
X29826000Y-10823351D01*
X29845000Y-10869221D01*
X29845000Y-10922000D01*
X29874002Y-11067802D01*
X29956592Y-11191408D01*
X30806855Y-12041671D01*
X30875538Y-12144462D01*
X31082670Y-12282864D01*
X31086730Y-12283672D01*
X31096198Y-12289998D01*
X31242000Y-12319000D01*
X31264339Y-12319000D01*
X31327000Y-12331464D01*
X32427000Y-12331464D01*
X32489661Y-12319000D01*
X32766000Y-12319000D01*
X32911802Y-12289998D01*
X33035408Y-12207408D01*
X33117998Y-12083802D01*
X33147000Y-11938000D01*
X33147000Y-8382000D01*
X33117998Y-8236198D01*
X33035408Y-8112592D01*
X32911802Y-8030002D01*
X32766000Y-8001000D01*
X31115000Y-8001000D01*
X30969198Y-8030002D01*
X30845592Y-8112592D01*
X29956592Y-9001592D01*
X29874002Y-9125198D01*
X29845000Y-9271000D01*
X29845000Y-9450779D01*
X29826000Y-9496649D01*
X25160598Y-9496649D01*
X22831964Y-7168015D01*
X22992761Y-7200000D01*
X23235239Y-7200000D01*
X23594312Y-7128576D01*
X24001501Y-6856501D01*
X24273576Y-6449312D01*
X24369116Y-5969000D01*
X24273576Y-5488688D01*
X24001501Y-5081499D01*
X23902353Y-5015250D01*
X30696000Y-5015250D01*
X30696000Y-6618786D01*
X30754004Y-6758820D01*
X30861181Y-6865996D01*
X31001215Y-6924000D01*
X31654750Y-6924000D01*
X31750000Y-6828750D01*
X31750000Y-4920000D01*
X32004000Y-4920000D01*
X32004000Y-6828750D01*
X32099250Y-6924000D01*
X32752785Y-6924000D01*
X32892819Y-6865996D01*
X32999996Y-6758820D01*
X33058000Y-6618786D01*
X33058000Y-5190889D01*
X39666066Y-5190889D01*
X39888106Y-5649587D01*
X40268781Y-5988398D01*
X40601315Y-6126138D01*
X40803102Y-6066269D01*
X40803102Y-4989102D01*
X39725935Y-4989102D01*
X39666066Y-5190889D01*
X33058000Y-5190889D01*
X33058000Y-5015250D01*
X32962750Y-4920000D01*
X32004000Y-4920000D01*
X31750000Y-4920000D01*
X30791250Y-4920000D01*
X30696000Y-5015250D01*
X23902353Y-5015250D01*
X23594312Y-4809424D01*
X23235239Y-4738000D01*
X22992761Y-4738000D01*
X22633688Y-4809424D01*
X22226499Y-5081499D01*
X21954424Y-5488688D01*
X21858884Y-5969000D01*
X21914985Y-6251036D01*
X21796570Y-6132622D01*
X21829116Y-5969000D01*
X21733576Y-5488688D01*
X21461501Y-5081499D01*
X21054312Y-4809424D01*
X20695239Y-4738000D01*
X20452761Y-4738000D01*
X20093688Y-4809424D01*
X19686499Y-5081499D01*
X19414424Y-5488688D01*
X19318884Y-5969000D01*
X19414424Y-6449312D01*
X19620683Y-6758000D01*
X19503236Y-6758000D01*
X19193737Y-6448501D01*
X19289116Y-5969000D01*
X19193576Y-5488688D01*
X18921501Y-5081499D01*
X18514312Y-4809424D01*
X18155239Y-4738000D01*
X17912761Y-4738000D01*
X17553688Y-4809424D01*
X17146499Y-5081499D01*
X16874424Y-5488688D01*
X16778884Y-5969000D01*
X16749116Y-5969000D01*
X16653576Y-5488688D01*
X16381501Y-5081499D01*
X15974312Y-4809424D01*
X15615239Y-4738000D01*
X15372761Y-4738000D01*
X15013688Y-4809424D01*
X14606499Y-5081499D01*
X14334424Y-5488688D01*
X14238884Y-5969000D01*
X4071596Y-5969000D01*
X3997118Y-5789196D01*
X4037679Y-5825296D01*
X4370213Y-5963036D01*
X4572000Y-5903167D01*
X4572000Y-5005608D01*
X4684859Y-4892749D01*
X4618110Y-4826000D01*
X4826000Y-4826000D01*
X4826000Y-5903167D01*
X5027787Y-5963036D01*
X5486485Y-5740996D01*
X5825296Y-5360321D01*
X5956645Y-5043214D01*
X9183000Y-5043214D01*
X9183000Y-5746750D01*
X9278250Y-5842000D01*
X10287000Y-5842000D01*
X10287000Y-4833250D01*
X10541000Y-4833250D01*
X10541000Y-5842000D01*
X11549750Y-5842000D01*
X11645000Y-5746750D01*
X11645000Y-5652018D01*
X11764499Y-5652018D01*
X11824807Y-5842000D01*
X12827000Y-5842000D01*
X12827000Y-4840373D01*
X13081000Y-4840373D01*
X13081000Y-5842000D01*
X14083193Y-5842000D01*
X14143501Y-5652018D01*
X13931652Y-5220944D01*
X13570964Y-4903755D01*
X13270980Y-4779511D01*
X13081000Y-4840373D01*
X12827000Y-4840373D01*
X12637020Y-4779511D01*
X12337036Y-4903755D01*
X11976348Y-5220944D01*
X11764499Y-5652018D01*
X11645000Y-5652018D01*
X11645000Y-5043214D01*
X11586996Y-4903180D01*
X11479819Y-4796004D01*
X11339785Y-4738000D01*
X10636250Y-4738000D01*
X10541000Y-4833250D01*
X10287000Y-4833250D01*
X10191750Y-4738000D01*
X9488215Y-4738000D01*
X9348181Y-4796004D01*
X9241004Y-4903180D01*
X9183000Y-5043214D01*
X5956645Y-5043214D01*
X5963036Y-5027787D01*
X5903167Y-4826000D01*
X4826000Y-4826000D01*
X4618110Y-4826000D01*
X4505251Y-4713141D01*
X4392392Y-4826000D01*
X3494833Y-4826000D01*
X3434964Y-5027787D01*
X3617262Y-5404385D01*
X3157756Y-5214051D01*
X2648142Y-5214051D01*
X2177321Y-5409072D01*
X1816970Y-5769423D01*
X1621949Y-6240244D01*
X481000Y-6240244D01*
X481000Y-4370213D01*
X3434964Y-4370213D01*
X3494833Y-4572000D01*
X4572000Y-4572000D01*
X4572000Y-3494833D01*
X4370213Y-3434964D01*
X3911515Y-3657004D01*
X3572704Y-4037679D01*
X3434964Y-4370213D01*
X481000Y-4370213D01*
X481000Y-1539754D01*
X542199Y-1172073D01*
X700060Y-879504D01*
X944178Y-653844D01*
X1257080Y-515510D01*
X1530260Y-481000D01*
X8082855Y-481000D01*
X8057710Y-518632D01*
G04 #@! TO.N,+3V3-filt*
G36*
X32639000Y-11811000D02*
X31294606Y-11811000D01*
X30353000Y-10869394D01*
X30353000Y-9323606D01*
X31167606Y-8509000D01*
X32639000Y-8509000D01*
X32639000Y-11811000D01*
X32639000Y-11811000D01*
G37*
X32639000Y-11811000D02*
X31294606Y-11811000D01*
X30353000Y-10869394D01*
X30353000Y-9323606D01*
X31167606Y-8509000D01*
X32639000Y-8509000D01*
X32639000Y-11811000D01*
G04 #@! TD*
M02*
