M48
;DRILL file {KiCad (5.0.2)-1} date 31/01/2019 16:37:04
;FORMAT={-:-/ absolute / metric / decimal}
FMAT,2
METRIC,TZ
T1C0.400
T2C0.800
T3C0.900
T4C1.000
T5C1.016
T6C3.200
%
G90
G05
T1
X2.03Y-23.2
X10.287Y-32.258
X10.922Y-26.67
X11.557Y-28.956
X11.811Y-26.67
X12.446Y-28.956
X12.7Y-26.67
X13.335Y-28.956
X13.335Y-31.369
X14.224Y-28.956
X15.113Y-28.956
X20.193Y-36.449
X21.209Y-35.56
X25.908Y-30.226
X25.908Y-31.242
X26.162Y-12.065
X26.924Y-30.226
X26.924Y-31.242
X27.178Y-12.195
X28.194Y-30.861
X30.09Y-24.136
X30.607Y-9.652
X30.607Y-10.668
X30.861Y-23.495
T2
X2.903Y-31.605
X4.699Y-33.401
X6.495Y-35.197
X39.134Y-3.066
X40.93Y-4.862
X42.726Y-6.658
X2.903Y-6.495
X4.699Y-4.699
X6.495Y-2.903
X39.86Y-35.578
X41.656Y-33.782
X43.452Y-31.986
T3
X21.59Y-14.351
X24.13Y-14.351
X27.305Y-15.961
X28.575Y-18.161
X17.145Y-18.161
X18.415Y-15.961
X21.59Y-25.781
X24.13Y-25.781
X17.145Y-21.971
X18.415Y-24.171
X27.305Y-23.241
X28.575Y-21.041
X22.86Y-18.796
X22.86Y-21.336
T4
X10.414Y-5.969
X12.954Y-5.969
X15.494Y-5.969
X18.034Y-5.969
X20.574Y-5.969
X23.114Y-5.969
X6.87Y-39.9
X6.87Y-42.44
X9.41Y-39.9
X9.41Y-42.44
X11.95Y-39.9
X11.95Y-42.44
X14.49Y-39.9
X14.49Y-42.44
X17.03Y-39.9
X17.03Y-42.44
X19.57Y-39.9
X19.57Y-42.44
X22.11Y-39.9
X22.11Y-42.44
X24.65Y-39.9
X24.65Y-42.44
X27.19Y-39.9
X27.19Y-42.44
X29.73Y-39.9
X29.73Y-42.44
X32.27Y-39.9
X32.27Y-42.44
X34.81Y-39.9
X34.81Y-42.44
X37.35Y-39.9
X37.35Y-42.44
X39.89Y-39.9
X39.89Y-42.44
T5
X2.794Y-16.256
X2.794Y-18.796
X2.794Y-21.336
X33.274Y-26.924
X33.274Y-29.464
X33.274Y-32.004
X33.274Y-34.544
T6
X44.59Y-44.09
X1.41Y-44.09
X23.Y-0.91
T0
M30
