G04 #@! TF.GenerationSoftware,KiCad,Pcbnew,(5.0.2)-1*
G04 #@! TF.CreationDate,2019-01-31T16:36:43+01:00*
G04 #@! TF.ProjectId,SHMod24_RF_IR_Bridge,53484d6f-6432-4345-9f52-465f49525f42,rev?*
G04 #@! TF.SameCoordinates,Original*
G04 #@! TF.FileFunction,Soldermask,Top*
G04 #@! TF.FilePolarity,Negative*
%FSLAX46Y46*%
G04 Gerber Fmt 4.6, Leading zero omitted, Abs format (unit mm)*
G04 Created by KiCad (PCBNEW (5.0.2)-1) date 31/01/2019 16:36:43*
%MOMM*%
%LPD*%
G01*
G04 APERTURE LIST*
%ADD10C,0.100000*%
G04 APERTURE END LIST*
D10*
G36*
X44965256Y-42481298D02*
X45071579Y-42502447D01*
X45372042Y-42626903D01*
X45610844Y-42786466D01*
X45642454Y-42807587D01*
X45872413Y-43037546D01*
X45872415Y-43037549D01*
X45976137Y-43192779D01*
X46053098Y-43307960D01*
X46177553Y-43608422D01*
X46241000Y-43927389D01*
X46241000Y-44252611D01*
X46177553Y-44571578D01*
X46053098Y-44872040D01*
X45872413Y-45142454D01*
X45642454Y-45372413D01*
X45642451Y-45372415D01*
X45372042Y-45553097D01*
X45071579Y-45677553D01*
X44965256Y-45698702D01*
X44752611Y-45741000D01*
X44427389Y-45741000D01*
X44214744Y-45698702D01*
X44108421Y-45677553D01*
X43807958Y-45553097D01*
X43537549Y-45372415D01*
X43537546Y-45372413D01*
X43307587Y-45142454D01*
X43126902Y-44872040D01*
X43002447Y-44571578D01*
X42939000Y-44252611D01*
X42939000Y-43927389D01*
X43002447Y-43608422D01*
X43126902Y-43307960D01*
X43203864Y-43192779D01*
X43307585Y-43037549D01*
X43307587Y-43037546D01*
X43537546Y-42807587D01*
X43569156Y-42786466D01*
X43807958Y-42626903D01*
X44108421Y-42502447D01*
X44214744Y-42481298D01*
X44427389Y-42439000D01*
X44752611Y-42439000D01*
X44965256Y-42481298D01*
X44965256Y-42481298D01*
G37*
G36*
X1785256Y-42481298D02*
X1891579Y-42502447D01*
X2192042Y-42626903D01*
X2430844Y-42786466D01*
X2462454Y-42807587D01*
X2692413Y-43037546D01*
X2692415Y-43037549D01*
X2796137Y-43192779D01*
X2873098Y-43307960D01*
X2997553Y-43608422D01*
X3061000Y-43927389D01*
X3061000Y-44252611D01*
X2997553Y-44571578D01*
X2873098Y-44872040D01*
X2692413Y-45142454D01*
X2462454Y-45372413D01*
X2462451Y-45372415D01*
X2192042Y-45553097D01*
X1891579Y-45677553D01*
X1785256Y-45698702D01*
X1572611Y-45741000D01*
X1247389Y-45741000D01*
X1034744Y-45698702D01*
X928421Y-45677553D01*
X627958Y-45553097D01*
X357549Y-45372415D01*
X357546Y-45372413D01*
X127587Y-45142454D01*
X-53098Y-44872040D01*
X-177553Y-44571578D01*
X-241000Y-44252611D01*
X-241000Y-43927389D01*
X-177553Y-43608422D01*
X-53098Y-43307960D01*
X23864Y-43192779D01*
X127585Y-43037549D01*
X127587Y-43037546D01*
X357546Y-42807587D01*
X389156Y-42786466D01*
X627958Y-42626903D01*
X928421Y-42502447D01*
X1034744Y-42481298D01*
X1247389Y-42439000D01*
X1572611Y-42439000D01*
X1785256Y-42481298D01*
X1785256Y-42481298D01*
G37*
G36*
X34920443Y-41545519D02*
X34986627Y-41552037D01*
X35099853Y-41586384D01*
X35156467Y-41603557D01*
X35295087Y-41677652D01*
X35312991Y-41687222D01*
X35348729Y-41716552D01*
X35450186Y-41799814D01*
X35533448Y-41901271D01*
X35562778Y-41937009D01*
X35562779Y-41937011D01*
X35646443Y-42093533D01*
X35646443Y-42093534D01*
X35697963Y-42263373D01*
X35715359Y-42440000D01*
X35697963Y-42616627D01*
X35663616Y-42729853D01*
X35646443Y-42786467D01*
X35635155Y-42807585D01*
X35562778Y-42942991D01*
X35533448Y-42978729D01*
X35450186Y-43080186D01*
X35348729Y-43163448D01*
X35312991Y-43192778D01*
X35312989Y-43192779D01*
X35156467Y-43276443D01*
X35099853Y-43293616D01*
X34986627Y-43327963D01*
X34920442Y-43334482D01*
X34854260Y-43341000D01*
X34765740Y-43341000D01*
X34699558Y-43334482D01*
X34633373Y-43327963D01*
X34520147Y-43293616D01*
X34463533Y-43276443D01*
X34307011Y-43192779D01*
X34307009Y-43192778D01*
X34271271Y-43163448D01*
X34169814Y-43080186D01*
X34086552Y-42978729D01*
X34057222Y-42942991D01*
X33984845Y-42807585D01*
X33973557Y-42786467D01*
X33956384Y-42729853D01*
X33922037Y-42616627D01*
X33904641Y-42440000D01*
X33922037Y-42263373D01*
X33973557Y-42093534D01*
X33973557Y-42093533D01*
X34057221Y-41937011D01*
X34057222Y-41937009D01*
X34086552Y-41901271D01*
X34169814Y-41799814D01*
X34271271Y-41716552D01*
X34307009Y-41687222D01*
X34324913Y-41677652D01*
X34463533Y-41603557D01*
X34520147Y-41586384D01*
X34633373Y-41552037D01*
X34699557Y-41545519D01*
X34765740Y-41539000D01*
X34854260Y-41539000D01*
X34920443Y-41545519D01*
X34920443Y-41545519D01*
G37*
G36*
X40000443Y-41545519D02*
X40066627Y-41552037D01*
X40179853Y-41586384D01*
X40236467Y-41603557D01*
X40375087Y-41677652D01*
X40392991Y-41687222D01*
X40428729Y-41716552D01*
X40530186Y-41799814D01*
X40613448Y-41901271D01*
X40642778Y-41937009D01*
X40642779Y-41937011D01*
X40726443Y-42093533D01*
X40726443Y-42093534D01*
X40777963Y-42263373D01*
X40795359Y-42440000D01*
X40777963Y-42616627D01*
X40743616Y-42729853D01*
X40726443Y-42786467D01*
X40715155Y-42807585D01*
X40642778Y-42942991D01*
X40613448Y-42978729D01*
X40530186Y-43080186D01*
X40428729Y-43163448D01*
X40392991Y-43192778D01*
X40392989Y-43192779D01*
X40236467Y-43276443D01*
X40179853Y-43293616D01*
X40066627Y-43327963D01*
X40000442Y-43334482D01*
X39934260Y-43341000D01*
X39845740Y-43341000D01*
X39779558Y-43334482D01*
X39713373Y-43327963D01*
X39600147Y-43293616D01*
X39543533Y-43276443D01*
X39387011Y-43192779D01*
X39387009Y-43192778D01*
X39351271Y-43163448D01*
X39249814Y-43080186D01*
X39166552Y-42978729D01*
X39137222Y-42942991D01*
X39064845Y-42807585D01*
X39053557Y-42786467D01*
X39036384Y-42729853D01*
X39002037Y-42616627D01*
X38984641Y-42440000D01*
X39002037Y-42263373D01*
X39053557Y-42093534D01*
X39053557Y-42093533D01*
X39137221Y-41937011D01*
X39137222Y-41937009D01*
X39166552Y-41901271D01*
X39249814Y-41799814D01*
X39351271Y-41716552D01*
X39387009Y-41687222D01*
X39404913Y-41677652D01*
X39543533Y-41603557D01*
X39600147Y-41586384D01*
X39713373Y-41552037D01*
X39779557Y-41545519D01*
X39845740Y-41539000D01*
X39934260Y-41539000D01*
X40000443Y-41545519D01*
X40000443Y-41545519D01*
G37*
G36*
X7771000Y-43341000D02*
X5969000Y-43341000D01*
X5969000Y-41539000D01*
X7771000Y-41539000D01*
X7771000Y-43341000D01*
X7771000Y-43341000D01*
G37*
G36*
X9520443Y-41545519D02*
X9586627Y-41552037D01*
X9699853Y-41586384D01*
X9756467Y-41603557D01*
X9895087Y-41677652D01*
X9912991Y-41687222D01*
X9948729Y-41716552D01*
X10050186Y-41799814D01*
X10133448Y-41901271D01*
X10162778Y-41937009D01*
X10162779Y-41937011D01*
X10246443Y-42093533D01*
X10246443Y-42093534D01*
X10297963Y-42263373D01*
X10315359Y-42440000D01*
X10297963Y-42616627D01*
X10263616Y-42729853D01*
X10246443Y-42786467D01*
X10235155Y-42807585D01*
X10162778Y-42942991D01*
X10133448Y-42978729D01*
X10050186Y-43080186D01*
X9948729Y-43163448D01*
X9912991Y-43192778D01*
X9912989Y-43192779D01*
X9756467Y-43276443D01*
X9699853Y-43293616D01*
X9586627Y-43327963D01*
X9520442Y-43334482D01*
X9454260Y-43341000D01*
X9365740Y-43341000D01*
X9299558Y-43334482D01*
X9233373Y-43327963D01*
X9120147Y-43293616D01*
X9063533Y-43276443D01*
X8907011Y-43192779D01*
X8907009Y-43192778D01*
X8871271Y-43163448D01*
X8769814Y-43080186D01*
X8686552Y-42978729D01*
X8657222Y-42942991D01*
X8584845Y-42807585D01*
X8573557Y-42786467D01*
X8556384Y-42729853D01*
X8522037Y-42616627D01*
X8504641Y-42440000D01*
X8522037Y-42263373D01*
X8573557Y-42093534D01*
X8573557Y-42093533D01*
X8657221Y-41937011D01*
X8657222Y-41937009D01*
X8686552Y-41901271D01*
X8769814Y-41799814D01*
X8871271Y-41716552D01*
X8907009Y-41687222D01*
X8924913Y-41677652D01*
X9063533Y-41603557D01*
X9120147Y-41586384D01*
X9233373Y-41552037D01*
X9299557Y-41545519D01*
X9365740Y-41539000D01*
X9454260Y-41539000D01*
X9520443Y-41545519D01*
X9520443Y-41545519D01*
G37*
G36*
X12060443Y-41545519D02*
X12126627Y-41552037D01*
X12239853Y-41586384D01*
X12296467Y-41603557D01*
X12435087Y-41677652D01*
X12452991Y-41687222D01*
X12488729Y-41716552D01*
X12590186Y-41799814D01*
X12673448Y-41901271D01*
X12702778Y-41937009D01*
X12702779Y-41937011D01*
X12786443Y-42093533D01*
X12786443Y-42093534D01*
X12837963Y-42263373D01*
X12855359Y-42440000D01*
X12837963Y-42616627D01*
X12803616Y-42729853D01*
X12786443Y-42786467D01*
X12775155Y-42807585D01*
X12702778Y-42942991D01*
X12673448Y-42978729D01*
X12590186Y-43080186D01*
X12488729Y-43163448D01*
X12452991Y-43192778D01*
X12452989Y-43192779D01*
X12296467Y-43276443D01*
X12239853Y-43293616D01*
X12126627Y-43327963D01*
X12060442Y-43334482D01*
X11994260Y-43341000D01*
X11905740Y-43341000D01*
X11839558Y-43334482D01*
X11773373Y-43327963D01*
X11660147Y-43293616D01*
X11603533Y-43276443D01*
X11447011Y-43192779D01*
X11447009Y-43192778D01*
X11411271Y-43163448D01*
X11309814Y-43080186D01*
X11226552Y-42978729D01*
X11197222Y-42942991D01*
X11124845Y-42807585D01*
X11113557Y-42786467D01*
X11096384Y-42729853D01*
X11062037Y-42616627D01*
X11044641Y-42440000D01*
X11062037Y-42263373D01*
X11113557Y-42093534D01*
X11113557Y-42093533D01*
X11197221Y-41937011D01*
X11197222Y-41937009D01*
X11226552Y-41901271D01*
X11309814Y-41799814D01*
X11411271Y-41716552D01*
X11447009Y-41687222D01*
X11464913Y-41677652D01*
X11603533Y-41603557D01*
X11660147Y-41586384D01*
X11773373Y-41552037D01*
X11839557Y-41545519D01*
X11905740Y-41539000D01*
X11994260Y-41539000D01*
X12060443Y-41545519D01*
X12060443Y-41545519D01*
G37*
G36*
X14600443Y-41545519D02*
X14666627Y-41552037D01*
X14779853Y-41586384D01*
X14836467Y-41603557D01*
X14975087Y-41677652D01*
X14992991Y-41687222D01*
X15028729Y-41716552D01*
X15130186Y-41799814D01*
X15213448Y-41901271D01*
X15242778Y-41937009D01*
X15242779Y-41937011D01*
X15326443Y-42093533D01*
X15326443Y-42093534D01*
X15377963Y-42263373D01*
X15395359Y-42440000D01*
X15377963Y-42616627D01*
X15343616Y-42729853D01*
X15326443Y-42786467D01*
X15315155Y-42807585D01*
X15242778Y-42942991D01*
X15213448Y-42978729D01*
X15130186Y-43080186D01*
X15028729Y-43163448D01*
X14992991Y-43192778D01*
X14992989Y-43192779D01*
X14836467Y-43276443D01*
X14779853Y-43293616D01*
X14666627Y-43327963D01*
X14600442Y-43334482D01*
X14534260Y-43341000D01*
X14445740Y-43341000D01*
X14379558Y-43334482D01*
X14313373Y-43327963D01*
X14200147Y-43293616D01*
X14143533Y-43276443D01*
X13987011Y-43192779D01*
X13987009Y-43192778D01*
X13951271Y-43163448D01*
X13849814Y-43080186D01*
X13766552Y-42978729D01*
X13737222Y-42942991D01*
X13664845Y-42807585D01*
X13653557Y-42786467D01*
X13636384Y-42729853D01*
X13602037Y-42616627D01*
X13584641Y-42440000D01*
X13602037Y-42263373D01*
X13653557Y-42093534D01*
X13653557Y-42093533D01*
X13737221Y-41937011D01*
X13737222Y-41937009D01*
X13766552Y-41901271D01*
X13849814Y-41799814D01*
X13951271Y-41716552D01*
X13987009Y-41687222D01*
X14004913Y-41677652D01*
X14143533Y-41603557D01*
X14200147Y-41586384D01*
X14313373Y-41552037D01*
X14379557Y-41545519D01*
X14445740Y-41539000D01*
X14534260Y-41539000D01*
X14600443Y-41545519D01*
X14600443Y-41545519D01*
G37*
G36*
X17140443Y-41545519D02*
X17206627Y-41552037D01*
X17319853Y-41586384D01*
X17376467Y-41603557D01*
X17515087Y-41677652D01*
X17532991Y-41687222D01*
X17568729Y-41716552D01*
X17670186Y-41799814D01*
X17753448Y-41901271D01*
X17782778Y-41937009D01*
X17782779Y-41937011D01*
X17866443Y-42093533D01*
X17866443Y-42093534D01*
X17917963Y-42263373D01*
X17935359Y-42440000D01*
X17917963Y-42616627D01*
X17883616Y-42729853D01*
X17866443Y-42786467D01*
X17855155Y-42807585D01*
X17782778Y-42942991D01*
X17753448Y-42978729D01*
X17670186Y-43080186D01*
X17568729Y-43163448D01*
X17532991Y-43192778D01*
X17532989Y-43192779D01*
X17376467Y-43276443D01*
X17319853Y-43293616D01*
X17206627Y-43327963D01*
X17140442Y-43334482D01*
X17074260Y-43341000D01*
X16985740Y-43341000D01*
X16919558Y-43334482D01*
X16853373Y-43327963D01*
X16740147Y-43293616D01*
X16683533Y-43276443D01*
X16527011Y-43192779D01*
X16527009Y-43192778D01*
X16491271Y-43163448D01*
X16389814Y-43080186D01*
X16306552Y-42978729D01*
X16277222Y-42942991D01*
X16204845Y-42807585D01*
X16193557Y-42786467D01*
X16176384Y-42729853D01*
X16142037Y-42616627D01*
X16124641Y-42440000D01*
X16142037Y-42263373D01*
X16193557Y-42093534D01*
X16193557Y-42093533D01*
X16277221Y-41937011D01*
X16277222Y-41937009D01*
X16306552Y-41901271D01*
X16389814Y-41799814D01*
X16491271Y-41716552D01*
X16527009Y-41687222D01*
X16544913Y-41677652D01*
X16683533Y-41603557D01*
X16740147Y-41586384D01*
X16853373Y-41552037D01*
X16919557Y-41545519D01*
X16985740Y-41539000D01*
X17074260Y-41539000D01*
X17140443Y-41545519D01*
X17140443Y-41545519D01*
G37*
G36*
X19680443Y-41545519D02*
X19746627Y-41552037D01*
X19859853Y-41586384D01*
X19916467Y-41603557D01*
X20055087Y-41677652D01*
X20072991Y-41687222D01*
X20108729Y-41716552D01*
X20210186Y-41799814D01*
X20293448Y-41901271D01*
X20322778Y-41937009D01*
X20322779Y-41937011D01*
X20406443Y-42093533D01*
X20406443Y-42093534D01*
X20457963Y-42263373D01*
X20475359Y-42440000D01*
X20457963Y-42616627D01*
X20423616Y-42729853D01*
X20406443Y-42786467D01*
X20395155Y-42807585D01*
X20322778Y-42942991D01*
X20293448Y-42978729D01*
X20210186Y-43080186D01*
X20108729Y-43163448D01*
X20072991Y-43192778D01*
X20072989Y-43192779D01*
X19916467Y-43276443D01*
X19859853Y-43293616D01*
X19746627Y-43327963D01*
X19680442Y-43334482D01*
X19614260Y-43341000D01*
X19525740Y-43341000D01*
X19459558Y-43334482D01*
X19393373Y-43327963D01*
X19280147Y-43293616D01*
X19223533Y-43276443D01*
X19067011Y-43192779D01*
X19067009Y-43192778D01*
X19031271Y-43163448D01*
X18929814Y-43080186D01*
X18846552Y-42978729D01*
X18817222Y-42942991D01*
X18744845Y-42807585D01*
X18733557Y-42786467D01*
X18716384Y-42729853D01*
X18682037Y-42616627D01*
X18664641Y-42440000D01*
X18682037Y-42263373D01*
X18733557Y-42093534D01*
X18733557Y-42093533D01*
X18817221Y-41937011D01*
X18817222Y-41937009D01*
X18846552Y-41901271D01*
X18929814Y-41799814D01*
X19031271Y-41716552D01*
X19067009Y-41687222D01*
X19084913Y-41677652D01*
X19223533Y-41603557D01*
X19280147Y-41586384D01*
X19393373Y-41552037D01*
X19459557Y-41545519D01*
X19525740Y-41539000D01*
X19614260Y-41539000D01*
X19680443Y-41545519D01*
X19680443Y-41545519D01*
G37*
G36*
X22220443Y-41545519D02*
X22286627Y-41552037D01*
X22399853Y-41586384D01*
X22456467Y-41603557D01*
X22595087Y-41677652D01*
X22612991Y-41687222D01*
X22648729Y-41716552D01*
X22750186Y-41799814D01*
X22833448Y-41901271D01*
X22862778Y-41937009D01*
X22862779Y-41937011D01*
X22946443Y-42093533D01*
X22946443Y-42093534D01*
X22997963Y-42263373D01*
X23015359Y-42440000D01*
X22997963Y-42616627D01*
X22963616Y-42729853D01*
X22946443Y-42786467D01*
X22935155Y-42807585D01*
X22862778Y-42942991D01*
X22833448Y-42978729D01*
X22750186Y-43080186D01*
X22648729Y-43163448D01*
X22612991Y-43192778D01*
X22612989Y-43192779D01*
X22456467Y-43276443D01*
X22399853Y-43293616D01*
X22286627Y-43327963D01*
X22220442Y-43334482D01*
X22154260Y-43341000D01*
X22065740Y-43341000D01*
X21999558Y-43334482D01*
X21933373Y-43327963D01*
X21820147Y-43293616D01*
X21763533Y-43276443D01*
X21607011Y-43192779D01*
X21607009Y-43192778D01*
X21571271Y-43163448D01*
X21469814Y-43080186D01*
X21386552Y-42978729D01*
X21357222Y-42942991D01*
X21284845Y-42807585D01*
X21273557Y-42786467D01*
X21256384Y-42729853D01*
X21222037Y-42616627D01*
X21204641Y-42440000D01*
X21222037Y-42263373D01*
X21273557Y-42093534D01*
X21273557Y-42093533D01*
X21357221Y-41937011D01*
X21357222Y-41937009D01*
X21386552Y-41901271D01*
X21469814Y-41799814D01*
X21571271Y-41716552D01*
X21607009Y-41687222D01*
X21624913Y-41677652D01*
X21763533Y-41603557D01*
X21820147Y-41586384D01*
X21933373Y-41552037D01*
X21999557Y-41545519D01*
X22065740Y-41539000D01*
X22154260Y-41539000D01*
X22220443Y-41545519D01*
X22220443Y-41545519D01*
G37*
G36*
X24760443Y-41545519D02*
X24826627Y-41552037D01*
X24939853Y-41586384D01*
X24996467Y-41603557D01*
X25135087Y-41677652D01*
X25152991Y-41687222D01*
X25188729Y-41716552D01*
X25290186Y-41799814D01*
X25373448Y-41901271D01*
X25402778Y-41937009D01*
X25402779Y-41937011D01*
X25486443Y-42093533D01*
X25486443Y-42093534D01*
X25537963Y-42263373D01*
X25555359Y-42440000D01*
X25537963Y-42616627D01*
X25503616Y-42729853D01*
X25486443Y-42786467D01*
X25475155Y-42807585D01*
X25402778Y-42942991D01*
X25373448Y-42978729D01*
X25290186Y-43080186D01*
X25188729Y-43163448D01*
X25152991Y-43192778D01*
X25152989Y-43192779D01*
X24996467Y-43276443D01*
X24939853Y-43293616D01*
X24826627Y-43327963D01*
X24760442Y-43334482D01*
X24694260Y-43341000D01*
X24605740Y-43341000D01*
X24539558Y-43334482D01*
X24473373Y-43327963D01*
X24360147Y-43293616D01*
X24303533Y-43276443D01*
X24147011Y-43192779D01*
X24147009Y-43192778D01*
X24111271Y-43163448D01*
X24009814Y-43080186D01*
X23926552Y-42978729D01*
X23897222Y-42942991D01*
X23824845Y-42807585D01*
X23813557Y-42786467D01*
X23796384Y-42729853D01*
X23762037Y-42616627D01*
X23744641Y-42440000D01*
X23762037Y-42263373D01*
X23813557Y-42093534D01*
X23813557Y-42093533D01*
X23897221Y-41937011D01*
X23897222Y-41937009D01*
X23926552Y-41901271D01*
X24009814Y-41799814D01*
X24111271Y-41716552D01*
X24147009Y-41687222D01*
X24164913Y-41677652D01*
X24303533Y-41603557D01*
X24360147Y-41586384D01*
X24473373Y-41552037D01*
X24539557Y-41545519D01*
X24605740Y-41539000D01*
X24694260Y-41539000D01*
X24760443Y-41545519D01*
X24760443Y-41545519D01*
G37*
G36*
X27300443Y-41545519D02*
X27366627Y-41552037D01*
X27479853Y-41586384D01*
X27536467Y-41603557D01*
X27675087Y-41677652D01*
X27692991Y-41687222D01*
X27728729Y-41716552D01*
X27830186Y-41799814D01*
X27913448Y-41901271D01*
X27942778Y-41937009D01*
X27942779Y-41937011D01*
X28026443Y-42093533D01*
X28026443Y-42093534D01*
X28077963Y-42263373D01*
X28095359Y-42440000D01*
X28077963Y-42616627D01*
X28043616Y-42729853D01*
X28026443Y-42786467D01*
X28015155Y-42807585D01*
X27942778Y-42942991D01*
X27913448Y-42978729D01*
X27830186Y-43080186D01*
X27728729Y-43163448D01*
X27692991Y-43192778D01*
X27692989Y-43192779D01*
X27536467Y-43276443D01*
X27479853Y-43293616D01*
X27366627Y-43327963D01*
X27300442Y-43334482D01*
X27234260Y-43341000D01*
X27145740Y-43341000D01*
X27079558Y-43334482D01*
X27013373Y-43327963D01*
X26900147Y-43293616D01*
X26843533Y-43276443D01*
X26687011Y-43192779D01*
X26687009Y-43192778D01*
X26651271Y-43163448D01*
X26549814Y-43080186D01*
X26466552Y-42978729D01*
X26437222Y-42942991D01*
X26364845Y-42807585D01*
X26353557Y-42786467D01*
X26336384Y-42729853D01*
X26302037Y-42616627D01*
X26284641Y-42440000D01*
X26302037Y-42263373D01*
X26353557Y-42093534D01*
X26353557Y-42093533D01*
X26437221Y-41937011D01*
X26437222Y-41937009D01*
X26466552Y-41901271D01*
X26549814Y-41799814D01*
X26651271Y-41716552D01*
X26687009Y-41687222D01*
X26704913Y-41677652D01*
X26843533Y-41603557D01*
X26900147Y-41586384D01*
X27013373Y-41552037D01*
X27079557Y-41545519D01*
X27145740Y-41539000D01*
X27234260Y-41539000D01*
X27300443Y-41545519D01*
X27300443Y-41545519D01*
G37*
G36*
X29840443Y-41545519D02*
X29906627Y-41552037D01*
X30019853Y-41586384D01*
X30076467Y-41603557D01*
X30215087Y-41677652D01*
X30232991Y-41687222D01*
X30268729Y-41716552D01*
X30370186Y-41799814D01*
X30453448Y-41901271D01*
X30482778Y-41937009D01*
X30482779Y-41937011D01*
X30566443Y-42093533D01*
X30566443Y-42093534D01*
X30617963Y-42263373D01*
X30635359Y-42440000D01*
X30617963Y-42616627D01*
X30583616Y-42729853D01*
X30566443Y-42786467D01*
X30555155Y-42807585D01*
X30482778Y-42942991D01*
X30453448Y-42978729D01*
X30370186Y-43080186D01*
X30268729Y-43163448D01*
X30232991Y-43192778D01*
X30232989Y-43192779D01*
X30076467Y-43276443D01*
X30019853Y-43293616D01*
X29906627Y-43327963D01*
X29840442Y-43334482D01*
X29774260Y-43341000D01*
X29685740Y-43341000D01*
X29619558Y-43334482D01*
X29553373Y-43327963D01*
X29440147Y-43293616D01*
X29383533Y-43276443D01*
X29227011Y-43192779D01*
X29227009Y-43192778D01*
X29191271Y-43163448D01*
X29089814Y-43080186D01*
X29006552Y-42978729D01*
X28977222Y-42942991D01*
X28904845Y-42807585D01*
X28893557Y-42786467D01*
X28876384Y-42729853D01*
X28842037Y-42616627D01*
X28824641Y-42440000D01*
X28842037Y-42263373D01*
X28893557Y-42093534D01*
X28893557Y-42093533D01*
X28977221Y-41937011D01*
X28977222Y-41937009D01*
X29006552Y-41901271D01*
X29089814Y-41799814D01*
X29191271Y-41716552D01*
X29227009Y-41687222D01*
X29244913Y-41677652D01*
X29383533Y-41603557D01*
X29440147Y-41586384D01*
X29553373Y-41552037D01*
X29619557Y-41545519D01*
X29685740Y-41539000D01*
X29774260Y-41539000D01*
X29840443Y-41545519D01*
X29840443Y-41545519D01*
G37*
G36*
X32380443Y-41545519D02*
X32446627Y-41552037D01*
X32559853Y-41586384D01*
X32616467Y-41603557D01*
X32755087Y-41677652D01*
X32772991Y-41687222D01*
X32808729Y-41716552D01*
X32910186Y-41799814D01*
X32993448Y-41901271D01*
X33022778Y-41937009D01*
X33022779Y-41937011D01*
X33106443Y-42093533D01*
X33106443Y-42093534D01*
X33157963Y-42263373D01*
X33175359Y-42440000D01*
X33157963Y-42616627D01*
X33123616Y-42729853D01*
X33106443Y-42786467D01*
X33095155Y-42807585D01*
X33022778Y-42942991D01*
X32993448Y-42978729D01*
X32910186Y-43080186D01*
X32808729Y-43163448D01*
X32772991Y-43192778D01*
X32772989Y-43192779D01*
X32616467Y-43276443D01*
X32559853Y-43293616D01*
X32446627Y-43327963D01*
X32380442Y-43334482D01*
X32314260Y-43341000D01*
X32225740Y-43341000D01*
X32159558Y-43334482D01*
X32093373Y-43327963D01*
X31980147Y-43293616D01*
X31923533Y-43276443D01*
X31767011Y-43192779D01*
X31767009Y-43192778D01*
X31731271Y-43163448D01*
X31629814Y-43080186D01*
X31546552Y-42978729D01*
X31517222Y-42942991D01*
X31444845Y-42807585D01*
X31433557Y-42786467D01*
X31416384Y-42729853D01*
X31382037Y-42616627D01*
X31364641Y-42440000D01*
X31382037Y-42263373D01*
X31433557Y-42093534D01*
X31433557Y-42093533D01*
X31517221Y-41937011D01*
X31517222Y-41937009D01*
X31546552Y-41901271D01*
X31629814Y-41799814D01*
X31731271Y-41716552D01*
X31767009Y-41687222D01*
X31784913Y-41677652D01*
X31923533Y-41603557D01*
X31980147Y-41586384D01*
X32093373Y-41552037D01*
X32159557Y-41545519D01*
X32225740Y-41539000D01*
X32314260Y-41539000D01*
X32380443Y-41545519D01*
X32380443Y-41545519D01*
G37*
G36*
X37460443Y-41545519D02*
X37526627Y-41552037D01*
X37639853Y-41586384D01*
X37696467Y-41603557D01*
X37835087Y-41677652D01*
X37852991Y-41687222D01*
X37888729Y-41716552D01*
X37990186Y-41799814D01*
X38073448Y-41901271D01*
X38102778Y-41937009D01*
X38102779Y-41937011D01*
X38186443Y-42093533D01*
X38186443Y-42093534D01*
X38237963Y-42263373D01*
X38255359Y-42440000D01*
X38237963Y-42616627D01*
X38203616Y-42729853D01*
X38186443Y-42786467D01*
X38175155Y-42807585D01*
X38102778Y-42942991D01*
X38073448Y-42978729D01*
X37990186Y-43080186D01*
X37888729Y-43163448D01*
X37852991Y-43192778D01*
X37852989Y-43192779D01*
X37696467Y-43276443D01*
X37639853Y-43293616D01*
X37526627Y-43327963D01*
X37460442Y-43334482D01*
X37394260Y-43341000D01*
X37305740Y-43341000D01*
X37239558Y-43334482D01*
X37173373Y-43327963D01*
X37060147Y-43293616D01*
X37003533Y-43276443D01*
X36847011Y-43192779D01*
X36847009Y-43192778D01*
X36811271Y-43163448D01*
X36709814Y-43080186D01*
X36626552Y-42978729D01*
X36597222Y-42942991D01*
X36524845Y-42807585D01*
X36513557Y-42786467D01*
X36496384Y-42729853D01*
X36462037Y-42616627D01*
X36444641Y-42440000D01*
X36462037Y-42263373D01*
X36513557Y-42093534D01*
X36513557Y-42093533D01*
X36597221Y-41937011D01*
X36597222Y-41937009D01*
X36626552Y-41901271D01*
X36709814Y-41799814D01*
X36811271Y-41716552D01*
X36847009Y-41687222D01*
X36864913Y-41677652D01*
X37003533Y-41603557D01*
X37060147Y-41586384D01*
X37173373Y-41552037D01*
X37239557Y-41545519D01*
X37305740Y-41539000D01*
X37394260Y-41539000D01*
X37460443Y-41545519D01*
X37460443Y-41545519D01*
G37*
G36*
X9520442Y-39005518D02*
X9586627Y-39012037D01*
X9699853Y-39046384D01*
X9756467Y-39063557D01*
X9895087Y-39137652D01*
X9912991Y-39147222D01*
X9948729Y-39176552D01*
X10050186Y-39259814D01*
X10133448Y-39361271D01*
X10162778Y-39397009D01*
X10162779Y-39397011D01*
X10246443Y-39553533D01*
X10246443Y-39553534D01*
X10297963Y-39723373D01*
X10315359Y-39900000D01*
X10297963Y-40076627D01*
X10263616Y-40189853D01*
X10246443Y-40246467D01*
X10172348Y-40385087D01*
X10162778Y-40402991D01*
X10133448Y-40438729D01*
X10050186Y-40540186D01*
X9948729Y-40623448D01*
X9912991Y-40652778D01*
X9912989Y-40652779D01*
X9756467Y-40736443D01*
X9699853Y-40753616D01*
X9586627Y-40787963D01*
X9520443Y-40794481D01*
X9454260Y-40801000D01*
X9365740Y-40801000D01*
X9299557Y-40794481D01*
X9233373Y-40787963D01*
X9120147Y-40753616D01*
X9063533Y-40736443D01*
X8907011Y-40652779D01*
X8907009Y-40652778D01*
X8871271Y-40623448D01*
X8769814Y-40540186D01*
X8686552Y-40438729D01*
X8657222Y-40402991D01*
X8647652Y-40385087D01*
X8573557Y-40246467D01*
X8556384Y-40189853D01*
X8522037Y-40076627D01*
X8504641Y-39900000D01*
X8522037Y-39723373D01*
X8573557Y-39553534D01*
X8573557Y-39553533D01*
X8657221Y-39397011D01*
X8657222Y-39397009D01*
X8686552Y-39361271D01*
X8769814Y-39259814D01*
X8871271Y-39176552D01*
X8907009Y-39147222D01*
X8924913Y-39137652D01*
X9063533Y-39063557D01*
X9120147Y-39046384D01*
X9233373Y-39012037D01*
X9299558Y-39005518D01*
X9365740Y-38999000D01*
X9454260Y-38999000D01*
X9520442Y-39005518D01*
X9520442Y-39005518D01*
G37*
G36*
X19680442Y-39005518D02*
X19746627Y-39012037D01*
X19859853Y-39046384D01*
X19916467Y-39063557D01*
X20055087Y-39137652D01*
X20072991Y-39147222D01*
X20108729Y-39176552D01*
X20210186Y-39259814D01*
X20293448Y-39361271D01*
X20322778Y-39397009D01*
X20322779Y-39397011D01*
X20406443Y-39553533D01*
X20406443Y-39553534D01*
X20457963Y-39723373D01*
X20475359Y-39900000D01*
X20457963Y-40076627D01*
X20423616Y-40189853D01*
X20406443Y-40246467D01*
X20332348Y-40385087D01*
X20322778Y-40402991D01*
X20293448Y-40438729D01*
X20210186Y-40540186D01*
X20108729Y-40623448D01*
X20072991Y-40652778D01*
X20072989Y-40652779D01*
X19916467Y-40736443D01*
X19859853Y-40753616D01*
X19746627Y-40787963D01*
X19680443Y-40794481D01*
X19614260Y-40801000D01*
X19525740Y-40801000D01*
X19459557Y-40794481D01*
X19393373Y-40787963D01*
X19280147Y-40753616D01*
X19223533Y-40736443D01*
X19067011Y-40652779D01*
X19067009Y-40652778D01*
X19031271Y-40623448D01*
X18929814Y-40540186D01*
X18846552Y-40438729D01*
X18817222Y-40402991D01*
X18807652Y-40385087D01*
X18733557Y-40246467D01*
X18716384Y-40189853D01*
X18682037Y-40076627D01*
X18664641Y-39900000D01*
X18682037Y-39723373D01*
X18733557Y-39553534D01*
X18733557Y-39553533D01*
X18817221Y-39397011D01*
X18817222Y-39397009D01*
X18846552Y-39361271D01*
X18929814Y-39259814D01*
X19031271Y-39176552D01*
X19067009Y-39147222D01*
X19084913Y-39137652D01*
X19223533Y-39063557D01*
X19280147Y-39046384D01*
X19393373Y-39012037D01*
X19459558Y-39005518D01*
X19525740Y-38999000D01*
X19614260Y-38999000D01*
X19680442Y-39005518D01*
X19680442Y-39005518D01*
G37*
G36*
X6980442Y-39005518D02*
X7046627Y-39012037D01*
X7159853Y-39046384D01*
X7216467Y-39063557D01*
X7355087Y-39137652D01*
X7372991Y-39147222D01*
X7408729Y-39176552D01*
X7510186Y-39259814D01*
X7593448Y-39361271D01*
X7622778Y-39397009D01*
X7622779Y-39397011D01*
X7706443Y-39553533D01*
X7706443Y-39553534D01*
X7757963Y-39723373D01*
X7775359Y-39900000D01*
X7757963Y-40076627D01*
X7723616Y-40189853D01*
X7706443Y-40246467D01*
X7632348Y-40385087D01*
X7622778Y-40402991D01*
X7593448Y-40438729D01*
X7510186Y-40540186D01*
X7408729Y-40623448D01*
X7372991Y-40652778D01*
X7372989Y-40652779D01*
X7216467Y-40736443D01*
X7159853Y-40753616D01*
X7046627Y-40787963D01*
X6980443Y-40794481D01*
X6914260Y-40801000D01*
X6825740Y-40801000D01*
X6759557Y-40794481D01*
X6693373Y-40787963D01*
X6580147Y-40753616D01*
X6523533Y-40736443D01*
X6367011Y-40652779D01*
X6367009Y-40652778D01*
X6331271Y-40623448D01*
X6229814Y-40540186D01*
X6146552Y-40438729D01*
X6117222Y-40402991D01*
X6107652Y-40385087D01*
X6033557Y-40246467D01*
X6016384Y-40189853D01*
X5982037Y-40076627D01*
X5964641Y-39900000D01*
X5982037Y-39723373D01*
X6033557Y-39553534D01*
X6033557Y-39553533D01*
X6117221Y-39397011D01*
X6117222Y-39397009D01*
X6146552Y-39361271D01*
X6229814Y-39259814D01*
X6331271Y-39176552D01*
X6367009Y-39147222D01*
X6384913Y-39137652D01*
X6523533Y-39063557D01*
X6580147Y-39046384D01*
X6693373Y-39012037D01*
X6759558Y-39005518D01*
X6825740Y-38999000D01*
X6914260Y-38999000D01*
X6980442Y-39005518D01*
X6980442Y-39005518D01*
G37*
G36*
X37460442Y-39005518D02*
X37526627Y-39012037D01*
X37639853Y-39046384D01*
X37696467Y-39063557D01*
X37835087Y-39137652D01*
X37852991Y-39147222D01*
X37888729Y-39176552D01*
X37990186Y-39259814D01*
X38073448Y-39361271D01*
X38102778Y-39397009D01*
X38102779Y-39397011D01*
X38186443Y-39553533D01*
X38186443Y-39553534D01*
X38237963Y-39723373D01*
X38255359Y-39900000D01*
X38237963Y-40076627D01*
X38203616Y-40189853D01*
X38186443Y-40246467D01*
X38112348Y-40385087D01*
X38102778Y-40402991D01*
X38073448Y-40438729D01*
X37990186Y-40540186D01*
X37888729Y-40623448D01*
X37852991Y-40652778D01*
X37852989Y-40652779D01*
X37696467Y-40736443D01*
X37639853Y-40753616D01*
X37526627Y-40787963D01*
X37460443Y-40794481D01*
X37394260Y-40801000D01*
X37305740Y-40801000D01*
X37239557Y-40794481D01*
X37173373Y-40787963D01*
X37060147Y-40753616D01*
X37003533Y-40736443D01*
X36847011Y-40652779D01*
X36847009Y-40652778D01*
X36811271Y-40623448D01*
X36709814Y-40540186D01*
X36626552Y-40438729D01*
X36597222Y-40402991D01*
X36587652Y-40385087D01*
X36513557Y-40246467D01*
X36496384Y-40189853D01*
X36462037Y-40076627D01*
X36444641Y-39900000D01*
X36462037Y-39723373D01*
X36513557Y-39553534D01*
X36513557Y-39553533D01*
X36597221Y-39397011D01*
X36597222Y-39397009D01*
X36626552Y-39361271D01*
X36709814Y-39259814D01*
X36811271Y-39176552D01*
X36847009Y-39147222D01*
X36864913Y-39137652D01*
X37003533Y-39063557D01*
X37060147Y-39046384D01*
X37173373Y-39012037D01*
X37239558Y-39005518D01*
X37305740Y-38999000D01*
X37394260Y-38999000D01*
X37460442Y-39005518D01*
X37460442Y-39005518D01*
G37*
G36*
X22220442Y-39005518D02*
X22286627Y-39012037D01*
X22399853Y-39046384D01*
X22456467Y-39063557D01*
X22595087Y-39137652D01*
X22612991Y-39147222D01*
X22648729Y-39176552D01*
X22750186Y-39259814D01*
X22833448Y-39361271D01*
X22862778Y-39397009D01*
X22862779Y-39397011D01*
X22946443Y-39553533D01*
X22946443Y-39553534D01*
X22997963Y-39723373D01*
X23015359Y-39900000D01*
X22997963Y-40076627D01*
X22963616Y-40189853D01*
X22946443Y-40246467D01*
X22872348Y-40385087D01*
X22862778Y-40402991D01*
X22833448Y-40438729D01*
X22750186Y-40540186D01*
X22648729Y-40623448D01*
X22612991Y-40652778D01*
X22612989Y-40652779D01*
X22456467Y-40736443D01*
X22399853Y-40753616D01*
X22286627Y-40787963D01*
X22220443Y-40794481D01*
X22154260Y-40801000D01*
X22065740Y-40801000D01*
X21999557Y-40794481D01*
X21933373Y-40787963D01*
X21820147Y-40753616D01*
X21763533Y-40736443D01*
X21607011Y-40652779D01*
X21607009Y-40652778D01*
X21571271Y-40623448D01*
X21469814Y-40540186D01*
X21386552Y-40438729D01*
X21357222Y-40402991D01*
X21347652Y-40385087D01*
X21273557Y-40246467D01*
X21256384Y-40189853D01*
X21222037Y-40076627D01*
X21204641Y-39900000D01*
X21222037Y-39723373D01*
X21273557Y-39553534D01*
X21273557Y-39553533D01*
X21357221Y-39397011D01*
X21357222Y-39397009D01*
X21386552Y-39361271D01*
X21469814Y-39259814D01*
X21571271Y-39176552D01*
X21607009Y-39147222D01*
X21624913Y-39137652D01*
X21763533Y-39063557D01*
X21820147Y-39046384D01*
X21933373Y-39012037D01*
X21999558Y-39005518D01*
X22065740Y-38999000D01*
X22154260Y-38999000D01*
X22220442Y-39005518D01*
X22220442Y-39005518D01*
G37*
G36*
X14600442Y-39005518D02*
X14666627Y-39012037D01*
X14779853Y-39046384D01*
X14836467Y-39063557D01*
X14975087Y-39137652D01*
X14992991Y-39147222D01*
X15028729Y-39176552D01*
X15130186Y-39259814D01*
X15213448Y-39361271D01*
X15242778Y-39397009D01*
X15242779Y-39397011D01*
X15326443Y-39553533D01*
X15326443Y-39553534D01*
X15377963Y-39723373D01*
X15395359Y-39900000D01*
X15377963Y-40076627D01*
X15343616Y-40189853D01*
X15326443Y-40246467D01*
X15252348Y-40385087D01*
X15242778Y-40402991D01*
X15213448Y-40438729D01*
X15130186Y-40540186D01*
X15028729Y-40623448D01*
X14992991Y-40652778D01*
X14992989Y-40652779D01*
X14836467Y-40736443D01*
X14779853Y-40753616D01*
X14666627Y-40787963D01*
X14600443Y-40794481D01*
X14534260Y-40801000D01*
X14445740Y-40801000D01*
X14379557Y-40794481D01*
X14313373Y-40787963D01*
X14200147Y-40753616D01*
X14143533Y-40736443D01*
X13987011Y-40652779D01*
X13987009Y-40652778D01*
X13951271Y-40623448D01*
X13849814Y-40540186D01*
X13766552Y-40438729D01*
X13737222Y-40402991D01*
X13727652Y-40385087D01*
X13653557Y-40246467D01*
X13636384Y-40189853D01*
X13602037Y-40076627D01*
X13584641Y-39900000D01*
X13602037Y-39723373D01*
X13653557Y-39553534D01*
X13653557Y-39553533D01*
X13737221Y-39397011D01*
X13737222Y-39397009D01*
X13766552Y-39361271D01*
X13849814Y-39259814D01*
X13951271Y-39176552D01*
X13987009Y-39147222D01*
X14004913Y-39137652D01*
X14143533Y-39063557D01*
X14200147Y-39046384D01*
X14313373Y-39012037D01*
X14379558Y-39005518D01*
X14445740Y-38999000D01*
X14534260Y-38999000D01*
X14600442Y-39005518D01*
X14600442Y-39005518D01*
G37*
G36*
X24760442Y-39005518D02*
X24826627Y-39012037D01*
X24939853Y-39046384D01*
X24996467Y-39063557D01*
X25135087Y-39137652D01*
X25152991Y-39147222D01*
X25188729Y-39176552D01*
X25290186Y-39259814D01*
X25373448Y-39361271D01*
X25402778Y-39397009D01*
X25402779Y-39397011D01*
X25486443Y-39553533D01*
X25486443Y-39553534D01*
X25537963Y-39723373D01*
X25555359Y-39900000D01*
X25537963Y-40076627D01*
X25503616Y-40189853D01*
X25486443Y-40246467D01*
X25412348Y-40385087D01*
X25402778Y-40402991D01*
X25373448Y-40438729D01*
X25290186Y-40540186D01*
X25188729Y-40623448D01*
X25152991Y-40652778D01*
X25152989Y-40652779D01*
X24996467Y-40736443D01*
X24939853Y-40753616D01*
X24826627Y-40787963D01*
X24760443Y-40794481D01*
X24694260Y-40801000D01*
X24605740Y-40801000D01*
X24539557Y-40794481D01*
X24473373Y-40787963D01*
X24360147Y-40753616D01*
X24303533Y-40736443D01*
X24147011Y-40652779D01*
X24147009Y-40652778D01*
X24111271Y-40623448D01*
X24009814Y-40540186D01*
X23926552Y-40438729D01*
X23897222Y-40402991D01*
X23887652Y-40385087D01*
X23813557Y-40246467D01*
X23796384Y-40189853D01*
X23762037Y-40076627D01*
X23744641Y-39900000D01*
X23762037Y-39723373D01*
X23813557Y-39553534D01*
X23813557Y-39553533D01*
X23897221Y-39397011D01*
X23897222Y-39397009D01*
X23926552Y-39361271D01*
X24009814Y-39259814D01*
X24111271Y-39176552D01*
X24147009Y-39147222D01*
X24164913Y-39137652D01*
X24303533Y-39063557D01*
X24360147Y-39046384D01*
X24473373Y-39012037D01*
X24539558Y-39005518D01*
X24605740Y-38999000D01*
X24694260Y-38999000D01*
X24760442Y-39005518D01*
X24760442Y-39005518D01*
G37*
G36*
X12060442Y-39005518D02*
X12126627Y-39012037D01*
X12239853Y-39046384D01*
X12296467Y-39063557D01*
X12435087Y-39137652D01*
X12452991Y-39147222D01*
X12488729Y-39176552D01*
X12590186Y-39259814D01*
X12673448Y-39361271D01*
X12702778Y-39397009D01*
X12702779Y-39397011D01*
X12786443Y-39553533D01*
X12786443Y-39553534D01*
X12837963Y-39723373D01*
X12855359Y-39900000D01*
X12837963Y-40076627D01*
X12803616Y-40189853D01*
X12786443Y-40246467D01*
X12712348Y-40385087D01*
X12702778Y-40402991D01*
X12673448Y-40438729D01*
X12590186Y-40540186D01*
X12488729Y-40623448D01*
X12452991Y-40652778D01*
X12452989Y-40652779D01*
X12296467Y-40736443D01*
X12239853Y-40753616D01*
X12126627Y-40787963D01*
X12060443Y-40794481D01*
X11994260Y-40801000D01*
X11905740Y-40801000D01*
X11839557Y-40794481D01*
X11773373Y-40787963D01*
X11660147Y-40753616D01*
X11603533Y-40736443D01*
X11447011Y-40652779D01*
X11447009Y-40652778D01*
X11411271Y-40623448D01*
X11309814Y-40540186D01*
X11226552Y-40438729D01*
X11197222Y-40402991D01*
X11187652Y-40385087D01*
X11113557Y-40246467D01*
X11096384Y-40189853D01*
X11062037Y-40076627D01*
X11044641Y-39900000D01*
X11062037Y-39723373D01*
X11113557Y-39553534D01*
X11113557Y-39553533D01*
X11197221Y-39397011D01*
X11197222Y-39397009D01*
X11226552Y-39361271D01*
X11309814Y-39259814D01*
X11411271Y-39176552D01*
X11447009Y-39147222D01*
X11464913Y-39137652D01*
X11603533Y-39063557D01*
X11660147Y-39046384D01*
X11773373Y-39012037D01*
X11839558Y-39005518D01*
X11905740Y-38999000D01*
X11994260Y-38999000D01*
X12060442Y-39005518D01*
X12060442Y-39005518D01*
G37*
G36*
X17140442Y-39005518D02*
X17206627Y-39012037D01*
X17319853Y-39046384D01*
X17376467Y-39063557D01*
X17515087Y-39137652D01*
X17532991Y-39147222D01*
X17568729Y-39176552D01*
X17670186Y-39259814D01*
X17753448Y-39361271D01*
X17782778Y-39397009D01*
X17782779Y-39397011D01*
X17866443Y-39553533D01*
X17866443Y-39553534D01*
X17917963Y-39723373D01*
X17935359Y-39900000D01*
X17917963Y-40076627D01*
X17883616Y-40189853D01*
X17866443Y-40246467D01*
X17792348Y-40385087D01*
X17782778Y-40402991D01*
X17753448Y-40438729D01*
X17670186Y-40540186D01*
X17568729Y-40623448D01*
X17532991Y-40652778D01*
X17532989Y-40652779D01*
X17376467Y-40736443D01*
X17319853Y-40753616D01*
X17206627Y-40787963D01*
X17140443Y-40794481D01*
X17074260Y-40801000D01*
X16985740Y-40801000D01*
X16919557Y-40794481D01*
X16853373Y-40787963D01*
X16740147Y-40753616D01*
X16683533Y-40736443D01*
X16527011Y-40652779D01*
X16527009Y-40652778D01*
X16491271Y-40623448D01*
X16389814Y-40540186D01*
X16306552Y-40438729D01*
X16277222Y-40402991D01*
X16267652Y-40385087D01*
X16193557Y-40246467D01*
X16176384Y-40189853D01*
X16142037Y-40076627D01*
X16124641Y-39900000D01*
X16142037Y-39723373D01*
X16193557Y-39553534D01*
X16193557Y-39553533D01*
X16277221Y-39397011D01*
X16277222Y-39397009D01*
X16306552Y-39361271D01*
X16389814Y-39259814D01*
X16491271Y-39176552D01*
X16527009Y-39147222D01*
X16544913Y-39137652D01*
X16683533Y-39063557D01*
X16740147Y-39046384D01*
X16853373Y-39012037D01*
X16919558Y-39005518D01*
X16985740Y-38999000D01*
X17074260Y-38999000D01*
X17140442Y-39005518D01*
X17140442Y-39005518D01*
G37*
G36*
X29840442Y-39005518D02*
X29906627Y-39012037D01*
X30019853Y-39046384D01*
X30076467Y-39063557D01*
X30215087Y-39137652D01*
X30232991Y-39147222D01*
X30268729Y-39176552D01*
X30370186Y-39259814D01*
X30453448Y-39361271D01*
X30482778Y-39397009D01*
X30482779Y-39397011D01*
X30566443Y-39553533D01*
X30566443Y-39553534D01*
X30617963Y-39723373D01*
X30635359Y-39900000D01*
X30617963Y-40076627D01*
X30583616Y-40189853D01*
X30566443Y-40246467D01*
X30492348Y-40385087D01*
X30482778Y-40402991D01*
X30453448Y-40438729D01*
X30370186Y-40540186D01*
X30268729Y-40623448D01*
X30232991Y-40652778D01*
X30232989Y-40652779D01*
X30076467Y-40736443D01*
X30019853Y-40753616D01*
X29906627Y-40787963D01*
X29840443Y-40794481D01*
X29774260Y-40801000D01*
X29685740Y-40801000D01*
X29619557Y-40794481D01*
X29553373Y-40787963D01*
X29440147Y-40753616D01*
X29383533Y-40736443D01*
X29227011Y-40652779D01*
X29227009Y-40652778D01*
X29191271Y-40623448D01*
X29089814Y-40540186D01*
X29006552Y-40438729D01*
X28977222Y-40402991D01*
X28967652Y-40385087D01*
X28893557Y-40246467D01*
X28876384Y-40189853D01*
X28842037Y-40076627D01*
X28824641Y-39900000D01*
X28842037Y-39723373D01*
X28893557Y-39553534D01*
X28893557Y-39553533D01*
X28977221Y-39397011D01*
X28977222Y-39397009D01*
X29006552Y-39361271D01*
X29089814Y-39259814D01*
X29191271Y-39176552D01*
X29227009Y-39147222D01*
X29244913Y-39137652D01*
X29383533Y-39063557D01*
X29440147Y-39046384D01*
X29553373Y-39012037D01*
X29619558Y-39005518D01*
X29685740Y-38999000D01*
X29774260Y-38999000D01*
X29840442Y-39005518D01*
X29840442Y-39005518D01*
G37*
G36*
X34920442Y-39005518D02*
X34986627Y-39012037D01*
X35099853Y-39046384D01*
X35156467Y-39063557D01*
X35295087Y-39137652D01*
X35312991Y-39147222D01*
X35348729Y-39176552D01*
X35450186Y-39259814D01*
X35533448Y-39361271D01*
X35562778Y-39397009D01*
X35562779Y-39397011D01*
X35646443Y-39553533D01*
X35646443Y-39553534D01*
X35697963Y-39723373D01*
X35715359Y-39900000D01*
X35697963Y-40076627D01*
X35663616Y-40189853D01*
X35646443Y-40246467D01*
X35572348Y-40385087D01*
X35562778Y-40402991D01*
X35533448Y-40438729D01*
X35450186Y-40540186D01*
X35348729Y-40623448D01*
X35312991Y-40652778D01*
X35312989Y-40652779D01*
X35156467Y-40736443D01*
X35099853Y-40753616D01*
X34986627Y-40787963D01*
X34920443Y-40794481D01*
X34854260Y-40801000D01*
X34765740Y-40801000D01*
X34699557Y-40794481D01*
X34633373Y-40787963D01*
X34520147Y-40753616D01*
X34463533Y-40736443D01*
X34307011Y-40652779D01*
X34307009Y-40652778D01*
X34271271Y-40623448D01*
X34169814Y-40540186D01*
X34086552Y-40438729D01*
X34057222Y-40402991D01*
X34047652Y-40385087D01*
X33973557Y-40246467D01*
X33956384Y-40189853D01*
X33922037Y-40076627D01*
X33904641Y-39900000D01*
X33922037Y-39723373D01*
X33973557Y-39553534D01*
X33973557Y-39553533D01*
X34057221Y-39397011D01*
X34057222Y-39397009D01*
X34086552Y-39361271D01*
X34169814Y-39259814D01*
X34271271Y-39176552D01*
X34307009Y-39147222D01*
X34324913Y-39137652D01*
X34463533Y-39063557D01*
X34520147Y-39046384D01*
X34633373Y-39012037D01*
X34699558Y-39005518D01*
X34765740Y-38999000D01*
X34854260Y-38999000D01*
X34920442Y-39005518D01*
X34920442Y-39005518D01*
G37*
G36*
X32380442Y-39005518D02*
X32446627Y-39012037D01*
X32559853Y-39046384D01*
X32616467Y-39063557D01*
X32755087Y-39137652D01*
X32772991Y-39147222D01*
X32808729Y-39176552D01*
X32910186Y-39259814D01*
X32993448Y-39361271D01*
X33022778Y-39397009D01*
X33022779Y-39397011D01*
X33106443Y-39553533D01*
X33106443Y-39553534D01*
X33157963Y-39723373D01*
X33175359Y-39900000D01*
X33157963Y-40076627D01*
X33123616Y-40189853D01*
X33106443Y-40246467D01*
X33032348Y-40385087D01*
X33022778Y-40402991D01*
X32993448Y-40438729D01*
X32910186Y-40540186D01*
X32808729Y-40623448D01*
X32772991Y-40652778D01*
X32772989Y-40652779D01*
X32616467Y-40736443D01*
X32559853Y-40753616D01*
X32446627Y-40787963D01*
X32380443Y-40794481D01*
X32314260Y-40801000D01*
X32225740Y-40801000D01*
X32159557Y-40794481D01*
X32093373Y-40787963D01*
X31980147Y-40753616D01*
X31923533Y-40736443D01*
X31767011Y-40652779D01*
X31767009Y-40652778D01*
X31731271Y-40623448D01*
X31629814Y-40540186D01*
X31546552Y-40438729D01*
X31517222Y-40402991D01*
X31507652Y-40385087D01*
X31433557Y-40246467D01*
X31416384Y-40189853D01*
X31382037Y-40076627D01*
X31364641Y-39900000D01*
X31382037Y-39723373D01*
X31433557Y-39553534D01*
X31433557Y-39553533D01*
X31517221Y-39397011D01*
X31517222Y-39397009D01*
X31546552Y-39361271D01*
X31629814Y-39259814D01*
X31731271Y-39176552D01*
X31767009Y-39147222D01*
X31784913Y-39137652D01*
X31923533Y-39063557D01*
X31980147Y-39046384D01*
X32093373Y-39012037D01*
X32159558Y-39005518D01*
X32225740Y-38999000D01*
X32314260Y-38999000D01*
X32380442Y-39005518D01*
X32380442Y-39005518D01*
G37*
G36*
X40000442Y-39005518D02*
X40066627Y-39012037D01*
X40179853Y-39046384D01*
X40236467Y-39063557D01*
X40375087Y-39137652D01*
X40392991Y-39147222D01*
X40428729Y-39176552D01*
X40530186Y-39259814D01*
X40613448Y-39361271D01*
X40642778Y-39397009D01*
X40642779Y-39397011D01*
X40726443Y-39553533D01*
X40726443Y-39553534D01*
X40777963Y-39723373D01*
X40795359Y-39900000D01*
X40777963Y-40076627D01*
X40743616Y-40189853D01*
X40726443Y-40246467D01*
X40652348Y-40385087D01*
X40642778Y-40402991D01*
X40613448Y-40438729D01*
X40530186Y-40540186D01*
X40428729Y-40623448D01*
X40392991Y-40652778D01*
X40392989Y-40652779D01*
X40236467Y-40736443D01*
X40179853Y-40753616D01*
X40066627Y-40787963D01*
X40000443Y-40794481D01*
X39934260Y-40801000D01*
X39845740Y-40801000D01*
X39779557Y-40794481D01*
X39713373Y-40787963D01*
X39600147Y-40753616D01*
X39543533Y-40736443D01*
X39387011Y-40652779D01*
X39387009Y-40652778D01*
X39351271Y-40623448D01*
X39249814Y-40540186D01*
X39166552Y-40438729D01*
X39137222Y-40402991D01*
X39127652Y-40385087D01*
X39053557Y-40246467D01*
X39036384Y-40189853D01*
X39002037Y-40076627D01*
X38984641Y-39900000D01*
X39002037Y-39723373D01*
X39053557Y-39553534D01*
X39053557Y-39553533D01*
X39137221Y-39397011D01*
X39137222Y-39397009D01*
X39166552Y-39361271D01*
X39249814Y-39259814D01*
X39351271Y-39176552D01*
X39387009Y-39147222D01*
X39404913Y-39137652D01*
X39543533Y-39063557D01*
X39600147Y-39046384D01*
X39713373Y-39012037D01*
X39779558Y-39005518D01*
X39845740Y-38999000D01*
X39934260Y-38999000D01*
X40000442Y-39005518D01*
X40000442Y-39005518D01*
G37*
G36*
X27300442Y-39005518D02*
X27366627Y-39012037D01*
X27479853Y-39046384D01*
X27536467Y-39063557D01*
X27675087Y-39137652D01*
X27692991Y-39147222D01*
X27728729Y-39176552D01*
X27830186Y-39259814D01*
X27913448Y-39361271D01*
X27942778Y-39397009D01*
X27942779Y-39397011D01*
X28026443Y-39553533D01*
X28026443Y-39553534D01*
X28077963Y-39723373D01*
X28095359Y-39900000D01*
X28077963Y-40076627D01*
X28043616Y-40189853D01*
X28026443Y-40246467D01*
X27952348Y-40385087D01*
X27942778Y-40402991D01*
X27913448Y-40438729D01*
X27830186Y-40540186D01*
X27728729Y-40623448D01*
X27692991Y-40652778D01*
X27692989Y-40652779D01*
X27536467Y-40736443D01*
X27479853Y-40753616D01*
X27366627Y-40787963D01*
X27300443Y-40794481D01*
X27234260Y-40801000D01*
X27145740Y-40801000D01*
X27079557Y-40794481D01*
X27013373Y-40787963D01*
X26900147Y-40753616D01*
X26843533Y-40736443D01*
X26687011Y-40652779D01*
X26687009Y-40652778D01*
X26651271Y-40623448D01*
X26549814Y-40540186D01*
X26466552Y-40438729D01*
X26437222Y-40402991D01*
X26427652Y-40385087D01*
X26353557Y-40246467D01*
X26336384Y-40189853D01*
X26302037Y-40076627D01*
X26284641Y-39900000D01*
X26302037Y-39723373D01*
X26353557Y-39553534D01*
X26353557Y-39553533D01*
X26437221Y-39397011D01*
X26437222Y-39397009D01*
X26466552Y-39361271D01*
X26549814Y-39259814D01*
X26651271Y-39176552D01*
X26687009Y-39147222D01*
X26704913Y-39137652D01*
X26843533Y-39063557D01*
X26900147Y-39046384D01*
X27013373Y-39012037D01*
X27079558Y-39005518D01*
X27145740Y-38999000D01*
X27234260Y-38999000D01*
X27300442Y-39005518D01*
X27300442Y-39005518D01*
G37*
G36*
X41204867Y-35578051D02*
X39859949Y-36922969D01*
X38515031Y-35578051D01*
X39859949Y-34233133D01*
X41204867Y-35578051D01*
X41204867Y-35578051D01*
G37*
G36*
X6772447Y-34282597D02*
X6945517Y-34354285D01*
X7101281Y-34458363D01*
X7233739Y-34590821D01*
X7337817Y-34746585D01*
X7409505Y-34919655D01*
X7446051Y-35103384D01*
X7446051Y-35290718D01*
X7409505Y-35474447D01*
X7337817Y-35647517D01*
X7233739Y-35803281D01*
X7101281Y-35935739D01*
X6945517Y-36039817D01*
X6772447Y-36111505D01*
X6588718Y-36148051D01*
X6401384Y-36148051D01*
X6217655Y-36111505D01*
X6044585Y-36039817D01*
X5888821Y-35935739D01*
X5756363Y-35803281D01*
X5652285Y-35647517D01*
X5580597Y-35474447D01*
X5544051Y-35290718D01*
X5544051Y-35103384D01*
X5580597Y-34919655D01*
X5652285Y-34746585D01*
X5756363Y-34590821D01*
X5888821Y-34458363D01*
X6044585Y-34354285D01*
X6217655Y-34282597D01*
X6401384Y-34246051D01*
X6588718Y-34246051D01*
X6772447Y-34282597D01*
X6772447Y-34282597D01*
G37*
G36*
X33605694Y-33642633D02*
X33778094Y-33694931D01*
X33778096Y-33694932D01*
X33936983Y-33779859D01*
X34076249Y-33894151D01*
X34169048Y-34007227D01*
X34190540Y-34033416D01*
X34275469Y-34192306D01*
X34327767Y-34364706D01*
X34345425Y-34544000D01*
X34327767Y-34723294D01*
X34275469Y-34895694D01*
X34275468Y-34895696D01*
X34190541Y-35054583D01*
X34076249Y-35193849D01*
X33936983Y-35308141D01*
X33778096Y-35393068D01*
X33778094Y-35393069D01*
X33605694Y-35445367D01*
X33471331Y-35458600D01*
X33076669Y-35458600D01*
X32942306Y-35445367D01*
X32769906Y-35393069D01*
X32769904Y-35393068D01*
X32611017Y-35308141D01*
X32471751Y-35193849D01*
X32357459Y-35054583D01*
X32272532Y-34895696D01*
X32272531Y-34895694D01*
X32220233Y-34723294D01*
X32202575Y-34544000D01*
X32220233Y-34364706D01*
X32272531Y-34192306D01*
X32357460Y-34033416D01*
X32378953Y-34007227D01*
X32471751Y-33894151D01*
X32611017Y-33779859D01*
X32769904Y-33694932D01*
X32769906Y-33694931D01*
X32942306Y-33642633D01*
X33076669Y-33629400D01*
X33471331Y-33629400D01*
X33605694Y-33642633D01*
X33605694Y-33642633D01*
G37*
G36*
X41933396Y-32867546D02*
X42106466Y-32939234D01*
X42262230Y-33043312D01*
X42394688Y-33175770D01*
X42498766Y-33331534D01*
X42570454Y-33504604D01*
X42607000Y-33688333D01*
X42607000Y-33875667D01*
X42570454Y-34059396D01*
X42498766Y-34232466D01*
X42394688Y-34388230D01*
X42262230Y-34520688D01*
X42106466Y-34624766D01*
X41933396Y-34696454D01*
X41749667Y-34733000D01*
X41562333Y-34733000D01*
X41378604Y-34696454D01*
X41205534Y-34624766D01*
X41049770Y-34520688D01*
X40917312Y-34388230D01*
X40813234Y-34232466D01*
X40741546Y-34059396D01*
X40705000Y-33875667D01*
X40705000Y-33688333D01*
X40741546Y-33504604D01*
X40813234Y-33331534D01*
X40917312Y-33175770D01*
X41049770Y-33043312D01*
X41205534Y-32939234D01*
X41378604Y-32867546D01*
X41562333Y-32831000D01*
X41749667Y-32831000D01*
X41933396Y-32867546D01*
X41933396Y-32867546D01*
G37*
G36*
X4976396Y-32486546D02*
X5149466Y-32558234D01*
X5305230Y-32662312D01*
X5437688Y-32794770D01*
X5541766Y-32950534D01*
X5613454Y-33123604D01*
X5650000Y-33307333D01*
X5650000Y-33494667D01*
X5613454Y-33678396D01*
X5541766Y-33851466D01*
X5437688Y-34007230D01*
X5305230Y-34139688D01*
X5149466Y-34243766D01*
X4976396Y-34315454D01*
X4792667Y-34352000D01*
X4605333Y-34352000D01*
X4421604Y-34315454D01*
X4248534Y-34243766D01*
X4092770Y-34139688D01*
X3960312Y-34007230D01*
X3856234Y-33851466D01*
X3784546Y-33678396D01*
X3748000Y-33494667D01*
X3748000Y-33307333D01*
X3784546Y-33123604D01*
X3856234Y-32950534D01*
X3960312Y-32794770D01*
X4092770Y-32662312D01*
X4248534Y-32558234D01*
X4421604Y-32486546D01*
X4605333Y-32450000D01*
X4792667Y-32450000D01*
X4976396Y-32486546D01*
X4976396Y-32486546D01*
G37*
G36*
X4247867Y-31604949D02*
X2902949Y-32949867D01*
X1558031Y-31604949D01*
X2902949Y-30260031D01*
X4247867Y-31604949D01*
X4247867Y-31604949D01*
G37*
G36*
X43729447Y-31071495D02*
X43902517Y-31143183D01*
X44058281Y-31247261D01*
X44190739Y-31379719D01*
X44294817Y-31535483D01*
X44366505Y-31708553D01*
X44403051Y-31892282D01*
X44403051Y-32079616D01*
X44366505Y-32263345D01*
X44294817Y-32436415D01*
X44190739Y-32592179D01*
X44058281Y-32724637D01*
X43902517Y-32828715D01*
X43729447Y-32900403D01*
X43545718Y-32936949D01*
X43358384Y-32936949D01*
X43174655Y-32900403D01*
X43001585Y-32828715D01*
X42845821Y-32724637D01*
X42713363Y-32592179D01*
X42609285Y-32436415D01*
X42537597Y-32263345D01*
X42501051Y-32079616D01*
X42501051Y-31892282D01*
X42537597Y-31708553D01*
X42609285Y-31535483D01*
X42713363Y-31379719D01*
X42845821Y-31247261D01*
X43001585Y-31143183D01*
X43174655Y-31071495D01*
X43358384Y-31034949D01*
X43545718Y-31034949D01*
X43729447Y-31071495D01*
X43729447Y-31071495D01*
G37*
G36*
X33605694Y-31102633D02*
X33778094Y-31154931D01*
X33778096Y-31154932D01*
X33936983Y-31239859D01*
X34076249Y-31354151D01*
X34190541Y-31493417D01*
X34250156Y-31604949D01*
X34275469Y-31652306D01*
X34327767Y-31824706D01*
X34345425Y-32004000D01*
X34327767Y-32183294D01*
X34275469Y-32355694D01*
X34275468Y-32355696D01*
X34190541Y-32514583D01*
X34076249Y-32653849D01*
X33936983Y-32768141D01*
X33823659Y-32828714D01*
X33778094Y-32853069D01*
X33605694Y-32905367D01*
X33471331Y-32918600D01*
X33076669Y-32918600D01*
X32942306Y-32905367D01*
X32769906Y-32853069D01*
X32724341Y-32828714D01*
X32611017Y-32768141D01*
X32471751Y-32653849D01*
X32357459Y-32514583D01*
X32272532Y-32355696D01*
X32272531Y-32355694D01*
X32220233Y-32183294D01*
X32202575Y-32004000D01*
X32220233Y-31824706D01*
X32272531Y-31652306D01*
X32297844Y-31604949D01*
X32357459Y-31493417D01*
X32471751Y-31354151D01*
X32611017Y-31239859D01*
X32769904Y-31154932D01*
X32769906Y-31154931D01*
X32942306Y-31102633D01*
X33076669Y-31089400D01*
X33471331Y-31089400D01*
X33605694Y-31102633D01*
X33605694Y-31102633D01*
G37*
G36*
X33605694Y-28562633D02*
X33778094Y-28614931D01*
X33778096Y-28614932D01*
X33936983Y-28699859D01*
X33936985Y-28699860D01*
X33936984Y-28699860D01*
X34076249Y-28814151D01*
X34190540Y-28953416D01*
X34275469Y-29112306D01*
X34327767Y-29284706D01*
X34345425Y-29464000D01*
X34327767Y-29643294D01*
X34275469Y-29815694D01*
X34275468Y-29815696D01*
X34190541Y-29974583D01*
X34076249Y-30113849D01*
X33936983Y-30228141D01*
X33877321Y-30260031D01*
X33778094Y-30313069D01*
X33605694Y-30365367D01*
X33471331Y-30378600D01*
X33076669Y-30378600D01*
X32942306Y-30365367D01*
X32769906Y-30313069D01*
X32670679Y-30260031D01*
X32611017Y-30228141D01*
X32471751Y-30113849D01*
X32357459Y-29974583D01*
X32272532Y-29815696D01*
X32272531Y-29815694D01*
X32220233Y-29643294D01*
X32202575Y-29464000D01*
X32220233Y-29284706D01*
X32272531Y-29112306D01*
X32357460Y-28953416D01*
X32471751Y-28814151D01*
X32611016Y-28699860D01*
X32611015Y-28699860D01*
X32611017Y-28699859D01*
X32769904Y-28614932D01*
X32769906Y-28614931D01*
X32942306Y-28562633D01*
X33076669Y-28549400D01*
X33471331Y-28549400D01*
X33605694Y-28562633D01*
X33605694Y-28562633D01*
G37*
G36*
X34341000Y-27838600D02*
X32207000Y-27838600D01*
X32207000Y-26009400D01*
X34341000Y-26009400D01*
X34341000Y-27838600D01*
X34341000Y-27838600D01*
G37*
G36*
X22541000Y-26732000D02*
X20639000Y-26732000D01*
X20639000Y-24830000D01*
X22541000Y-24830000D01*
X22541000Y-26732000D01*
X22541000Y-26732000D01*
G37*
G36*
X24407396Y-24866546D02*
X24580466Y-24938234D01*
X24736230Y-25042312D01*
X24868688Y-25174770D01*
X24972766Y-25330534D01*
X25044454Y-25503604D01*
X25081000Y-25687333D01*
X25081000Y-25874667D01*
X25044454Y-26058396D01*
X24972766Y-26231466D01*
X24868688Y-26387230D01*
X24736230Y-26519688D01*
X24580466Y-26623766D01*
X24407396Y-26695454D01*
X24223667Y-26732000D01*
X24036333Y-26732000D01*
X23852604Y-26695454D01*
X23679534Y-26623766D01*
X23523770Y-26519688D01*
X23391312Y-26387230D01*
X23287234Y-26231466D01*
X23215546Y-26058396D01*
X23179000Y-25874667D01*
X23179000Y-25687333D01*
X23215546Y-25503604D01*
X23287234Y-25330534D01*
X23391312Y-25174770D01*
X23523770Y-25042312D01*
X23679534Y-24938234D01*
X23852604Y-24866546D01*
X24036333Y-24830000D01*
X24223667Y-24830000D01*
X24407396Y-24866546D01*
X24407396Y-24866546D01*
G37*
G36*
X18692396Y-23256251D02*
X18865466Y-23327939D01*
X19021230Y-23432017D01*
X19153688Y-23564475D01*
X19257766Y-23720239D01*
X19329454Y-23893309D01*
X19366000Y-24077038D01*
X19366000Y-24264372D01*
X19329454Y-24448101D01*
X19257766Y-24621171D01*
X19153688Y-24776935D01*
X19021230Y-24909393D01*
X18865466Y-25013471D01*
X18692396Y-25085159D01*
X18508667Y-25121705D01*
X18321333Y-25121705D01*
X18137604Y-25085159D01*
X17964534Y-25013471D01*
X17808770Y-24909393D01*
X17676312Y-24776935D01*
X17572234Y-24621171D01*
X17500546Y-24448101D01*
X17464000Y-24264372D01*
X17464000Y-24077038D01*
X17500546Y-23893309D01*
X17572234Y-23720239D01*
X17676312Y-23564475D01*
X17808770Y-23432017D01*
X17964534Y-23327939D01*
X18137604Y-23256251D01*
X18321333Y-23219705D01*
X18508667Y-23219705D01*
X18692396Y-23256251D01*
X18692396Y-23256251D01*
G37*
G36*
X28604090Y-22892910D02*
X27653090Y-24540090D01*
X26005910Y-23589090D01*
X26956910Y-21941910D01*
X28604090Y-22892910D01*
X28604090Y-22892910D01*
G37*
G36*
X18444090Y-22319090D02*
X16796910Y-23270090D01*
X15845910Y-21622910D01*
X17493090Y-20671910D01*
X18444090Y-22319090D01*
X18444090Y-22319090D01*
G37*
G36*
X23811000Y-22287000D02*
X21909000Y-22287000D01*
X21909000Y-20385000D01*
X23811000Y-20385000D01*
X23811000Y-22287000D01*
X23811000Y-22287000D01*
G37*
G36*
X3125694Y-20434633D02*
X3298094Y-20486931D01*
X3298096Y-20486932D01*
X3456983Y-20571859D01*
X3456985Y-20571860D01*
X3456984Y-20571860D01*
X3596249Y-20686151D01*
X3710540Y-20825416D01*
X3795469Y-20984306D01*
X3847767Y-21156706D01*
X3865425Y-21336000D01*
X3847767Y-21515294D01*
X3815121Y-21622910D01*
X3795468Y-21687696D01*
X3710541Y-21846583D01*
X3596249Y-21985849D01*
X3456983Y-22100141D01*
X3298096Y-22185068D01*
X3298094Y-22185069D01*
X3125694Y-22237367D01*
X2991331Y-22250600D01*
X2596669Y-22250600D01*
X2462306Y-22237367D01*
X2289906Y-22185069D01*
X2289904Y-22185068D01*
X2131017Y-22100141D01*
X1991751Y-21985849D01*
X1877459Y-21846583D01*
X1792532Y-21687696D01*
X1772879Y-21622910D01*
X1740233Y-21515294D01*
X1722575Y-21336000D01*
X1740233Y-21156706D01*
X1792531Y-20984306D01*
X1877460Y-20825416D01*
X1991751Y-20686151D01*
X2131016Y-20571860D01*
X2131015Y-20571860D01*
X2131017Y-20571859D01*
X2289904Y-20486932D01*
X2289906Y-20486931D01*
X2462306Y-20434633D01*
X2596669Y-20421400D01*
X2991331Y-20421400D01*
X3125694Y-20434633D01*
X3125694Y-20434633D01*
G37*
G36*
X28852396Y-20126841D02*
X29025466Y-20198529D01*
X29181230Y-20302607D01*
X29313688Y-20435065D01*
X29417766Y-20590829D01*
X29489454Y-20763899D01*
X29526000Y-20947628D01*
X29526000Y-21134962D01*
X29489454Y-21318691D01*
X29417766Y-21491761D01*
X29313688Y-21647525D01*
X29181230Y-21779983D01*
X29025466Y-21884061D01*
X28852396Y-21955749D01*
X28668667Y-21992295D01*
X28481333Y-21992295D01*
X28297604Y-21955749D01*
X28124534Y-21884061D01*
X27968770Y-21779983D01*
X27836312Y-21647525D01*
X27732234Y-21491761D01*
X27660546Y-21318691D01*
X27624000Y-21134962D01*
X27624000Y-20947628D01*
X27660546Y-20763899D01*
X27732234Y-20590829D01*
X27836312Y-20435065D01*
X27968770Y-20302607D01*
X28124534Y-20198529D01*
X28297604Y-20126841D01*
X28481333Y-20090295D01*
X28668667Y-20090295D01*
X28852396Y-20126841D01*
X28852396Y-20126841D01*
G37*
G36*
X23137396Y-17881546D02*
X23310466Y-17953234D01*
X23466230Y-18057312D01*
X23598688Y-18189770D01*
X23702766Y-18345534D01*
X23774454Y-18518604D01*
X23811000Y-18702333D01*
X23811000Y-18889667D01*
X23774454Y-19073396D01*
X23702766Y-19246466D01*
X23598688Y-19402230D01*
X23466230Y-19534688D01*
X23310466Y-19638766D01*
X23137396Y-19710454D01*
X22953667Y-19747000D01*
X22766333Y-19747000D01*
X22582604Y-19710454D01*
X22409534Y-19638766D01*
X22253770Y-19534688D01*
X22121312Y-19402230D01*
X22017234Y-19246466D01*
X21945546Y-19073396D01*
X21909000Y-18889667D01*
X21909000Y-18702333D01*
X21945546Y-18518604D01*
X22017234Y-18345534D01*
X22121312Y-18189770D01*
X22253770Y-18057312D01*
X22409534Y-17953234D01*
X22582604Y-17881546D01*
X22766333Y-17845000D01*
X22953667Y-17845000D01*
X23137396Y-17881546D01*
X23137396Y-17881546D01*
G37*
G36*
X3125694Y-17894633D02*
X3298094Y-17946931D01*
X3298096Y-17946932D01*
X3456983Y-18031859D01*
X3596249Y-18146151D01*
X3710541Y-18285417D01*
X3742674Y-18345534D01*
X3795469Y-18444306D01*
X3847767Y-18616706D01*
X3865425Y-18796000D01*
X3847767Y-18975294D01*
X3795469Y-19147694D01*
X3795468Y-19147696D01*
X3710541Y-19306583D01*
X3596249Y-19445849D01*
X3456983Y-19560141D01*
X3309888Y-19638765D01*
X3298094Y-19645069D01*
X3125694Y-19697367D01*
X2991331Y-19710600D01*
X2596669Y-19710600D01*
X2462306Y-19697367D01*
X2289906Y-19645069D01*
X2278112Y-19638765D01*
X2131017Y-19560141D01*
X1991751Y-19445849D01*
X1877459Y-19306583D01*
X1792532Y-19147696D01*
X1792531Y-19147694D01*
X1740233Y-18975294D01*
X1722575Y-18796000D01*
X1740233Y-18616706D01*
X1792531Y-18444306D01*
X1845326Y-18345534D01*
X1877459Y-18285417D01*
X1991751Y-18146151D01*
X2131017Y-18031859D01*
X2289904Y-17946932D01*
X2289906Y-17946931D01*
X2462306Y-17894633D01*
X2596669Y-17881400D01*
X2991331Y-17881400D01*
X3125694Y-17894633D01*
X3125694Y-17894633D01*
G37*
G36*
X29874090Y-18509090D02*
X28226910Y-19460090D01*
X27275910Y-17812910D01*
X28923090Y-16861910D01*
X29874090Y-18509090D01*
X29874090Y-18509090D01*
G37*
G36*
X17422396Y-17246546D02*
X17595466Y-17318234D01*
X17751230Y-17422312D01*
X17883688Y-17554770D01*
X17987766Y-17710534D01*
X18059454Y-17883604D01*
X18096000Y-18067333D01*
X18096000Y-18254667D01*
X18059454Y-18438396D01*
X17987766Y-18611466D01*
X17883688Y-18767230D01*
X17751230Y-18899688D01*
X17595466Y-19003766D01*
X17422396Y-19075454D01*
X17238667Y-19112000D01*
X17051333Y-19112000D01*
X16867604Y-19075454D01*
X16694534Y-19003766D01*
X16538770Y-18899688D01*
X16406312Y-18767230D01*
X16302234Y-18611466D01*
X16230546Y-18438396D01*
X16194000Y-18254667D01*
X16194000Y-18067333D01*
X16230546Y-17883604D01*
X16302234Y-17710534D01*
X16406312Y-17554770D01*
X16538770Y-17422312D01*
X16694534Y-17318234D01*
X16867604Y-17246546D01*
X17051333Y-17210000D01*
X17238667Y-17210000D01*
X17422396Y-17246546D01*
X17422396Y-17246546D01*
G37*
G36*
X19714090Y-15613205D02*
X18763090Y-17260385D01*
X17115910Y-16309385D01*
X18066910Y-14662205D01*
X19714090Y-15613205D01*
X19714090Y-15613205D01*
G37*
G36*
X3861000Y-17170600D02*
X1727000Y-17170600D01*
X1727000Y-15341400D01*
X3861000Y-15341400D01*
X3861000Y-17170600D01*
X3861000Y-17170600D01*
G37*
G36*
X27582396Y-15046841D02*
X27755466Y-15118529D01*
X27911230Y-15222607D01*
X28043688Y-15355065D01*
X28147766Y-15510829D01*
X28219454Y-15683899D01*
X28256000Y-15867628D01*
X28256000Y-16054962D01*
X28219454Y-16238691D01*
X28147766Y-16411761D01*
X28043688Y-16567525D01*
X27911230Y-16699983D01*
X27755466Y-16804061D01*
X27582396Y-16875749D01*
X27398667Y-16912295D01*
X27211333Y-16912295D01*
X27027604Y-16875749D01*
X26854534Y-16804061D01*
X26698770Y-16699983D01*
X26566312Y-16567525D01*
X26462234Y-16411761D01*
X26390546Y-16238691D01*
X26354000Y-16054962D01*
X26354000Y-15867628D01*
X26390546Y-15683899D01*
X26462234Y-15510829D01*
X26566312Y-15355065D01*
X26698770Y-15222607D01*
X26854534Y-15118529D01*
X27027604Y-15046841D01*
X27211333Y-15010295D01*
X27398667Y-15010295D01*
X27582396Y-15046841D01*
X27582396Y-15046841D01*
G37*
G36*
X25081000Y-15302000D02*
X23179000Y-15302000D01*
X23179000Y-13400000D01*
X25081000Y-13400000D01*
X25081000Y-15302000D01*
X25081000Y-15302000D01*
G37*
G36*
X21867396Y-13436546D02*
X22040466Y-13508234D01*
X22196230Y-13612312D01*
X22328688Y-13744770D01*
X22432766Y-13900534D01*
X22504454Y-14073604D01*
X22541000Y-14257333D01*
X22541000Y-14444667D01*
X22504454Y-14628396D01*
X22432766Y-14801466D01*
X22328688Y-14957230D01*
X22196230Y-15089688D01*
X22040466Y-15193766D01*
X21867396Y-15265454D01*
X21683667Y-15302000D01*
X21496333Y-15302000D01*
X21312604Y-15265454D01*
X21139534Y-15193766D01*
X20983770Y-15089688D01*
X20851312Y-14957230D01*
X20747234Y-14801466D01*
X20675546Y-14628396D01*
X20639000Y-14444667D01*
X20639000Y-14257333D01*
X20675546Y-14073604D01*
X20747234Y-13900534D01*
X20851312Y-13744770D01*
X20983770Y-13612312D01*
X21139534Y-13508234D01*
X21312604Y-13436546D01*
X21496333Y-13400000D01*
X21683667Y-13400000D01*
X21867396Y-13436546D01*
X21867396Y-13436546D01*
G37*
G36*
X32582996Y-8396051D02*
X32616653Y-8406261D01*
X32647667Y-8422838D01*
X32674852Y-8445148D01*
X32697162Y-8472333D01*
X32713739Y-8503347D01*
X32723949Y-8537004D01*
X32728000Y-8578138D01*
X32728000Y-11807862D01*
X32723949Y-11848996D01*
X32713739Y-11882653D01*
X32697162Y-11913667D01*
X32674852Y-11940852D01*
X32647667Y-11963162D01*
X32616653Y-11979739D01*
X32582996Y-11989949D01*
X32541862Y-11994000D01*
X31212138Y-11994000D01*
X31171004Y-11989949D01*
X31137347Y-11979739D01*
X31106333Y-11963162D01*
X31079148Y-11940852D01*
X31056838Y-11913667D01*
X31040261Y-11882653D01*
X31030051Y-11848996D01*
X31026000Y-11807862D01*
X31026000Y-8578138D01*
X31030051Y-8537004D01*
X31040261Y-8503347D01*
X31056838Y-8472333D01*
X31079148Y-8445148D01*
X31106333Y-8422838D01*
X31137347Y-8406261D01*
X31171004Y-8396051D01*
X31212138Y-8392000D01*
X32541862Y-8392000D01*
X32582996Y-8396051D01*
X32582996Y-8396051D01*
G37*
G36*
X44071071Y-6658153D02*
X42726153Y-8003071D01*
X41381235Y-6658153D01*
X42726153Y-5313235D01*
X44071071Y-6658153D01*
X44071071Y-6658153D01*
G37*
G36*
X3180345Y-5580597D02*
X3353415Y-5652285D01*
X3509179Y-5756363D01*
X3641637Y-5888821D01*
X3745715Y-6044585D01*
X3817403Y-6217655D01*
X3853949Y-6401384D01*
X3853949Y-6588718D01*
X3817403Y-6772447D01*
X3745715Y-6945517D01*
X3641637Y-7101281D01*
X3509179Y-7233739D01*
X3353415Y-7337817D01*
X3180345Y-7409505D01*
X2996616Y-7446051D01*
X2809282Y-7446051D01*
X2625553Y-7409505D01*
X2452483Y-7337817D01*
X2296719Y-7233739D01*
X2164261Y-7101281D01*
X2060183Y-6945517D01*
X1988495Y-6772447D01*
X1951949Y-6588718D01*
X1951949Y-6401384D01*
X1988495Y-6217655D01*
X2060183Y-6044585D01*
X2164261Y-5888821D01*
X2296719Y-5756363D01*
X2452483Y-5652285D01*
X2625553Y-5580597D01*
X2809282Y-5544051D01*
X2996616Y-5544051D01*
X3180345Y-5580597D01*
X3180345Y-5580597D01*
G37*
G36*
X18144442Y-5074518D02*
X18210627Y-5081037D01*
X18323853Y-5115384D01*
X18380467Y-5132557D01*
X18519087Y-5206652D01*
X18536991Y-5216222D01*
X18572729Y-5245552D01*
X18674186Y-5328814D01*
X18757448Y-5430271D01*
X18786778Y-5466009D01*
X18786779Y-5466011D01*
X18870443Y-5622533D01*
X18870443Y-5622534D01*
X18921963Y-5792373D01*
X18939359Y-5969000D01*
X18921963Y-6145627D01*
X18887616Y-6258853D01*
X18870443Y-6315467D01*
X18821056Y-6407862D01*
X18786778Y-6471991D01*
X18757448Y-6507729D01*
X18674186Y-6609186D01*
X18572729Y-6692448D01*
X18536991Y-6721778D01*
X18536989Y-6721779D01*
X18380467Y-6805443D01*
X18323853Y-6822616D01*
X18210627Y-6856963D01*
X18144443Y-6863481D01*
X18078260Y-6870000D01*
X17989740Y-6870000D01*
X17923557Y-6863481D01*
X17857373Y-6856963D01*
X17744147Y-6822616D01*
X17687533Y-6805443D01*
X17531011Y-6721779D01*
X17531009Y-6721778D01*
X17495271Y-6692448D01*
X17393814Y-6609186D01*
X17310552Y-6507729D01*
X17281222Y-6471991D01*
X17246944Y-6407862D01*
X17197557Y-6315467D01*
X17180384Y-6258853D01*
X17146037Y-6145627D01*
X17128641Y-5969000D01*
X17146037Y-5792373D01*
X17197557Y-5622534D01*
X17197557Y-5622533D01*
X17281221Y-5466011D01*
X17281222Y-5466009D01*
X17310552Y-5430271D01*
X17393814Y-5328814D01*
X17495271Y-5245552D01*
X17531009Y-5216222D01*
X17548913Y-5206652D01*
X17687533Y-5132557D01*
X17744147Y-5115384D01*
X17857373Y-5081037D01*
X17923558Y-5074518D01*
X17989740Y-5068000D01*
X18078260Y-5068000D01*
X18144442Y-5074518D01*
X18144442Y-5074518D01*
G37*
G36*
X13064442Y-5074518D02*
X13130627Y-5081037D01*
X13243853Y-5115384D01*
X13300467Y-5132557D01*
X13439087Y-5206652D01*
X13456991Y-5216222D01*
X13492729Y-5245552D01*
X13594186Y-5328814D01*
X13677448Y-5430271D01*
X13706778Y-5466009D01*
X13706779Y-5466011D01*
X13790443Y-5622533D01*
X13790443Y-5622534D01*
X13841963Y-5792373D01*
X13859359Y-5969000D01*
X13841963Y-6145627D01*
X13807616Y-6258853D01*
X13790443Y-6315467D01*
X13741056Y-6407862D01*
X13706778Y-6471991D01*
X13677448Y-6507729D01*
X13594186Y-6609186D01*
X13492729Y-6692448D01*
X13456991Y-6721778D01*
X13456989Y-6721779D01*
X13300467Y-6805443D01*
X13243853Y-6822616D01*
X13130627Y-6856963D01*
X13064443Y-6863481D01*
X12998260Y-6870000D01*
X12909740Y-6870000D01*
X12843557Y-6863481D01*
X12777373Y-6856963D01*
X12664147Y-6822616D01*
X12607533Y-6805443D01*
X12451011Y-6721779D01*
X12451009Y-6721778D01*
X12415271Y-6692448D01*
X12313814Y-6609186D01*
X12230552Y-6507729D01*
X12201222Y-6471991D01*
X12166944Y-6407862D01*
X12117557Y-6315467D01*
X12100384Y-6258853D01*
X12066037Y-6145627D01*
X12048641Y-5969000D01*
X12066037Y-5792373D01*
X12117557Y-5622534D01*
X12117557Y-5622533D01*
X12201221Y-5466011D01*
X12201222Y-5466009D01*
X12230552Y-5430271D01*
X12313814Y-5328814D01*
X12415271Y-5245552D01*
X12451009Y-5216222D01*
X12468913Y-5206652D01*
X12607533Y-5132557D01*
X12664147Y-5115384D01*
X12777373Y-5081037D01*
X12843558Y-5074518D01*
X12909740Y-5068000D01*
X12998260Y-5068000D01*
X13064442Y-5074518D01*
X13064442Y-5074518D01*
G37*
G36*
X15604442Y-5074518D02*
X15670627Y-5081037D01*
X15783853Y-5115384D01*
X15840467Y-5132557D01*
X15979087Y-5206652D01*
X15996991Y-5216222D01*
X16032729Y-5245552D01*
X16134186Y-5328814D01*
X16217448Y-5430271D01*
X16246778Y-5466009D01*
X16246779Y-5466011D01*
X16330443Y-5622533D01*
X16330443Y-5622534D01*
X16381963Y-5792373D01*
X16399359Y-5969000D01*
X16381963Y-6145627D01*
X16347616Y-6258853D01*
X16330443Y-6315467D01*
X16281056Y-6407862D01*
X16246778Y-6471991D01*
X16217448Y-6507729D01*
X16134186Y-6609186D01*
X16032729Y-6692448D01*
X15996991Y-6721778D01*
X15996989Y-6721779D01*
X15840467Y-6805443D01*
X15783853Y-6822616D01*
X15670627Y-6856963D01*
X15604443Y-6863481D01*
X15538260Y-6870000D01*
X15449740Y-6870000D01*
X15383557Y-6863481D01*
X15317373Y-6856963D01*
X15204147Y-6822616D01*
X15147533Y-6805443D01*
X14991011Y-6721779D01*
X14991009Y-6721778D01*
X14955271Y-6692448D01*
X14853814Y-6609186D01*
X14770552Y-6507729D01*
X14741222Y-6471991D01*
X14706944Y-6407862D01*
X14657557Y-6315467D01*
X14640384Y-6258853D01*
X14606037Y-6145627D01*
X14588641Y-5969000D01*
X14606037Y-5792373D01*
X14657557Y-5622534D01*
X14657557Y-5622533D01*
X14741221Y-5466011D01*
X14741222Y-5466009D01*
X14770552Y-5430271D01*
X14853814Y-5328814D01*
X14955271Y-5245552D01*
X14991009Y-5216222D01*
X15008913Y-5206652D01*
X15147533Y-5132557D01*
X15204147Y-5115384D01*
X15317373Y-5081037D01*
X15383558Y-5074518D01*
X15449740Y-5068000D01*
X15538260Y-5068000D01*
X15604442Y-5074518D01*
X15604442Y-5074518D01*
G37*
G36*
X20684442Y-5074518D02*
X20750627Y-5081037D01*
X20863853Y-5115384D01*
X20920467Y-5132557D01*
X21059087Y-5206652D01*
X21076991Y-5216222D01*
X21112729Y-5245552D01*
X21214186Y-5328814D01*
X21297448Y-5430271D01*
X21326778Y-5466009D01*
X21326779Y-5466011D01*
X21410443Y-5622533D01*
X21410443Y-5622534D01*
X21461963Y-5792373D01*
X21479359Y-5969000D01*
X21461963Y-6145627D01*
X21427616Y-6258853D01*
X21410443Y-6315467D01*
X21361056Y-6407862D01*
X21326778Y-6471991D01*
X21297448Y-6507729D01*
X21214186Y-6609186D01*
X21112729Y-6692448D01*
X21076991Y-6721778D01*
X21076989Y-6721779D01*
X20920467Y-6805443D01*
X20863853Y-6822616D01*
X20750627Y-6856963D01*
X20684443Y-6863481D01*
X20618260Y-6870000D01*
X20529740Y-6870000D01*
X20463557Y-6863481D01*
X20397373Y-6856963D01*
X20284147Y-6822616D01*
X20227533Y-6805443D01*
X20071011Y-6721779D01*
X20071009Y-6721778D01*
X20035271Y-6692448D01*
X19933814Y-6609186D01*
X19850552Y-6507729D01*
X19821222Y-6471991D01*
X19786944Y-6407862D01*
X19737557Y-6315467D01*
X19720384Y-6258853D01*
X19686037Y-6145627D01*
X19668641Y-5969000D01*
X19686037Y-5792373D01*
X19737557Y-5622534D01*
X19737557Y-5622533D01*
X19821221Y-5466011D01*
X19821222Y-5466009D01*
X19850552Y-5430271D01*
X19933814Y-5328814D01*
X20035271Y-5245552D01*
X20071009Y-5216222D01*
X20088913Y-5206652D01*
X20227533Y-5132557D01*
X20284147Y-5115384D01*
X20397373Y-5081037D01*
X20463558Y-5074518D01*
X20529740Y-5068000D01*
X20618260Y-5068000D01*
X20684442Y-5074518D01*
X20684442Y-5074518D01*
G37*
G36*
X23224442Y-5074518D02*
X23290627Y-5081037D01*
X23403853Y-5115384D01*
X23460467Y-5132557D01*
X23599087Y-5206652D01*
X23616991Y-5216222D01*
X23652729Y-5245552D01*
X23754186Y-5328814D01*
X23837448Y-5430271D01*
X23866778Y-5466009D01*
X23866779Y-5466011D01*
X23950443Y-5622533D01*
X23950443Y-5622534D01*
X24001963Y-5792373D01*
X24019359Y-5969000D01*
X24001963Y-6145627D01*
X23967616Y-6258853D01*
X23950443Y-6315467D01*
X23901056Y-6407862D01*
X23866778Y-6471991D01*
X23837448Y-6507729D01*
X23754186Y-6609186D01*
X23652729Y-6692448D01*
X23616991Y-6721778D01*
X23616989Y-6721779D01*
X23460467Y-6805443D01*
X23403853Y-6822616D01*
X23290627Y-6856963D01*
X23224443Y-6863481D01*
X23158260Y-6870000D01*
X23069740Y-6870000D01*
X23003557Y-6863481D01*
X22937373Y-6856963D01*
X22824147Y-6822616D01*
X22767533Y-6805443D01*
X22611011Y-6721779D01*
X22611009Y-6721778D01*
X22575271Y-6692448D01*
X22473814Y-6609186D01*
X22390552Y-6507729D01*
X22361222Y-6471991D01*
X22326944Y-6407862D01*
X22277557Y-6315467D01*
X22260384Y-6258853D01*
X22226037Y-6145627D01*
X22208641Y-5969000D01*
X22226037Y-5792373D01*
X22277557Y-5622534D01*
X22277557Y-5622533D01*
X22361221Y-5466011D01*
X22361222Y-5466009D01*
X22390552Y-5430271D01*
X22473814Y-5328814D01*
X22575271Y-5245552D01*
X22611009Y-5216222D01*
X22628913Y-5206652D01*
X22767533Y-5132557D01*
X22824147Y-5115384D01*
X22937373Y-5081037D01*
X23003558Y-5074518D01*
X23069740Y-5068000D01*
X23158260Y-5068000D01*
X23224442Y-5074518D01*
X23224442Y-5074518D01*
G37*
G36*
X11315000Y-6870000D02*
X9513000Y-6870000D01*
X9513000Y-5068000D01*
X11315000Y-5068000D01*
X11315000Y-6870000D01*
X11315000Y-6870000D01*
G37*
G36*
X32582996Y-2996051D02*
X32616653Y-3006261D01*
X32647667Y-3022838D01*
X32674852Y-3045148D01*
X32697162Y-3072333D01*
X32713739Y-3103347D01*
X32723949Y-3137004D01*
X32728000Y-3178138D01*
X32728000Y-6407862D01*
X32723949Y-6448996D01*
X32713739Y-6482653D01*
X32697162Y-6513667D01*
X32674852Y-6540852D01*
X32647667Y-6563162D01*
X32616653Y-6579739D01*
X32582996Y-6589949D01*
X32541862Y-6594000D01*
X31212138Y-6594000D01*
X31171004Y-6589949D01*
X31137347Y-6579739D01*
X31106333Y-6563162D01*
X31079148Y-6540852D01*
X31056838Y-6513667D01*
X31040261Y-6482653D01*
X31030051Y-6448996D01*
X31026000Y-6407862D01*
X31026000Y-3178138D01*
X31030051Y-3137004D01*
X31040261Y-3103347D01*
X31056838Y-3072333D01*
X31079148Y-3045148D01*
X31106333Y-3022838D01*
X31137347Y-3006261D01*
X31171004Y-2996051D01*
X31212138Y-2992000D01*
X32541862Y-2992000D01*
X32582996Y-2996051D01*
X32582996Y-2996051D01*
G37*
G36*
X41207498Y-3947648D02*
X41380568Y-4019336D01*
X41536332Y-4123414D01*
X41668790Y-4255872D01*
X41772868Y-4411636D01*
X41844556Y-4584706D01*
X41881102Y-4768435D01*
X41881102Y-4955769D01*
X41844556Y-5139498D01*
X41772868Y-5312568D01*
X41668790Y-5468332D01*
X41536332Y-5600790D01*
X41380568Y-5704868D01*
X41207498Y-5776556D01*
X41023769Y-5813102D01*
X40836435Y-5813102D01*
X40652706Y-5776556D01*
X40479636Y-5704868D01*
X40323872Y-5600790D01*
X40191414Y-5468332D01*
X40087336Y-5312568D01*
X40015648Y-5139498D01*
X39979102Y-4955769D01*
X39979102Y-4768435D01*
X40015648Y-4584706D01*
X40087336Y-4411636D01*
X40191414Y-4255872D01*
X40323872Y-4123414D01*
X40479636Y-4019336D01*
X40652706Y-3947648D01*
X40836435Y-3911102D01*
X41023769Y-3911102D01*
X41207498Y-3947648D01*
X41207498Y-3947648D01*
G37*
G36*
X4976396Y-3784546D02*
X5149466Y-3856234D01*
X5305230Y-3960312D01*
X5437688Y-4092770D01*
X5541766Y-4248534D01*
X5613454Y-4421604D01*
X5650000Y-4605333D01*
X5650000Y-4792667D01*
X5613454Y-4976396D01*
X5541766Y-5149466D01*
X5437688Y-5305230D01*
X5305230Y-5437688D01*
X5149466Y-5541766D01*
X4976396Y-5613454D01*
X4792667Y-5650000D01*
X4605333Y-5650000D01*
X4421604Y-5613454D01*
X4248534Y-5541766D01*
X4092770Y-5437688D01*
X3960312Y-5305230D01*
X3856234Y-5149466D01*
X3784546Y-4976396D01*
X3748000Y-4792667D01*
X3748000Y-4605333D01*
X3784546Y-4421604D01*
X3856234Y-4248534D01*
X3960312Y-4092770D01*
X4092770Y-3960312D01*
X4248534Y-3856234D01*
X4421604Y-3784546D01*
X4605333Y-3748000D01*
X4792667Y-3748000D01*
X4976396Y-3784546D01*
X4976396Y-3784546D01*
G37*
G36*
X7839969Y-2902949D02*
X6495051Y-4247867D01*
X5150133Y-2902949D01*
X6495051Y-1558031D01*
X7839969Y-2902949D01*
X7839969Y-2902949D01*
G37*
G36*
X39411447Y-2151597D02*
X39584517Y-2223285D01*
X39740281Y-2327363D01*
X39872739Y-2459821D01*
X39976817Y-2615585D01*
X40048505Y-2788655D01*
X40085051Y-2972384D01*
X40085051Y-3159718D01*
X40048505Y-3343447D01*
X39976817Y-3516517D01*
X39872739Y-3672281D01*
X39740281Y-3804739D01*
X39584517Y-3908817D01*
X39411447Y-3980505D01*
X39227718Y-4017051D01*
X39040384Y-4017051D01*
X38856655Y-3980505D01*
X38683585Y-3908817D01*
X38527821Y-3804739D01*
X38395363Y-3672281D01*
X38291285Y-3516517D01*
X38219597Y-3343447D01*
X38183051Y-3159718D01*
X38183051Y-2972384D01*
X38219597Y-2788655D01*
X38291285Y-2615585D01*
X38395363Y-2459821D01*
X38527821Y-2327363D01*
X38683585Y-2223285D01*
X38856655Y-2151597D01*
X39040384Y-2115051D01*
X39227718Y-2115051D01*
X39411447Y-2151597D01*
X39411447Y-2151597D01*
G37*
G36*
X23375256Y698702D02*
X23481579Y677553D01*
X23782042Y553097D01*
X24048852Y374820D01*
X24052454Y372413D01*
X24282413Y142454D01*
X24463098Y-127960D01*
X24587553Y-428422D01*
X24651000Y-747389D01*
X24651000Y-1072611D01*
X24587553Y-1391578D01*
X24463098Y-1692040D01*
X24282413Y-1962454D01*
X24052454Y-2192413D01*
X24052451Y-2192415D01*
X23782042Y-2373097D01*
X23481579Y-2497553D01*
X23375256Y-2518702D01*
X23162611Y-2561000D01*
X22837389Y-2561000D01*
X22624744Y-2518702D01*
X22518421Y-2497553D01*
X22217958Y-2373097D01*
X21947549Y-2192415D01*
X21947546Y-2192413D01*
X21717587Y-1962454D01*
X21536902Y-1692040D01*
X21412447Y-1391578D01*
X21349000Y-1072611D01*
X21349000Y-747389D01*
X21412447Y-428422D01*
X21536902Y-127960D01*
X21717587Y142454D01*
X21947546Y372413D01*
X21951148Y374820D01*
X22217958Y553097D01*
X22518421Y677553D01*
X22624744Y698702D01*
X22837389Y741000D01*
X23162611Y741000D01*
X23375256Y698702D01*
X23375256Y698702D01*
G37*
M02*
